<?xml version="1.0" encoding="UTF-8"?>
<svg id="Layer_1" data-name="Layer 1" xmlns="http://www.w3.org/2000/svg" viewBox="0 0 314 372">
  <defs>
    <style>
      .cls-1 {
        fill: #b3aecc;
      }

      .cls-2 {
        fill: #b6b1d1;
      }

      .cls-3 {
        fill: #201652;
      }

      .cls-4 {
        fill: #100744;
      }
    </style>
  </defs>
  <path class="cls-3" d="M94.53,344.95c-.15-.16-.3-.33-.45-.49,0-.34-.2-.48-.51-.52,0,0,0,0,0,0,0-.33-.13-.53-.47-.57-.38-.44-.77-.89-1.15-1.33,0-.59-.28-.98-.87-1.13-.22-.29-.44-.58-.66-.87,.05-.6-.22-.99-.78-1.18,0-.14-.06-.25-.16-.34-.22-.86-.44-1.73-1.35-2.16,0-.13-.06-.25-.15-.34-1.24-3.09-2.47-6.17-3.71-9.26-.05-.25-.09-.5-.14-.75,.31-1.28-.14-2.4-.71-3.5-.04-.48-.07-.97-.11-1.45,0-3.21,0-6.42,0-9.63,.04-.31,.08-.63,.12-.94,.96-4.07,2.11-8.08,3.51-12.02,.12-.24,.24-.48,.35-.71,1.08-1.06,1.67-2.39,2.15-3.79,.11-.09,.16-.2,.17-.34,.83-.46,1.21-1.23,1.45-2.1,.5-.65,1.01-1.31,1.51-1.96,.54-.16,.89-.49,.94-1.07h0c.77-.24,1.28-.73,1.47-1.52h0c.79-.22,1.31-.68,1.5-1.5h0c.59-.04,.95-.36,1.1-.92,.65-.51,1.29-1.02,1.94-1.53,1.02-.43,2.03-.88,2.65-1.88,.13-.04,.23-.12,.3-.24,1.55-.46,3-1.13,4.17-2.29,.26-.1,.53-.2,.79-.31,2.85-.96,5.71-1.92,8.56-2.87,.48-.06,.95-.12,1.43-.19,1.15,.16,2.29,.21,3.31-.52,.19-.16,.37-.32,.56-.47,1.38-2.15,.43-5.68,3.88-6.61,.26-.09,.52-.18,.78-.26,1.87-.44,3.67-1.07,5.29-2.14,.41-.12,.82-.23,1.22-.35,1.41-.22,2.86-.35,3.96-1.68-1.42-.03-2.72-.3-3.9,.48-1.33,.06-2.67,.12-4,.18-3.21-.33-6.37,.07-9.51,.71-.48,.03-.96,.07-1.44,.1-1.64-.16-3.27-.25-4.79,.58-.59,.05-1.18,.09-1.77,.14-2.07-.39-4.04,.13-6,.69-.32,.03-.63,.06-.95,.09-1.3-.09-2.61-.25-3.76,.61-.43,.04-.87,.08-1.3,.12-1.57-.23-3.07,0-4.49,.7-.31,.04-.62,.09-.93,.13-.99-.13-1.99-.28-2.79,.55-.43,.05-.85,.1-1.28,.15-1.25-.23-2.43-.05-3.49,.69-.31,.04-.62,.09-.93,.13-.84-.16-1.67-.23-2.3,.53-.26,.05-.52,.09-.77,.14-3.37,.27-6.64,.94-9.73,2.35-.26,.04-.51,.09-.77,.13-3.21,.51-6.32,1.32-9.18,2.94-.26,.08-.53,.16-.79,.23-2.23,.57-4.41,1.23-6.21,2.76-.25,.1-.51,.2-.76,.3-1.79,.52-3.36,1.4-4.56,2.86-.38,.28-.76,.55-1.13,.83-.61,.07-.93,.43-1.06,1.01-.16,.16-.31,.31-.47,.47-.57,.15-.88,.51-.93,1.1,0,0,0,0,0,0-1.08,.75-1.58,1.78-1.5,3.1,0,.83,0,1.65,0,2.48-.16,1.35,.42,2.36,1.47,3.15,.22,.28,.45,.55,.67,.83,.36,.96,.96,1.67,2.01,1.9,.06,.12,.16,.2,.28,.25,.62,1,1.53,1.59,2.68,1.82,.09,.1,.21,.16,.35,.17,.44,.91,1.29,1.13,2.17,1.29,.25,.1,.5,.21,.74,.31,.54,.82,1.38,1.03,2.26,1.15,.27,.09,.53,.18,.8,.27,4.15,2.28,8.6,3.71,13.24,4.55,.31,.06,.61,.12,.92,.17,.4,.52,.91,.69,1.55,.49,.28,.08,.55,.17,.83,.25,.02,.8,.03,1.6,.05,2.4-.04,.44-.09,.88-.13,1.32-1.21,2.17-.55,4.53-.66,6.81-.06,1.23-.27,1.65-1.57,1.25-2.85-.88-5.78-1.53-8.61-2.48-5.02-1.69-10-3.53-14.99-5.3-.26-.09-.52-.18-.77-.28-.49-.88-1.39-1-2.24-1.19-.25-.11-.49-.22-.74-.33-2.49-1.71-4.99-3.42-7.77-4.65-.08-.11-.19-.19-.32-.23-.35-.7-.89-1.16-1.68-1.29-.28-.23-.56-.46-.83-.69-.26-.77-.83-1.2-1.56-1.47,0,0,0,0,0,0-.21-.78-.79-1.2-1.47-1.53,0,0,0,0,0,0-.01-.62-.43-.9-.94-1.09-.03-.13-.1-.23-.22-.29-.84-1.51-1.67-3.02-2.51-4.53-.08-.3-.17-.61-.25-.91,0-2.23,.02-4.46,.02-6.7,.07-.31,.14-.61,.22-.92,1.33-1.6,1.6-3.59,2.03-5.52,.07-.27,.14-.54,.21-.81,2.19-4.57,3.46-9.48,5.22-14.21,.12-.1,.18-.23,.19-.38,1.29-1.13,2.25-2.49,2.82-4.12,.12-.09,.18-.2,.2-.35,.87-.43,1.13-1.28,1.43-2.09,.11-.08,.16-.18,.17-.31,.57-.21,.79-.64,.76-1.23,.41-.59,.81-1.19,1.22-1.78,.65-.42,1.21-.89,1.16-1.76,.75-1.11,1.49-2.23,2.24-3.34,1.2-.94,1.98-2.14,2.39-3.6,.2-.3,.4-.61,.6-.91,1.48-1.47,2.64-3.14,3.38-5.1,.12-.06,.19-.16,.22-.29,.97-.65,1.5-1.6,1.83-2.68,.87-1.63,2.18-2.5,3.99-3.08,17.24-5.54,34.8-9.55,52.81-11.51,7.26-.79,14.52-1.67,21.77-2.64-7.93-1.34-15.93-1.78-23.95-1.59-16.6,.39-33.04,2.37-49.31,5.66-2.82,.57-2.84,.51-2.53-2.25,1.71-15.56,3.3-31.13,5.1-46.67,2.47-21.34,5.23-42.63,8.99-63.79,1.72-9.67,3.73-19.25,6.28-28.74,2.6-9.71,8.8-16.17,17.29-20.89,11.45-6.37,23.94-9.37,36.73-11.38,.62-.1,1.24-.18,2.47-.35-2.4-1.11-4.39-1.12-6.34-1.06-1.56,.04-1.96-.48-1.86-2.04,1.25-19.12,19.53-34.54,38.49-32.41,18.89,2.12,31.66,15.63,32.56,34.63,.1,2.08,1.1,2.41,2.7,2.74,10.47,2.17,20.65,5.2,29.88,10.79,1.84,1.12,3.57,2.43,5.35,3.65,.18,.53,.51,.88,1.1,.93h0c.1,.58,.42,.92,1.02,.97,.17,.17,.34,.34,.51,.51,.08,.58,.41,.9,1,.97,0,0,.02,.02,.02,.02,.05,.58,.36,.93,.91,1.09,.5,.65,1.01,1.3,1.51,1.96-.06,.6,.38,.9,.76,1.23,.14,.23,.28,.46,.42,.69,1.08,3.02,2.17,6.03,3.22,9.05,.94,2.7,1.14,5.62,2.42,8.23,.04,.26,.08,.51,.12,.77-.28,.96,.06,1.76,.63,2.5,.04,.31,.09,.63,.13,.94-.1,1-.09,1.96,.65,2.76,.04,.26,.08,.53,.12,.79-.26,1.11,.06,2.08,.69,2.99,.04,.32,.07,.64,.11,.96-.15,.99-.25,1.98,.6,2.76,.05,.44,.1,.87,.15,1.31,.14,2.46,.32,4.91,1.34,7.2,.04,.26,.07,.53,.11,.79-.24,1.57,.08,3.06,.73,4.49,.04,.31,.07,.62,.11,.94,0,2.93,.55,5.77,1.41,8.55,.07,.64,.15,1.29,.22,1.93-.27,1.6,.14,3.11,.68,4.59,.04,.31,.07,.63,.11,.94-.16,1.16-.18,2.29,.59,3.28,.05,.59,.1,1.18,.16,1.77-.35,1.74,.23,3.36,.67,4.99,.03,.32,.07,.63,.1,.95-.11,1.31-.22,2.62,.61,3.78,.05,.6,.1,1.19,.15,1.79-.33,1.74,.09,3.38,.68,4.99,.04,.48,.09,.96,.13,1.43-.13,1.15-.3,2.3,.55,3.28,.04,.43,.07,.87,.11,1.3-.25,1.89-.1,3.73,.69,5.49,.06,.81,.13,1.62,.19,2.42-.12,1.14-.37,2.31,.5,3.3,.04,.43,.08,.86,.12,1.29-.16,2.21-.09,4.39,.74,6.48,.05,.64,.11,1.29,.16,1.93,.04,3.9,.43,7.76,1.34,11.57,.07,.64,.13,1.29,.2,1.93-.34,2.42,.14,4.76,.72,7.08,.04,.48,.07,.97,.11,1.45-.16,1.64-.2,3.27,.58,4.8,.05,.58,.1,1.17,.14,1.75-.3,2.22,.04,4.37,.69,6.49,.03,.65,.06,1.3,.09,1.94-.09,1.64-.26,3.28,.58,4.81,.06,.92,.13,1.84,.19,2.76,.07,2.14-.58,4.46,1.44,6.14,.01,.14,.08,.25,.19,.33,0,.57,.3,.94,.78,1.2,.2,.29,.41,.57,.61,.86,.14,.93,.59,1.64,1.42,2.11,.01,.14,.08,.25,.19,.34,.26,1.12,.8,2.06,1.77,2.71,.19,.28,.38,.57,.58,.85-.05,.34,.1,.55,.44,.62,.02,.13,.09,.24,.2,.31-.03,.59,.24,.97,.8,1.14l.14-.07s-.13,.08-.13,.08c.24,1,.68,1.87,1.59,2.44,.21,.3,.42,.6,.63,.9-.02,.59,.21,1,.8,1.17,.02,.14,.08,.25,.19,.34,.23,1.14,.86,2.02,1.77,2.71,.2,.29,.4,.57,.6,.86,.53,1.39,1.18,2.7,2.42,3.61,.19,.3,.38,.6,.56,.9,.71,1.7,1.6,3.27,3.02,4.5h0c1.54,2.95,2.02,6.34,3.77,9.2,.06,.25,.12,.49,.19,.74,.05,1.39,.46,2.65,1.37,3.73,.1,.42,.2,.83,.31,1.25-.15,.48,.05,.8,.47,1.03,.08,.3,.16,.61,.24,.91-.2,.59,.02,1,.56,1.27,.06,.27,.12,.54,.18,.81,.09,1.35,.39,2.63,1.33,3.68,.03,.28,.06,.55,.09,.83-.31,.53-.23,1.03,.12,1.5,0,.33,0,.65,0,.98-.57,2.13-1.14,4.27-1.71,6.4,0,0,0,.02,0,.02-.78,.49-1.08,1.29-1.38,2.09-.52,.64-1.05,1.27-1.57,1.9-.56,.12-.91,.44-1,1.02h0c-.59,.06-.87,.47-1.07,.96-1.1,.9-2.2,1.8-3.3,2.71-2.84,1.4-5.53,3.06-8.15,4.83-.14,0-.27,.05-.37,.15-.97,.27-2.02,.39-2.64,1.34-.14,0-.27,.03-.37,.13-1.07,.07-2.05,.34-2.74,1.25-.4,.13-.81,.26-1.21,.39-1.86,.45-3.67,1.04-5.27,2.12-.41,.11-.83,.22-1.24,.33-2.83,.64-5.61,1.44-8.24,2.7-.43,.08-.85,.17-1.28,.25-.63-.17-1.12,.05-1.52,.53-.31,.06-.61,.12-.92,.18-1.78,.14-3.52,.41-5.07,1.38-.31,.07-.62,.13-.93,.2-1.93,.14-3.84,.32-5.58,1.29-.31,.05-.62,.1-.93,.15-2.52,.07-4.96,.57-7.32,1.46-.25,.04-.51,.08-.76,.12-1.42-.26-2.72,.14-4,.7-.31,.04-.63,.07-.94,.11-1.15-.11-2.29-.13-3.29,.59-.42,.05-.84,.09-1.27,.14-3.12,.19-6.24,.37-9.25,1.34-.75,.06-1.5,.11-2.26,.17-2.06-.2-4.07,.04-6.03,.7-.63,.04-1.27,.08-1.9,.12-1.79-.09-3.61-.39-5.3,.55-.42,.03-.85,.07-1.27,.1-4.02-.15-8.03-.04-12,.74-1.98,.06-3.95,.12-5.93,.19-3.92-.37-7.84-.02-11.76-.03-.43,0-.78,.23-.82,.73-.09,.25-.17,.5-.26,.75-.87,.73-.98,1.77-1.14,2.8-.11,.24-.21,.49-.32,.73-.5,.28-.8,.66-.67,1.27-.31,.56-.61,1.12-.92,1.68-.63,.45-1.06,1.02-1.08,1.83-.4,.62-.79,1.24-1.19,1.85-.52,.2-.85,.54-.82,1.13-.11,.07-.19,.17-.24,.3-.34,.03-.5,.21-.48,.55l.11,.08s-.12-.06-.12-.06c-.56,.15-.87,.5-.9,1.09-.98,1.02-1.97,2.05-2.95,3.07-1.14,.47-1.98,1.28-2.64,2.3,0,0-.03,.01-.03,.01-.32-.04-.51,.1-.57,.42-.13,.04-.22,.12-.29,.23-1.39,.51-2.66,1.21-3.6,2.4-.14,0-.27,.06-.37,.16-.85,.2-1.69,.41-2.16,1.26l.08,.15s-.09-.14-.09-.14c-3.88,1.28-7.75,2.57-11.63,3.85-.58,.07-1.17,.15-1.75,.22-3.67,0-7.34,0-11.01-.01-.42-.05-.85-.09-1.27-.14-5.04-1.35-9.92-3.12-14.6-5.41l-.07,.14s.06-.14,.06-.14c-.47-.81-1.26-1.13-2.09-1.38-.09-.1-.2-.16-.33-.16-.54-.85-1.2-1.53-2.24-1.71-.06-.12-.15-.21-.28-.25-.05-.33-.26-.48-.58-.48-.17-.15-.33-.3-.5-.44-.15-.55-.47-.91-1.07-.96h0c-.22-.78-.74-1.27-1.49-1.53Zm73.43-82.05c-5.5,0-11,.01-16.5,0-1.18,0-2.02,.13-2.33,1.59-.93,4.48-1.97,8.94-3.06,13.38-.42,1.72-.15,2.69,1.51,3.83,10.99,7.46,17.1,17.96,18.33,31.15,.23,2.46,.93,2.93,3.22,2.9,18.51-.26,36.94-1.55,55.26-4.25,12.77-1.88,25.42-4.36,37.5-9.11,4.73-1.86,9.38-3.97,12.89-7.83,3.21-3.53,3.13-7.14-.11-10.67-2.58-2.82-5.86-4.63-9.29-6.17-13.1-5.92-27.09-8.56-41.16-10.66-18.64-2.77-37.41-4.06-56.26-4.14Zm-3.7-215.56c3.57,.2,7.15,.4,10.72,.6,3.37,.19,3.56-.06,2.57-3.39-2.28-7.67-9.51-12.97-17.22-12.62-8.04,.37-14.62,6.08-16.34,14.04-.37,1.73,.05,2.19,1.8,2.06,6.14-.45,12.3-.8,18.47-.7Zm-13.2,214.28c0,.08,0,.15,0,.23h18.36c0-.08,0-.15,0-.23h-18.36Z"/>
  <path class="cls-1" d="M48.97,311.08c4.99,1.78,9.97,3.61,14.99,5.3,2.83,.95,5.76,1.6,8.61,2.48,1.3,.4,1.51-.02,1.57-1.25,.12-2.27-.55-4.64,.66-6.81,.05,2.49,.11,4.98,.14,7.47,.02,1.6-.87,1.72-2.16,1.38-4.4-1.15-8.8-2.32-13.08-3.89-3.27-1.2-6.51-2.5-9.76-3.73-.49-.19-.94-.34-.99-.95Z"/>
  <path class="cls-2" d="M247.28,91.22c-1.28-2.6-1.48-5.53-2.42-8.23-1.05-3.02-2.15-6.03-3.22-9.05,1.61,.84,1.63,2.61,2.2,3.99,1.63,3.89,2.6,7.99,3.59,12.08,.09,.37-.09,.8-.15,1.21Z"/>
  <path class="cls-2" d="M103.12,351.87c4.68,2.3,9.56,4.07,14.6,5.41-4.29,.29-7.94-1.72-11.67-3.37-1.07-.47-2.47-.63-2.93-2.04Z"/>
  <path class="cls-1" d="M35.36,264.44c-1.76,4.73-3.03,9.64-5.22,14.21,1.18-4.94,2.24-9.93,5.22-14.21Z"/>
  <path class="cls-2" d="M118.99,357.42c3.67,0,7.34,0,11.01,.01-3.67,1.66-7.34,1.48-11.01-.01Z"/>
  <path class="cls-2" d="M164.01,329.51c.05-.5,.4-.73,.82-.73,3.92,0,7.84-.35,11.76,.03-.81,1.07-1.98,.57-2.98,.6-3.2,.09-6.4,.07-9.6,.1Z"/>
  <path class="cls-1" d="M71.6,306.18c-4.64-.85-9.09-2.27-13.24-4.55,4.49,1.29,8.99,2.56,13.24,4.55Z"/>
  <path class="cls-2" d="M182.52,328.62c3.97-.77,7.97-.89,12-.74-3.95,.97-7.93,1.53-12,.74Z"/>
  <path class="cls-2" d="M262.65,196.48c-.91-3.8-1.3-7.66-1.34-11.57,1.13,3.78,1.93,7.59,1.34,11.57Z"/>
  <path class="cls-2" d="M86.93,298.47c-1.4,3.94-2.55,7.95-3.51,12.02-1.23-2.05,.34-3.85,.74-5.66,.49-2.22,.9-4.66,2.78-6.36Z"/>
  <path class="cls-2" d="M131.75,357.21c3.88-1.28,7.75-2.57,11.63-3.85-3.45,2.58-7.32,3.86-11.63,3.85Z"/>
  <path class="cls-1" d="M119.01,264.57c3.14-.64,6.3-1.04,9.51-.71-3.1,1.17-6.27,1.43-9.51,.71Z"/>
  <path class="cls-2" d="M83.3,311.43c0,3.21,0,6.42,0,9.63-1.26-3.21-1.28-6.42,0-9.63Z"/>
  <path class="cls-1" d="M72.28,272.27c3.09-1.42,6.36-2.09,9.73-2.35-3.12,1.29-6.33,2.2-9.73,2.35Z"/>
  <path class="cls-1" d="M62.33,275.34c2.85-1.62,5.97-2.43,9.18-2.94-2.79,1.83-6.02,2.27-9.18,2.94Z"/>
  <path class="cls-2" d="M276.4,309.41c2.62-1.77,5.31-3.42,8.15-4.83-2.19,2.5-4.97,4-8.15,4.83Z"/>
  <path class="cls-2" d="M84.25,326.76c1.24,3.09,2.47,6.17,3.71,9.26-2.08-2.75-3.72-5.67-3.71-9.26Z"/>
  <path class="cls-2" d="M289.72,272.75c-1.75-2.87-2.22-6.26-3.77-9.21,.45,0,.84,.16,1.01,.59,1.11,2.81,2.54,5.52,2.76,8.62Z"/>
  <path class="cls-1" d="M37.44,304.64c2.78,1.23,5.28,2.93,7.77,4.65-3.04-.79-5.63-2.35-7.77-4.65Z"/>
  <path class="cls-2" d="M254.16,128.97c-.86-2.79-1.42-5.62-1.41-8.55,1.15,2.74,1.83,5.56,1.41,8.55Z"/>
  <path class="cls-2" d="M211.26,326.26c3.01-.97,6.13-1.15,9.25-1.34-2.91,1.63-6.11,1.29-9.25,1.34Z"/>
  <path class="cls-2" d="M115.99,275.44c-2.85,.96-5.71,1.92-8.56,2.87,2.48-2.05,5.46-2.66,8.56-2.87Z"/>
  <path class="cls-2" d="M263.57,205.49c-.59-2.33-1.06-4.66-.72-7.08,1.13,2.27,1.41,4.63,.72,7.08Z"/>
  <path class="cls-2" d="M125.17,267.64c-3.45,.94-2.5,4.46-3.88,6.61-.58-3.84,.75-6.12,3.88-6.61Z"/>
  <path class="cls-2" d="M254.31,317.83c2.63-1.26,5.41-2.06,8.24-2.7-2.47,1.73-5.27,2.49-8.24,2.7Z"/>
  <path class="cls-2" d="M230.77,323.26c2.36-.89,4.8-1.4,7.32-1.46-2.25,1.46-4.75,1.65-7.32,1.46Z"/>
  <path class="cls-1" d="M27.68,285.91c0,2.23-.02,4.46-.02,6.7-1.47-2.24-1.55-4.47,.02-6.7Z"/>
  <path class="cls-2" d="M265.08,219.99c-.65-2.12-.99-4.27-.69-6.49,.97,2.09,1.43,4.23,.69,6.49Z"/>
  <path class="cls-1" d="M105.01,266.09c1.96-.57,3.93-1.08,6-.69-1.88,1.26-3.9,1.32-6,.69Z"/>
  <path class="cls-2" d="M251.81,114.2c-1.02-2.3-1.2-4.74-1.34-7.2,1.47,2.21,1.36,4.71,1.34,7.2Z"/>
  <path class="cls-2" d="M261.15,182.98c-.83-2.09-.9-4.27-.74-6.48,.78,2.1,1.53,4.2,.74,6.48Z"/>
  <path class="cls-1" d="M132.52,263.68c1.18-.78,2.47-.51,3.9-.48-1.1,1.33-2.55,1.46-3.96,1.68,.14-.39,.42-.78,.06-1.2Z"/>
  <path class="cls-1" d="M55.32,278.34c1.8-1.53,3.98-2.2,6.21-2.76-1.76,1.62-3.92,2.33-6.21,2.76Z"/>
  <path class="cls-2" d="M267.39,235.64c-2.02-1.69-1.37-4-1.44-6.14,1.43,1.83,.77,4.14,1.44,6.14Z"/>
  <path class="cls-2" d="M202.98,327.12c1.96-.66,3.97-.89,6.03-.7-1.89,1.23-3.92,1.35-6.03,.7Z"/>
  <path class="cls-2" d="M259.6,169.49c-.79-1.76-.94-3.6-.69-5.49,.59,1.78,1.54,3.52,.69,5.49Z"/>
  <path class="cls-1" d="M29.93,279.46c-.43,1.93-.7,3.92-2.03,5.52,.06-2.07,.68-3.93,2.03-5.52Z"/>
  <path class="cls-1" d="M51.94,239.47c-.74,1.96-1.9,3.63-3.38,5.1,.67-2,1.46-3.93,3.38-5.1Z"/>
  <path class="cls-2" d="M239.02,321.65c1.73-.97,3.65-1.15,5.58-1.29-1.65,1.34-3.54,1.61-5.58,1.29Z"/>
  <path class="cls-2" d="M292.87,295.88c.57-2.13,1.14-4.27,1.71-6.4,.63,2.45,.16,4.61-1.71,6.4Z"/>
  <path class="cls-2" d="M258.12,157.99c-.59-1.62-1-3.25-.68-4.99,1.07,1.55,1.35,3.21,.68,4.99Z"/>
  <path class="cls-2" d="M256.58,146.49c-.44-1.64-1.02-3.25-.67-4.99,.87,1.58,1.49,3.19,.67,4.99Z"/>
  <path class="cls-2" d="M195.78,327.79c1.69-.93,3.5-.64,5.3-.55-1.65,1.27-3.49,.77-5.3,.55Z"/>
  <path class="cls-2" d="M285.96,263.55c-1.42-1.22-2.31-2.8-3.02-4.5,1.74,1.01,2.47,2.69,3.02,4.5Z"/>
  <path class="cls-2" d="M245.53,320.16c1.55-.97,3.29-1.23,5.07-1.38-1.56,.94-3.13,1.84-5.07,1.38Z"/>
  <path class="cls-1" d="M27.91,293.51c.84,1.51,1.67,3.02,2.51,4.53-1.74-1.01-2.48-2.58-2.51-4.53Z"/>
  <path class="cls-2" d="M263.79,314.8c1.6-1.09,3.41-1.67,5.27-2.12-1.51,1.32-3.19,2.22-5.27,2.12Z"/>
  <path class="cls-2" d="M131.23,265.24c-1.62,1.07-3.41,1.7-5.29,2.14,1.5-1.37,3.18-2.29,5.29-2.14Z"/>
  <path class="cls-2" d="M255.06,135.49c-.54-1.48-.95-2.99-.68-4.59,1.01,1.41,1.42,2.92,.68,4.59Z"/>
  <path class="cls-1" d="M94.51,267.6c1.42-.7,2.92-.93,4.49-.7-1.38,.97-2.84,1.43-4.49,.7Z"/>
  <path class="cls-1" d="M50.01,281.5c1.2-1.46,2.77-2.34,4.56-2.86-1.2,1.46-2.73,2.39-4.56,2.86Z"/>
  <path class="cls-1" d="M38.38,259.94c-.57,1.63-1.54,2.98-2.82,4.12,.41-1.74,1.2-3.21,2.82-4.12Z"/>
  <path class="cls-2" d="M252.64,119.48c-.65-1.43-.97-2.91-.73-4.49,.91,1.39,1.47,2.83,.73,4.49Z"/>
  <path class="cls-1" d="M112.78,265.26c1.52-.83,3.15-.74,4.79-.58-1.45,1.44-3.15,.72-4.79,.58Z"/>
  <path class="cls-2" d="M264.25,211.74c-.78-1.53-.73-3.16-.58-4.8,1.48,1.45,.76,3.15,.58,4.8Z"/>
  <path class="cls-2" d="M265.75,226.74c-.84-1.52-.67-3.17-.58-4.81,1.42,1.45,.75,3.16,.58,4.81Z"/>
  <path class="cls-2" d="M226.01,324.08c1.28-.55,2.58-.95,4-.7-1.17,1.19-2.5,1.42-4,.7Z"/>
  <path class="cls-2" d="M106.64,278.62c-1.17,1.16-2.62,1.83-4.17,2.29,.98-1.51,2.52-2.01,4.17-2.29Z"/>
  <path class="cls-2" d="M291.28,277.22c-.91-1.07-1.32-2.33-1.37-3.73,1.34,.92,1.56,2.25,1.37,3.73Z"/>
  <path class="cls-1" d="M86.02,269.11c1.06-.73,2.24-.92,3.49-.69-1.03,.9-2.13,1.43-3.49,.69Z"/>
  <path class="cls-1" d="M47.95,245.48c-.41,1.46-1.19,2.67-2.39,3.6,.21-1.59,1.1-2.73,2.39-3.6Z"/>
  <path class="cls-2" d="M83.4,322.52c.57,1.1,1.02,2.22,.71,3.5-.99-1.01-1.44-2.13-.71-3.5Z"/>
  <path class="cls-2" d="M89.44,293.97c-.48,1.4-1.07,2.73-2.15,3.79-.06-1.71,.83-2.87,2.15-3.79Z"/>
  <path class="cls-2" d="M282.37,258.15c-1.25-.91-1.89-2.22-2.42-3.61,1.55,.7,2.07,2.1,2.42,3.61Z"/>
  <path class="cls-2" d="M145.91,351.93c.94-1.19,2.21-1.89,3.6-2.4-.82,1.37-2.03,2.16-3.6,2.4Z"/>
  <path class="cls-2" d="M257.29,151.21c-.82-1.16-.72-2.47-.61-3.78,1.34,1.08,.78,2.46,.61,3.78Z"/>
  <path class="cls-1" d="M100.31,266.78c1.15-.86,2.46-.7,3.76-.61-1.07,1.34-2.45,.78-3.76,.61Z"/>
  <path class="cls-2" d="M294.36,286.16c-.94-1.05-1.24-2.32-1.33-3.68,1.43,.87,1.28,2.31,1.33,3.68Z"/>
  <path class="cls-2" d="M150.39,348.86c.66-1.02,1.5-1.84,2.64-2.3-.42,1.3-1.15,2.25-2.64,2.3Z"/>
  <path class="cls-1" d="M44.91,288.01c-.08-1.31,.42-2.35,1.5-3.1-.21,1.17-.3,2.41-1.5,3.1Z"/>
  <path class="cls-2" d="M120.73,274.73c-1.02,.73-2.15,.68-3.31,.52,.94-1.19,2.14-.75,3.31-.52Z"/>
  <path class="cls-2" d="M260.29,175.21c-.87-.99-.61-2.16-.5-3.3,1.15,.95,.7,2.14,.5,3.3Z"/>
  <path class="cls-2" d="M258.8,162.7c-.85-.98-.68-2.13-.55-3.28,1.21,.92,.72,2.13,.55,3.28Z"/>
  <path class="cls-2" d="M221.78,324.78c1-.73,2.14-.71,3.29-.59-.9,1.3-2.12,.79-3.29,.59Z"/>
  <path class="cls-2" d="M255.75,139.72c-.77-.99-.75-2.13-.59-3.28,1.32,.89,.78,2.12,.59,3.28Z"/>
  <path class="cls-1" d="M46.38,293.64c-1.05-.79-1.63-1.79-1.47-3.15,.89,.86,1.39,1.9,1.47,3.15Z"/>
  <path class="cls-2" d="M102.17,281.15c-.62,1-1.63,1.44-2.65,1.88,.42-1.29,1.36-1.83,2.65-1.88Z"/>
  <path class="cls-2" d="M249.62,101.98c-.63-.9-.94-1.88-.69-2.99,.69,.89,1.32,1.79,.69,2.99Z"/>
  <path class="cls-1" d="M53.98,236.5c-.33,1.08-.86,2.03-1.83,2.68,0-1.31,.65-2.18,1.83-2.68Z"/>
  <path class="cls-2" d="M272.35,243.18c-.97-.66-1.51-1.59-1.77-2.71,1.15,.54,1.76,1.43,1.77,2.71Z"/>
  <path class="cls-2" d="M279.35,253.68c-.91-.69-1.54-1.57-1.77-2.71,1.13,.55,1.77,1.43,1.77,2.71Z"/>
  <path class="cls-1" d="M52.03,298.44c-1.15-.23-2.05-.82-2.68-1.82,1.23,.1,2.17,.64,2.68,1.82Z"/>
  <path class="cls-2" d="M248.82,98.2c-.74-.8-.75-1.77-.65-2.76,1.22,.68,.86,1.74,.65,2.76Z"/>
  <path class="cls-2" d="M250.32,105.69c-.84-.78-.74-1.77-.6-2.76,1.14,.72,.78,1.76,.6,2.76Z"/>
  <path class="cls-2" d="M98.44,348.62c1.05,.17,1.71,.86,2.24,1.71-1.3,.16-1.85-.67-2.24-1.71Z"/>
  <path class="cls-1" d="M90.79,268.28c.8-.83,1.8-.68,2.79-.55-.74,1.16-1.78,.78-2.79,.55Z"/>
  <path class="cls-2" d="M270.28,312.29c.69-.91,1.67-1.17,2.74-1.25-.52,1.27-1.63,1.27-2.74,1.25Z"/>
  <path class="cls-2" d="M248.03,94.49c-.57-.74-.91-1.55-.63-2.5,.74,.7,1.44,1.41,.63,2.5Z"/>
  <path class="cls-2" d="M162.62,333.05c.16-1.02,.26-2.06,1.14-2.8,.15,1.15,0,2.17-1.14,2.8Z"/>
  <path class="cls-2" d="M275.96,248.56c-.91-.57-1.34-1.44-1.59-2.44,1.16,.4,1.52,1.33,1.59,2.44Z"/>
  <path class="cls-1" d="M49.07,296.37c-1.05-.23-1.65-.94-2.01-1.9,1.06,.22,1.7,.89,2.01,1.9Z"/>
  <path class="cls-2" d="M273.39,310.91c.62-.96,1.67-1.07,2.64-1.34-.49,1.2-1.57,1.27-2.64,1.34Z"/>
  <path class="cls-1" d="M74.94,309.5c-.02-.8-.03-1.6-.05-2.4,1.08,.58,1.09,.67,.05,2.4Z"/>
  <path class="cls-1" d="M40.01,257.5c-.31,.81-.56,1.67-1.43,2.09,.04-1,.26-1.87,1.43-2.09Z"/>
  <path class="cls-2" d="M143.39,353.36c.47-.85,1.31-1.06,2.16-1.26-.32,1.1-1.18,1.28-2.16,1.26Z"/>
  <path class="cls-2" d="M101.02,350.48c.84,.25,1.62,.58,2.09,1.38-1.05,.08-1.85-.23-2.09-1.38Z"/>
  <path class="cls-2" d="M88.12,336.35c.91,.43,1.12,1.3,1.35,2.16-1.15-.28-1.33-1.17-1.35-2.16Z"/>
  <path class="cls-2" d="M91.05,291.53c-.24,.87-.62,1.64-1.45,2.1,0-1.03,.22-1.91,1.45-2.1Z"/>
  <path class="cls-2" d="M270.39,240.13c-.83-.46-1.28-1.18-1.42-2.11,1.17,.23,1.42,1.09,1.42,2.11Z"/>
  <path class="cls-1" d="M82.78,269.78c.63-.75,1.46-.69,2.3-.53-.58,1-1.43,.79-2.3,.53Z"/>
  <path class="cls-2" d="M291.49,297.99c.3-.81,.59-1.61,1.38-2.09,.06,1.04-.2,1.87-1.38,2.09Z"/>
  <path class="cls-1" d="M57.56,301.35c-.89-.12-1.73-.34-2.26-1.15,1.02-.15,1.87,.05,2.26,1.15Z"/>
  <path class="cls-1" d="M45.95,309.61c.86,.19,1.75,.32,2.24,1.19-1,.08-1.85-.14-2.24-1.19Z"/>
  <path class="cls-1" d="M54.55,299.89c-.88-.16-1.74-.38-2.17-1.29,.97,0,1.85,.18,2.17,1.29Z"/>
  <path class="cls-2" d="M94.97,286.98c-.19,.79-.7,1.29-1.47,1.52,.07-.92,.56-1.42,1.47-1.52Z"/>
  <path class="cls-1" d="M31.58,299.42c.67,.33,1.26,.75,1.47,1.53-.98-.04-1.52-.5-1.47-1.53Z"/>
  <path class="cls-1" d="M33.04,300.95c.73,.27,1.31,.7,1.56,1.47-1,.02-1.53-.46-1.56-1.47Z"/>
  <path class="cls-2" d="M96.48,285.48c-.18,.81-.71,1.28-1.5,1.49,.07-.92,.59-1.41,1.5-1.49Z"/>
  <path class="cls-2" d="M94.53,344.95c.76,.26,1.27,.76,1.49,1.53-.98-.04-1.45-.58-1.49-1.53Z"/>
  <path class="cls-2" d="M159.62,338.56c.02-.81,.45-1.38,1.08-1.83,.37,1.04-.15,1.55-1.08,1.83Z"/>
  <path class="cls-1" d="M35.44,303.11c.79,.14,1.33,.59,1.68,1.29-.96,.08-1.48-.4-1.68-1.29Z"/>
  <path class="cls-1" d="M43.33,252.42c.05,.87-.51,1.35-1.16,1.76-.24-1,.36-1.45,1.16-1.76Z"/>
  <path class="cls-2" d="M294.57,288.5c-.35-.48-.43-.97-.12-1.5,.55,.46,.72,.95,.12,1.5Z"/>
  <path class="cls-2" d="M251.51,318.61c.4-.48,.89-.7,1.52-.53-.24,.94-.75,1.12-1.52,.53Z"/>
  <path class="cls-1" d="M74.06,306.85c-.63,.2-1.14,.03-1.55-.49,.73-.51,1.27-.42,1.55,.49Z"/>
  <path class="cls-2" d="M277.39,250.63c-.59-.17-.82-.59-.8-1.17,.69,.1,.93,.51,.8,1.17Z"/>
  <path class="cls-1" d="M47.81,283.34c.13-.57,.45-.94,1.06-1.01,.05,.76-.29,1.11-1.06,1.01Z"/>
  <path class="cls-2" d="M274.37,246.11c-.56-.17-.84-.55-.8-1.14,.69,.08,.99,.44,.8,1.14Z"/>
  <path class="cls-2" d="M236.52,67.47c-.61-.04-.93-.39-1.02-.97,.68-.04,1,.31,1.02,.97Z"/>
  <path class="cls-2" d="M292.05,279.49c-.41-.23-.62-.55-.47-1.03,.66,.12,1.06,.35,.47,1.03Z"/>
  <path class="cls-2" d="M241.22,73.25c-.38-.33-.82-.63-.76-1.23,.75,.1,1.08,.47,.76,1.23Z"/>
  <path class="cls-2" d="M97.58,284.56c-.15,.56-.51,.88-1.1,.92,.02-.72,.4-1.01,1.1-.92Z"/>
  <path class="cls-2" d="M161.62,335.05c-.12-.61,.18-.99,.67-1.27,.24,.67,.04,1.11-.67,1.27Z"/>
  <path class="cls-2" d="M292.85,281.67c-.54-.27-.75-.68-.56-1.27,.64,.22,.8,.66,.56,1.27Z"/>
  <path class="cls-2" d="M288.92,300.92c.09-.58,.44-.9,1-1.02,.08,.74-.26,1.08-1,1.02Z"/>
  <path class="cls-2" d="M89.63,338.85c.57,.19,.83,.58,.78,1.18-.66-.13-.95-.51-.78-1.18Z"/>
  <path class="cls-2" d="M157.61,341.55c-.02-.6,.3-.93,.82-1.13,.12,.66-.17,1.03-.82,1.13Z"/>
  <path class="cls-2" d="M91.07,340.91c.59,.15,.86,.54,.87,1.13-.69-.07-.99-.44-.87-1.13Z"/>
  <path class="cls-2" d="M155.99,343.49c.03-.59,.34-.94,.9-1.09,.13,.71-.2,1.05-.9,1.09Z"/>
  <path class="cls-2" d="M238.95,70.06c-.55-.16-.86-.51-.91-1.09,.68,.05,1,.39,.91,1.09Z"/>
  <path class="cls-2" d="M96.01,346.48c.6,.05,.92,.41,1.07,.96-.72,.09-1.03-.28-1.07-.96Z"/>
  <path class="cls-2" d="M268.35,237.16c-.48-.25-.78-.62-.78-1.2,.73,.09,.98,.5,.78,1.2Z"/>
  <path class="cls-2" d="M238.03,68.95c-.58-.07-.92-.39-1-.97,.66,0,.97,.33,1,.97Z"/>
  <path class="cls-2" d="M93.5,288.5c-.05,.59-.4,.91-.94,1.07-.09-.72,.24-1.06,.94-1.07Z"/>
  <path class="cls-2" d="M287.85,301.88c.21-.49,.48-.9,1.07-.96,0,.72-.3,1.11-1.07,.96Z"/>
  <path class="cls-2" d="M235.5,66.5c-.59-.04-.91-.4-1.1-.93,.72-.11,1.06,.23,1.1,.93Z"/>
  <path class="cls-1" d="M30.64,298.33c.51,.19,.93,.47,.94,1.09-.71-.02-1.09-.33-.94-1.09Z"/>
  <path class="cls-1" d="M40.94,255.97c.03,.58-.19,1.01-.76,1.23-.2-.69,.04-1.11,.76-1.23Z"/>
  <path class="cls-1" d="M46.41,284.91c.05-.59,.37-.95,.93-1.1,.12,.73-.19,1.1-.93,1.1Z"/>
  <path class="cls-2" d="M273.37,244.66c-.34-.07-.49-.28-.44-.62,.32,.09,.49,.28,.44,.62Z"/>
  <path class="cls-2" d="M156.89,342.39c-.02-.34,.14-.52,.48-.55,0,.33-.17,.5-.48,.55Z"/>
  <path class="cls-2" d="M93.09,343.37c.34,.04,.48,.24,.47,.57-.31-.06-.48-.24-.47-.57Z"/>
  <path class="cls-2" d="M93.57,343.94c.31,.04,.51,.18,.51,.52-.33-.01-.51-.18-.51-.52Z"/>
  <path class="cls-2" d="M97.58,347.88c.33,0,.53,.15,.58,.48-.34,.02-.54-.14-.58-.48Z"/>
  <path class="cls-2" d="M149.8,349.3c.05-.32,.24-.46,.57-.42-.06,.32-.23,.48-.57,.42Z"/>
  <path class="cls-4" d="M151.05,261.61h18.36c0,.08,0,.15,0,.23h-18.36c0-.08,0-.15,0-.23Z"/>
</svg>