<?xml version="1.0" encoding="UTF-8"?>
<svg id="Layer_1" data-name="Layer 1" xmlns="http://www.w3.org/2000/svg" viewBox="0 0 334 336">
  <defs>
    <style>
      .cls-1 {
        fill: #f3b0a9;
      }

      .cls-2 {
        fill: #e46860;
      }

      .cls-3 {
        fill: #f2491f;
      }

      .cls-4 {
        fill: #e53718;
      }

      .cls-5 {
        fill: #690a06;
      }

      .cls-6 {
        fill: #9b0104;
      }

      .cls-7 {
        fill: #860a07;
      }

      .cls-8 {
        fill: #b80104;
      }

      .cls-9 {
        fill: #d20203;
      }

      .cls-10 {
        fill: #c20103;
      }

      .cls-11 {
        fill: #d92612;
      }

      .cls-12 {
        fill: #ac0205;
      }

      .cls-13 {
        fill: #070303;
      }

      .cls-14 {
        fill: #600d08;
      }
    </style>
  </defs>
  <path class="cls-3" d="M70.68,266.16c.16-.16,.32-.31,.49-.47,1.03,.35,1.37,.01,1.02-1.02,.16-.16,.31-.33,.47-.49,.44,.09,.88,.17,1.32,.26-.03,1.34,.53,2.44,1.52,3.29,4.07,3.5,7.28,7.87,11.57,11.14,.55,.42,.94,.94,.95,1.67,0,.38,0,.75,0,1.13-.28,.03-.57,.06-.85,.09-1.84-1.01-2.73,1.24-4.26,1.26-2.17,.03-3.73,1.97-5.98,1.88-.59-.02-.91,.64-.9,1.3-.46,.02-.91,.04-1.37,.07-1.3-.22-2.77-.83-3.1,1.28-.64,.06-1.28,.12-1.92,.18-1.47,.09-3.42-1.28-4.08,1.31-1.14,.07-2.28,.14-3.41,.21-2.9-.75-5.72,.51-8.6,.39-.51-.02-.84,.47-1.02,.97-.85,0-1.71,.01-2.56,.02-.04-.73-.08-1.46-.12-2.2l.07-.07c1.1,.14,1.57-.34,1.42-1.43l.07-.07c1.1,.14,1.57-.33,1.41-1.43l.07-.08c1.11,.14,1.6-.31,1.39-1.45l.09-.09c1.14,.2,1.61-.27,1.41-1.41l.09-.09c.42,.14,.87,.14,1.14-.22,2.35-3.15,5.4-5.62,8.06-8.48,.45-.49,1-.93,.72-1.71l.08-.08c1.77-.41,2.88-1.44,3.11-3.31h.01c1.22-.31,2.18-.8,1.68-2.34Z"/>
  <path class="cls-1" d="M265.55,137.79c.81,1.06,.19,2.09-.15,3.08-1.3,3.78-2.37,7.68-4.07,11.28-1.58,3.35-2.72,6.88-3.83,10.33-1.12,3.49-2.69,6.79-3.73,10.32-1.13,3.82-3.07,7.4-4.76,11.04-2.13,4.59-4.3,9.18-7.09,13.41-3.04,4.62-6.14,9.17-9.77,13.41-3.09,3.61-6.57,6.72-10.13,9.7-3.22,2.7-6.83,5.03-10.79,6.8-2.27,1.01-4.55,2.11-6.73,3.29-1.92,1.04-4.01,1.61-5.94,2.19-2.47,.73-5.17,1.32-7.56,2.1-4.73,1.55-9.66,.92-14.32,2.34-2.81,.86-5.8,.37-8.7,.34-5.82-.06-11.65,.41-17.45-.42-1.58-.23-2.84,.09-4.08,1.57-4.31,5.11-7.35,11.04-11.07,16.53-2.71,4-5.33,8.07-7.93,12.15-2.3,3.61-4.68,7.18-7.11,10.67-3.3,4.75-5.87,9.92-9.2,14.63-2.54,3.6-4.81,7.39-7.19,11.11-1.14,1.78-2.57,3.38-3.42,5.35-.17,.4-.68,.42-1.11,.39,0-1.93,2.28-2.89,2.07-4.91,.86-1.49,1.73-2.98,2.59-4.46,1.85-1.85,2.84-4.22,3.94-6.52,2.14-1.5,2.8-4.09,4.38-6.01,.17-.37,.3-.77,.52-1.1,2.4-3.6,4.97-7.08,7.04-10.89,1.36-2.13,2.71-4.26,4.07-6.39,3.95-5.15,7.35-10.68,10.75-16.18,1.01-1.64,2.86-2.83,2.94-5.02,.03-.3,.06-.59,.09-.89,.14,.25,.28,.26,.43,0,.59,.11,.78-.21,.79-.73,.65-.96,1.27-1.94,1.94-2.88,2.21-3.06,4.06-6.44,7.42-8.49,.68,.43,1.35,.83,2.15,.25,1.55,.25,3.09,.35,4.64,.05,.27,.64,.81,.74,1.42,.74,4.86,0,9.72,.02,14.57,.02,.67,0,1.34-.01,1.66-.77,7.6,1.39,14.66-1.61,21.9-2.87,3.38-.59,6.55-2.34,9.81-3.57,1.17,.17,2.08-.6,2.94-1.1,2.47-1.45,5.54-1.94,7.33-4.5,.25-.07,.5-.14,.75-.21,1.54-.7,3.15-1.3,4.11-2.85,.28,.03,.44-.09,.49-.37,.56-.16,.94-.53,1.15-1.07h.16s.09-.12,.09-.12c4.32-2.67,7.83-6.16,10.56-10.45l-.09-.11,.11,.1c.86-.17,1.34-.69,1.43-1.56l.12-.09-.03-.15c2.74-2.13,4.21-5.24,6.04-8.04,1.69-2.59,3.69-5.07,4.39-8.21l.11-.12-.06-.15c.88-.7,1.54-1.52,1.48-2.73l.09-.11-.06-.13c1.02-.64,1.58-1.52,1.44-2.77,.03-.24,.05-.48,.08-.71,2.32-2.91,3.56-6.32,4.5-9.86,.04-.07,.13-.14,.12-.2-.02-.15-.08-.29-.12-.44,1.72-1.95,2.41-4.33,2.89-6.8,.02-.25,.05-.49,.07-.74,1.08-1.04,1.8-2.22,1.47-3.81l.03-.68c2.05-2.76,2.77-6.04,3.66-9.25,.89-.39,1.15-1.06,.87-1.97,.08-.41,.17-.82,.25-1.23,1.59-2.16,2.17-4.69,2.71-7.25,.1-.4,.21-.8,.31-1.2,.96-.38,.75-1.64,1.61-2.11Z"/>
  <path class="cls-3" d="M42.03,38.4c.2-3.3,.23-6.61,.01-9.91,.16,0,.33,0,.49,0,1.73-1.38,1.41-3.27,1.26-5.11,.08-.8,.16-1.6,.24-2.4,1.62-.77,1.03-2.33,1.28-3.59,.08-.63,.16-1.26,.24-1.9,1.18-.25,1.42-1.06,1.25-2.11,.1-.62,.2-1.24,.3-1.86,.94-.15,1.49-.59,1.19-1.64,.06-.31,.13-.62,.19-.94,.66,.34,1.08,1.13,1.97,1.03,.05,.16,.09,.32,.11,.49-.18,1.11,.07,1.93,1.38,2.02,.06,.15,.11,.3,.13,.46-.16,1.01,.38,1.45,1.28,1.61l.05,.07c.08,1.08-.04,2.3,1.58,2.34,.61,.6,1.32,1.11,1.54,2-.26,1.14,.53,1.75,1.17,2.49,.83,.95,2.12,1.56,2.36,2.98-.96,.06-1.43,.68-1.8,1.48-1.62,3.42-3.16,6.88-4.92,10.22-2.33,4.44-3.93,9.25-6.88,13.37-.32,0-.65,0-.97-.01-.21-.64-.03-1.4-.61-1.92,.09-1.31,.32-2.66-1.01-3.57-.04-.28-.08-.57-.12-.85,.2-1.57,.4-3.13-1.21-4.17-.18-.2-.36-.39-.54-.59Z"/>
  <path class="cls-2" d="M191.62,95.82c.46,.08,.92,.15,1.38,.23,3.74,1.38,7.47,1.6,11.16-.19,.3-.03,.59-.05,.89-.08,2.77-.03,5.14-1.01,7.12-2.93,.18-.07,.35-.14,.53-.21,1.68-.65,3.44-1.18,4.43-2.9l.12-.1c1.79-1.13,3.81-2,4.79-4.08h.01c2.86-.85,.74-2.33,.46-3.57,.46,.04,.92,.08,1.37,.11,.64,1.27,.68,2.53-.01,3.8-.64,.52-1.33,.99-1.5,1.88-.71,.42-1.52,.73-2.1,1.29-4.44,4.33-9.87,7.1-15.69,8.59-4.1,1.05-8.73,1.03-12.85-.1-4.53-1.25-9.04-2.89-13.08-5.58-4.78-3.19-10-5.74-14.51-9.33-4.38-3.49-9.12-6.46-13.67-9.69-4.83-3.43-9.99-6.43-15.24-9.19-2.43-1.28-4.69-3.16-7.61-3.42-2.87-2.65-6.36-3.9-10.17-4.4-1.01-1.9-2.83-1.43-4.46-1.51-.86-1.25-2.12-1.5-3.52-1.43-1.99,.17-3.19-2.11-5.25-1.69-.14-.49-.38-.93-.84-1.17-3.63-1.9-7.26-3.79-10.89-5.68-1.69-.98-3.34-2.05-5.09-2.92-3.33-1.67-6.36-3.9-9.88-5.19-.92-1.13-2.37-1.42-3.52-2.2-2.73-1.84-5.55-3.54-8.34-5.3-.07-.44-.14-.88-.22-1.32,.07-.07,.14-.14,.21-.21,.69,.29,1.27,.85,2.09,.82l.12,.08c1.15,1.45,2.62,2.42,4.4,2.92,.18,.07,.36,.15,.54,.22,1.82,2.28,4.43,3.26,7.03,4.25,.16,.06,.33,.12,.49,.18,2.91,2.71,6.61,4.04,10.09,5.76,.3,.09,.6,.19,.9,.28,.38,.9,1.06,1.32,2.03,1.27,.32,.09,.64,.18,.96,.27,.38,.86,1.04,1.27,1.97,1.27,.18,.07,.36,.14,.54,.21,.74,1.51,2.35,1.83,3.64,2.45,2.48,1.19,4.57,3.26,7.49,3.47,.29,.04,.57,.09,.86,.13,1.14,1.18,2.5,1.66,4.13,1.39,.29,.04,.58,.07,.87,.11,1.66,1.65,3.95,1.88,6.01,2.63,.56,.17,1.11,.35,1.67,.52,2.1,1.84,4.89,2.28,7.27,3.59,4.12,2.27,8.36,4.34,12.56,6.49,.17,.06,.34,.12,.52,.18,1.95,2.02,4.38,3.28,6.93,4.35,.18,.09,.37,.18,.55,.26,.95,1.42,2.27,2.3,3.9,2.74l.16,.1c1.15,1.41,2.64,2.3,4.33,2.9l.16,.12c.27,.74,.73,1.24,1.57,1.27,.29,.1,.59,.21,.88,.31,2.23,2.53,5.03,4.28,8.03,5.75,.16,.07,.32,.15,.48,.22,.94,1.5,2.3,2.4,4.01,2.79,.17,.06,.33,.12,.5,.19,1.93,2.06,4.43,3.21,6.95,4.34,.18,.06,.37,.12,.55,.18,.58,.87,1.42,1.26,2.44,1.32,.19,.06,.37,.13,.56,.19,.6,.89,1.46,1.27,2.51,1.28,.33,.08,.66,.15,.99,.23,1.11,1.42,2.72,1.38,4.29,1.46Z"/>
  <path class="cls-1" d="M138.35,187.89c-.56,2.27-2.9,2.01-4.34,2.64-4.97,2.15-10.24,3.5-15.75,3.36-3.73-.09-7.21-1.33-10.68-2.57-8.7-3.12-14.87-9.35-20.32-16.45-.75-.97-1.43-2.02-1.98-3.11-1.07-2.13-.03-3.62,2.43-3.69,1.19-.03,2.44,.28,3.63-.62-2.18-.31-4.12-1.19-6.09-2-6.46-2.65-11.67-6.87-15.57-12.67-.21-.31-.16-.8-.22-1.21l1.05-.09,.03,.03c.05,1.17,.84,1.71,1.79,2.13,.03,.15,.09,.29,.16,.42,.09,.86,.59,1.34,1.42,1.52l.04,.04c.14,.83,.63,1.32,1.46,1.46l.04,.04c.15,.84,.65,1.32,1.48,1.46,.61,.59,1.13,1.29,1.97,1.59,.35,.98,1.03,1.45,2.07,1.39,.17,0,.34,0,.52,0l-.06,.12c1.3,1.99,3.41,2.45,5.52,2.9,.48,.06,.95,.11,1.43,.17,2.03,1.36,4.13,2.37,6.65,1.42,2.5,0,5,0,7.51,0,.94,.82,2.44-.24,3.34,.89-.64,.82-1.48,.79-2.26,.99-1.77,.47-3.65,.64-5.22,1.72-.29,.05-.58,.1-.87,.15-3.36,.01-6.71,.02-10.07,.03-.46,0-1.08-.12-1.2,.4-.18,.76,.51,1.03,1.08,1.29,.08,.29,.16,.59,.24,.88,.77,2.23,2.27,3.87,4.2,5.15,.04,.16,.1,.31,.19,.45,.12,.83,.6,1.32,1.42,1.47l.07,.07c.14,.81,.61,1.29,1.43,1.44l.07,.07c.15,.82,.65,1.29,1.47,1.42,.14,.09,.28,.16,.44,.2,.16,.45,.47,.75,.93,.88,.2,.18,.41,.36,.61,.54,.87,1.62,2.25,2.52,4.02,2.9,.15,.06,.31,.11,.47,.13,1.2,1.85,3.25,2.16,5.1,2.82,.46,.07,.92,.14,1.39,.21,1.44,1.48,3.31,1.4,5.15,1.42,3.5,0,7,0,10.5,0,1.41,.25,2.74-.14,4.05-.58,3.11-1.05,6.21-2.13,9.32-3.2Z"/>
  <path class="cls-1" d="M280.92,80.62c5.03,2.01,10.21,3.72,15.05,6.12,4.17,2.08,8.22,4.58,11.65,7.84,1.94,1.85,1.6,2.49-1.01,3.49-5.01,1.93-10.32,2.81-15.36,4.53-3.04,1.04-6.17,1.71-9.18,2.8-.76,.28-.94,.76-1.27,1.33-1.81,3.16-3.99,6.15-5.45,9.47-1.68,3.82-3.7,7.51-5,11.52-.92,2.84-2.48,5.46-3.26,8.37-.17,.62-.69,.91-1.36,.83-.45-.8,.2-1.37,.41-2.04,1.01-3.18,2.83-6.06,3.48-9.37,.08-.3,.15-.59,.23-.89,1.75-2.25,2.5-5.01,3.81-7.49,1.65-3.13,3.26-6.29,4.88-9.43,.09-.2,.18-.4,.27-.6,1.3-.71,1.51-2.2,2.35-3.24,.94-.15,1.87-.3,2.81-.45,2.56-1.53,5.56-1.72,8.32-2.61,2.87-.92,5.68-2.22,8.81-2.47,1.6-.12,3.9-.86,4.45-2.01,.55-1.13-1.74-2.24-2.76-3.38-.4-.44-.86-.71-1.33-1.05-3.14-2.26-6.45-4.27-10.06-5.57-2.24-.8-4.26-2.64-6.92-2.03-.28,0-.56,0-.84,0-.19-.65-.58-.94-1.27-.74-.51-.52-1.02-1.04-1.53-1.56,.03-.47,.05-.94,.08-1.4Z"/>
  <path class="cls-1" d="M87.18,281.76c.28-.03,.57-.06,.85-.09,.63,.54,1.21,.21,1.8-.09,.7,.47,.38,1.28,.64,1.9-.05,.84-.1,1.68-.14,2.51-.14,.27-.27,.54-.41,.81-.68,.2-1.02,.59-.71,1.32-.15,.63-.31,1.26-.46,1.9-1.44-1.17-.49-2.73-.63-4.1-.19-1.87-1.1-2.72-2.7-1.76-2.78,1.66-5.85,2.63-8.85,3.54-2.88,.87-5.95,1.44-8.77,2.4-4.58,1.55-9.38,.79-13.92,2.11-1.78,.52-3.64,.22-5.47,.19-1.02-.02-1.66-.78-2.1-1.58-.57-1.02,.38-1.41,.95-1.99,6.91-7.1,13.81-14.22,20.69-21.36,.48-.5,.82-1.06,1.62-.88-.19,.63-.38,1.27-.57,1.9h-.01c-1.52,.66-2.73,1.6-3.11,3.32l-.08,.08c-3.67,2.71-6.58,6.19-9.69,9.47-.19,.2-.15,.63-.22,.95,0,0-.09,.09-.09,.09-.92,.02-1.39,.49-1.41,1.41l-.09,.09c-.94,.02-1.4,.51-1.39,1.45l-.07,.08c-.82,.14-1.29,.62-1.41,1.43l-.07,.07c-.82,.13-1.3,.6-1.42,1.43l-.07,.07c-.95,.24-1.82,.78-1.63,1.8,.16,.82,.99,1.01,1.75,.4,.85,0,1.71-.01,2.56-.02,2.87,.46,5.7-.08,8.53-.43,.49-.06,.89-.43,1.09-.93,1.14-.07,2.28-.14,3.41-.21,1.49-.04,3.1,.29,4.08-1.31,.64-.06,1.28-.12,1.92-.18,1.24,.06,2.38-.1,3.1-1.28,.46-.02,.91-.04,1.37-.07,2.63,.01,4.81-1.43,7.14-2.34,1.38-.54,3.25-.33,4-2.1Z"/>
  <path class="cls-1" d="M55.05,121.95c-1.96-.05-1.61-1.97-2.12-2.97-1.8-3.54-3.58-7.1-3.99-11.23-.28-2.8-1.69-5.42-1.42-8.42,.28-3.21,.75-3.57,3.72-2.31,1.13,.48,1.9,2.37,3.65,1.15-.98-1.98-3.89-2.54-3.73-5.24,2.42,1.81,4.76,3.7,6.38,6.32-.34,.27-.95,0-1.16,.58,.74,.46,1.33,.18,1.87-.36,.25-.15,.5-.31,.75-.46,.12,.07,.26,.12,.39,.15,.21,.94,1,1.27,1.76,1.59,2.53,1.08,4.79,2.71,7.91,3.62-3.57,.68-6.3-.54-9.03-1.56-3.09-1.15-5.97-2.76-8.85-4.36-.85-.48-1.91-.98-1.4,.87-.35,5.84,1.2,11.32,3.2,16.72-.21,2.3,1.82,3.69,2.32,5.7-.08,.08-.17,.15-.25,.23Z"/>
  <path class="cls-1" d="M62.83,137.42c-1.01-.22-1.38-.88-1.15-1.83,.22-.91,1-1.01,1.78-1.01,1.24,0,2.57-.23,3.61,.6,1.39,1.1,2.9,.92,4.93,.83-6.08-2.23-10.91-5.55-14.88-9.99-.93-1.04-2.19-2.3-2.07-4.06,.08-.08,.17-.15,.25-.23,1.48,1.02,1.64,3.3,3.65,3.81l.02,.02c.12,.87,.62,1.37,1.49,1.48h.01c.09,.89,.67,1.32,1.43,1.57,.27,.41,.45,.94,.83,1.2,4.51,3.08,9.2,5.76,14.86,6.04,1.11,.5,2.24,.56,3.39,.14,1.46,.09,2.92,.17,4.38,.26,1.42,1.07,2.84,1.09,4.28,.03l1.27-.07c-.05,.12-.04,.23,.03,.34,.08,.37,.17,.74,.25,1.11-.36,.07-.73,.13-1.09,.2-.85-.35-1.67-.54-2.23,.49-.28,0-.56,0-.84,0-.92-.6-1.94-.4-2.87-.2-2.61,.57-5.19,.52-7.81,.04-.77-.14-1.64-.34-2.36,.28-.8-.05-1.6-.1-2.39-.15-1.73-1.62-4.17-1.31-6.13-2.28-1.64-.82-2.45-.36-2.65,1.4Z"/>
  <path class="cls-1" d="M99.22,309.86c.36,.73-.06,1.31-.43,1.84-2.54,3.71-5.11,7.4-7.27,11.36-.12,.21-.31,.4-.51,.55-.75,.56-1.2,2.03-2.27,1.52-.98-.47-1.53-1.64-1.7-2.88-.38-2.8-.54-5.61-.52-8.44,.04-5.16-.02-10.32,.06-15.48,.03-1.98,.29-3.96,.52-5.94,.1-.89,.53-1.58,1.63-1.43,.08,.17,.17,.34,.25,.51-.11,1.46-.22,2.93-.34,4.39-.52,.28-.83,.61-.25,1.13l.05,.56c-.05,.16-.03,.32,.06,.46-.06,.3-.12,.6-.19,.89-1.1,.47-1.13,1.05-.18,1.74-.42,4.47-.82,8.94-.21,13.42-.34,1.02-.84,2.07,.44,2.85v1.09c-.61,.67-.43,1.19,.3,1.62,.07,.8,.14,1.6,.21,2.4-.46,.39-.47,.87-.07,1.25,.49,.47,.88,.11,1.18-.32,.49-.72,1.28-1.31,1.08-2.35,.08-.16,.16-.32,.24-.48,.66-.36,1.6-.6,.7-1.63,1.74-2.48,3.48-4.97,5.23-7.45l1.97-1.19Z"/>
  <path class="cls-1" d="M93.95,240.95c1.88-3.15,4.68-5.5,7.16-8.11,9.61-10.07,19.34-20.03,29-30.06,.44-.46,.81-.8,1.47-.65-.26,.71-.52,1.42-.78,2.13-.78,.25-1.29,.76-1.54,1.54-.89,.09-1.37,.58-1.46,1.46-.78,.25-1.28,.77-1.54,1.54-.78,.22-1.23,.77-1.5,1.5-.77,.23-1.22,.78-1.49,1.51-.75,.25-1.2,.8-1.49,1.51-.75,.21-1.2,.7-1.37,1.44-.65,.41-1.27,.86-1.5,1.65-2.98,2.27-5.18,5.32-7.87,7.89-5.76,5.48-10.86,11.62-16.73,16.99-.12-.12-.24-.23-.36-.35Z"/>
  <path class="cls-1" d="M52.1,12.95c-.02-.16-.07-.31-.13-.46,.09-1.05-.28-1.79-1.38-2.02-.03-.16-.06-.33-.11-.49,.02-.95-.57-1.51-1.35-1.79-.54-.19-.6,.34-.62,.76-.06,.31-.13,.62-.19,.94-.77,.28-1.36,.69-1.19,1.64-.1,.62-.2,1.24-.3,1.86-1.05,.33-1.44,1.05-1.25,2.11-.08,.63-.16,1.26-.24,1.9-1.51,.81-1.37,2.21-1.28,3.59-.08,.8-.16,1.6-.24,2.4-1.34,1.48-1.38,3.27-1.26,5.11-.16,0-.33,0-.49,0-1.11-1.76-.73-3.78-.28-5.45,1.48-5.46,3.35-10.82,5.87-15.92,.74-1.5,2.67-1.04,3.72,.97,2.09,4.02,4.54,7.8,7.5,11.23,1.23,1.43,2.56,2.77,3.9,4.1,.39,.39,.72,.68,.43,1.25-.7-.27-1.21-.82-1.81-1.22-1.86-1.24-2.71-3.53-4.81-4.48-.22-.89-.93-1.41-1.54-2-.23-.98-.53-1.91-1.58-2.34l-.05-.07c.12-.97-.48-1.37-1.28-1.61Z"/>
  <path class="cls-2" d="M130.8,204.26c.26-.71,.52-1.42,.78-2.13,0,0,.04-.05,.04-.05,.82-.17,1.31-.65,1.44-1.48l.03-.03c.84-.14,1.33-.63,1.46-1.48l.03-.03c1.41-.58,2.4-1.57,2.95-3l.02-.02c2.79-1.46,4.34-4.22,6.47-6.35,1.43-1.42,3.31-2.54,4.02-4.62,.3-.38,.61-.75,.91-1.13,.97,0,1.46-.5,1.51-1.46,1.06-.3,1.29-1.4,1.96-2.08,1.23,.01,1.56-.78,1.61-1.82,.18-.18,.37-.37,.55-.55,1.81-.89,2.51-3.24,4.72-3.6-.41,2-2,3.16-3.26,4.53-3.1,3.38-6.59,6.41-9.16,10.26-3.71,2.88-6.61,6.6-10.01,9.8-1.95,1.84-3.55,4.05-5.91,5.44-.06-.08-.12-.15-.19-.23Z"/>
  <path class="cls-1" d="M50.02,91.48c-2.59-1.45-2.9-4.32-3.96-6.64-3.42-7.46-3.65-15.35-2.43-23.32,.18-1.15,.57-2.43,1.91-2.97,.21,1.16-.65,2.28-.16,3.46-.05,1.45-.09,2.9-.14,4.35-1.23,2.43-1.22,4.86,0,7.29,.07,1.47,.14,2.95,.2,4.42-.05,1.36-.07,2.72,1.26,3.6,.02,.28,.05,.57,.07,.85-.14,1.33,.05,2.52,1.43,3.15,.08,.46,.15,.93,.23,1.39-.02,.6,.24,.96,.84,1.07,.56,.34,.49,.95,.63,1.47,.03,.63,.06,1.25,.09,1.88Z"/>
  <path class="cls-1" d="M52.54,63.77c.29-.55,.58-1.11,.86-1.66,.08-.09,.16-.17,.24-.25,.71,.26,1.42,.52,2.13,.79l.1,.09c.18,.78,.65,1.25,1.45,1.39l.07,.06c1,1.65,2.59,2.41,4.37,2.89,.14,.11,.3,.15,.47,.13,.39,.85,1.01,1.39,1.88,1.81,2.39,1.15,4.72,2.42,7.15,3.68-1.6,1.42-2.86-.33-4.24-.19-.99-.1-1.97-.21-2.96-.31-1.62-1.75-4.17-1.86-5.95-3.33-.1-.62-.45-.92-1.09-.88-.51-.26-1.01-.52-1.52-.78-.13-.14-.26-.27-.39-.41-.5-1.31-1.84-1.92-2.58-3.03Z"/>
  <path class="cls-1" d="M73.05,263.04c-.2-.92,.25-1.56,.86-2.18,5.39-5.51,10.76-11.04,16.15-16.55,.2-.21,.59-.24,.9-.35,.12,.12,.25,.24,.37,.37-.33,.65-.67,1.31-1,1.96-.82,.18-1.36,.65-1.49,1.51-.74,.27-1.26,.75-1.49,1.52-.74,.27-1.25,.75-1.49,1.52-.75,.26-1.26,.77-1.52,1.52-.79,.26-1.31,.75-1.4,1.62-.13,.08-.22,.19-.28,.33-.43,.17-.71,.48-.83,.92-.19,.2-.39,.4-.58,.6-.46,.15-.77,.45-.9,.92-.19,.2-.39,.39-.58,.59-.48,.14-.78,.45-.91,.93-.19,.19-.38,.39-.57,.58-.48,.14-.8,.44-.89,.94l-.1,.11c-1.82,.49-2.35,2.74-4.24,3.13Z"/>
  <path class="cls-2" d="M138.35,187.89c-3.11,1.07-6.21,2.14-9.32,3.2-1.31,.44-2.64,.83-4.05,.58,.18-.85,1.07-1,1.56-1.55,1.9-.01,3.7-.27,5.53-1.04,1.5-.63,2.9-1.48,4.43-2.02,3.77-1.31,6.94-3.59,10-6.07,.58-.04,1.15-.07,1.73-.11-.1,1.86-1.96,1.94-2.97,2.85-2.01,1.8-4.41,3.08-6.9,4.15Z"/>
  <path class="cls-2" d="M62.83,137.42c.2-1.76,1.01-2.22,2.65-1.4,1.95,.98,4.4,.67,6.13,2.28-2.6,1.05-4.57-1.92-7.24-1.15,1.13,3.63,2.45,7.09,4.23,10.41,.67,1.25,1.94,2.3,1.9,3.91l-1.05,.09-.82-1.24c-.95-2.9-2.47-5.51-4.2-8-.04-.3-.08-.59-.12-.89,.23-1.35-.56-2.24-1.4-3.11-.03-.3-.06-.6-.08-.9Z"/>
  <path class="cls-1" d="M42.03,38.4c.18,.2,.36,.39,.54,.59-.14,1.55-.07,3.03,1.21,4.17,.04,.28,.08,.57,.12,.85-.42,1.4-.24,2.64,1.01,3.57,.58,.52,.4,1.28,.61,1.92,.48,1.54,.81,3.18,2.41,4.06h0c-.04,1.31,.65,2.12,1.78,2.63,.05,.15,.11,.29,.19,.43,.11,.83,.6,1.31,1.39,1.52l.07,.08c.26,.71,.52,1.43,.79,2.14-.08,.08-.17,.17-.26,.25-2.68-1.78-4.25-4.53-5.77-7.18-1.69-2.94-2.99-6.14-4.16-9.34-.65-1.79-.95-3.8,.06-5.69Z"/>
  <path class="cls-2" d="M264.48,68.65c.29,.04,.59,.08,.88,.12,.95,1,2.33,1.15,3.48,1.76,2.43,1.29,5.19,2.15,6.71,4.75-.71,.27-1.23-.04-1.81-.45-1.24-.89-2.5-1.79-3.85-2.48-3.06-1.54-6.24-2.69-9.69-3.1-1.11-.13-2.58-.02-3.2-1.45,.38-.18,.76-.36,1.13-.54,.74,.03,1.48,.05,2.21,.08,1.13,1.22,2.55,1.53,4.14,1.32Z"/>
  <path class="cls-1" d="M258.13,67.25c-.38,.18-.76,.36-1.13,.54-.46-.03-.92-.06-1.38-.1-1.59-1.46-3.62-.65-5.42-.93-3.45-.54-6.95-.23-10.31,.95l-1.37,.07c-.19-.18-.38-.37-.56-.55,.75-1.86,2.65-1.48,3.9-1.52,4.64-.16,9.31-.57,13.94,.31,.93,.18,1.78,.38,2.35,1.22Z"/>
  <path class="cls-1" d="M141.32,65.63c-4.19-2.15-8.43-4.22-12.56-6.49-2.38-1.31-5.17-1.75-7.27-3.59,.51-.68,1.18-.55,1.78-.24,5.71,2.92,11.41,5.89,17.12,8.8,.68,.35,1.08,.73,.92,1.52Z"/>
  <path class="cls-1" d="M275.55,75.27c-1.52-2.6-4.28-3.45-6.71-4.75-1.14-.61-2.52-.76-3.48-1.76,1.98-1.01,3.31,.66,4.73,1.36,3.9,1.92,7.58,4.24,10.08,7.97,.4,.6,.93,1.21,.55,2.04-.78-.18-1.07-1.17-1.96-1.17-.06-.2-.13-.41-.19-.61-.07-.82-.54-1.28-1.32-1.47l-.14-.14c-.16-.76-.61-1.22-1.38-1.36l-.19-.12Z"/>
  <path class="cls-1" d="M154.05,178.6c-.05,1.04-.38,1.83-1.61,1.82,.07-.71-.07-1.37-.43-1.99,.44-.48,.89-.95,1.32-1.44,1.47-1.67,3.87-2.42,4.7-4.72l1.14-.73c.7,.26,1.37-.62,2.14-.07-.6,1-1.57,1.73-1.88,2.87l-.1,.12c-2.21,.36-2.91,2.71-4.72,3.6-.27-.27-.55-.66-.9-.19-.08,.1,.22,.49,.35,.74Z"/>
  <path class="cls-2" d="M52.54,63.77c.74,1.11,2.08,1.71,2.58,3.03-.95,.17-1.9-.14-2.53-.69-1.38-1.2-2.6-2.59-3.86-3.93-1.08-1.15-2.14-1.86-3.34-.17-.5-1.18,.37-2.29,.16-3.46,1.18,0,1.95,.73,2.72,1.49,1.35,1.33,2.65,2.72,4.27,3.73Z"/>
  <path class="cls-2" d="M237.95,67.24c.19,.18,.38,.37,.56,.55-.55,.85-1.5,.85-2.33,1.17-2.26,.88-4.8-.11-6.98,1.17-1.49,.88-3.08,1.03-4.75,.62,.48-1.49,2.27-.79,3.03-1.81l1.37-.15c2.06,0,4.07-.12,5.79-1.47,1.1-.03,2.2-.06,3.29-.09Z"/>
  <path class="cls-2" d="M50.02,91.48c-.03-.63-.06-1.25-.09-1.88,.59-.15,1.02,.2,1.5,.44,1.19,3.08,3.69,5.02,6.21,6.87,.82,.6,1.4,1.05,1.37,2.08-.25,.15-.5,.31-.75,.46-.24-.07-.47-.14-.71-.21-1.62-2.62-3.96-4.51-6.38-6.32-.38-.48-.76-.96-1.14-1.44Z"/>
  <path class="cls-14" d="M269.62,125.52c-.65,3.31-2.47,6.19-3.48,9.37-.21,.66-.86,1.24-.41,2.04-.06,.28-.12,.57-.18,.85-.85,.46-.65,1.72-1.61,2.11-.66-.47-.29-1.03-.1-1.54,1.49-3.96,2.98-7.91,4.48-11.86,.22-.59,.61-.98,1.29-.96Z"/>
  <path class="cls-2" d="M218.15,71.79l.87-.18c.93,.22,1.66,0,2.1-.9,.55-.4,1.16-.59,1.85-.52,.01,.24,.02,.48,.03,.71-.55,1.26-1.69,1.45-2.87,1.58-1.47,.16-2.68,1.12-3.52,2.03-.96,1.05,1.09,1.54,1.28,2.55,.03,.16,0,.33,0,.49-.69-.24-1.38-.48-2.07-.72l-.18-.17c-.32-1.04-1.31-1.85-1.09-3.08l.02-.02c1.29-.39,2.69-.55,3.56-1.77Z"/>
  <path class="cls-1" d="M148.06,185.08c-.71,2.07-2.59,3.19-4.02,4.62-2.14,2.13-3.68,4.89-6.47,6.35,.03-2.13,2.01-2.89,3.14-4.15,2.23-2.47,4.14-5.37,7.35-6.81Z"/>
  <path class="cls-2" d="M56.55,18.96c2.1,.95,2.95,3.24,4.81,4.48,.6,.4,1.11,.95,1.81,1.22l.67,.58c.23,1.02,1.4,1.23,1.82,2.08-.07,.07-.14,.14-.21,.21-.62-.05-1.23-.1-1.85-.16-.58-1.69-2.52-1.76-3.52-2.94-.24-1.42-1.53-2.03-2.36-2.98-.65-.74-1.43-1.35-1.17-2.49Z"/>
  <path class="cls-2" d="M158.02,172.27c-.83,2.3-3.23,3.06-4.7,4.72-.43,.49-.88,.96-1.32,1.44-1.14,.42-1.52,2.16-3.11,1.8,.39-.7,.78-1.4,1.17-2.1,2.34-2.02,4.68-4.05,7.02-6.07,.15,0,.29-.02,.43-.09,.17,.1,.34,.2,.51,.3Z"/>
  <path class="cls-1" d="M215.83,76.83c.69,.24,1.38,.48,2.07,.72,0,0,.03,.04,.03,.04,.15,.86,.64,1.36,1.53,1.43h0c.54,1.48,1.52,2.5,3.04,2.96h0c.28,1.25,2.39,2.73-.46,3.56,.07-2.73-2.2-3.85-3.73-5.49-.93-.99-2.68-1.36-2.49-3.22Z"/>
  <path class="cls-1" d="M204.16,95.86c-3.69,1.79-7.42,1.57-11.16,.19,3.71-.86,7.43-.52,11.16-.19Z"/>
  <path class="cls-1" d="M107.96,50.78c-2.93-.22-5.02-2.28-7.49-3.47-1.29-.62-2.9-.94-3.64-2.45,.89-.53,1.47,.05,2.2,.49,2.33,1.42,4.68,2.83,7.27,3.77,.84,.3,1.41,.8,1.66,1.66Z"/>
  <path class="cls-1" d="M90.43,41.56c-3.48-1.72-7.18-3.05-10.09-5.76,3.76,1.22,7.37,2.7,10.09,5.76Z"/>
  <path class="cls-1" d="M168.34,83.61c-3-1.46-5.79-3.21-8.03-5.75,.07-.04,.17-.13,.22-.11,3.06,1.35,5.86,3.04,7.81,5.85Z"/>
  <path class="cls-1" d="M64.43,142.32c1.73,2.49,3.25,5.1,4.2,8-1.87,.22-1.88-1.65-2.25-2.51-.76-1.76-2.84-3.15-1.95-5.49Z"/>
  <path class="cls-1" d="M212.17,92.85c-1.98,1.92-4.36,2.9-7.12,2.93,1.93-2.06,4.5-2.55,7.12-2.93Z"/>
  <path class="cls-1" d="M180.28,91.15c-2.51-1.13-5.02-2.28-6.95-4.34,1.94-.02,6.41,2.78,6.95,4.34Z"/>
  <path class="cls-1" d="M148.76,70.16c-2.55-1.07-4.97-2.33-6.93-4.35,1.92-.02,6.45,2.82,6.93,4.35Z"/>
  <path class="cls-2" d="M99.22,309.86l-1.97,1.19c.82-2.57,1.83-5.02,4.25-6.56,.21,2.02-2.07,2.98-2.07,4.91-.04,.16-.11,.31-.2,.45Z"/>
  <path class="cls-1" d="M79.85,35.62c-2.6-.99-5.21-1.97-7.03-4.25,1.76-.05,3,1.13,4.19,2.1,.92,.75,3.02,.02,2.84,2.15Z"/>
  <path class="cls-1" d="M119.83,55.04c-2.06-.75-4.34-.98-6.01-2.63,2.49-.94,4.05,1.55,6.26,1.73,.34,.03,.21,.68-.26,.9Z"/>
  <path class="cls-1" d="M234.65,67.32c-1.71,1.34-3.73,1.48-5.79,1.47,1.53-2.05,3.63-1.87,5.79-1.47Z"/>
  <path class="cls-2" d="M73.05,263.04c1.9-.39,2.42-2.64,4.24-3.13-.1,2.24-2.5,2.81-3.31,4.53-.44-.09-.88-.17-1.32-.26,.13-.38,.26-.76,.38-1.14Z"/>
  <path class="cls-1" d="M222.04,85.56c-.98,2.08-3,2.95-4.79,4.08,.99-2.08,2.46-3.58,4.79-4.08Z"/>
  <path class="cls-1" d="M223,70.9c-.01-.24-.02-.48-.03-.71,1.15-1.72,2.68-2.03,4.52-1.26-.76,1.02-2.55,.33-3.03,1.81-.49,.05-.97,.1-1.46,.16Z"/>
  <path class="cls-11" d="M150.07,178.13c-.39,.7-.78,1.4-1.17,2.1-.22,.22-.45,.44-.67,.66-.58,.04-1.15,.07-1.73,.11l-.07-.07c.17-1.57,1.79-1.86,2.56-2.9,.36,.03,.72,.07,1.07,.1Z"/>
  <path class="cls-1" d="M217.13,89.74c-.98,1.72-2.75,2.24-4.43,2.9,.73-2.1,2.46-2.68,4.43-2.9Z"/>
  <path class="cls-1" d="M65.67,27.32c-.42-.85-1.59-1.06-1.82-2.08,2.06-.05,3.34,.94,3.91,2.9-.82,.03-1.4-.54-2.09-.82Z"/>
  <path class="cls-1" d="M72.28,31.15c-1.78-.5-3.25-1.47-4.4-2.92,1.97,.21,3.69,.81,4.4,2.92Z"/>
  <path class="cls-1" d="M157.7,76.17c-1.69-.6-3.18-1.49-4.33-2.9,2.03,.08,3.67,.76,4.33,2.9Z"/>
  <path class="cls-1" d="M112.95,52.3c-1.62,.27-2.99-.21-4.13-1.39,1.7-.49,3.32-.75,4.13,1.39Z"/>
  <path class="cls-4" d="M88.99,291.47c-.08-.17-.17-.34-.25-.51,0-.31,0-.63,0-.94,.15-.63,.31-1.26,.46-1.9,.38-.08,.76-.16,1.14-.24-.05,1.34,1.02,3.11-1.35,3.58Z"/>
  <path class="cls-1" d="M264.48,68.65c-1.59,.2-3.01-.1-4.14-1.32,1.67-.48,3.16-.39,4.14,1.32Z"/>
  <path class="cls-1" d="M172.84,86.62c-1.71-.39-3.07-1.28-4.01-2.79,1.75,.34,3.39,.82,4.01,2.79Z"/>
  <path class="cls-1" d="M153.21,73.16c-1.63-.44-2.96-1.32-3.9-2.74,1.76,.26,3.43,.65,3.9,2.74Z"/>
  <path class="cls-1" d="M191.62,95.82c-1.57-.08-3.18-.04-4.29-1.46,1.79-.58,3.28-.25,4.29,1.46Z"/>
  <path class="cls-2" d="M278.76,78.97c.89,0,1.18,.99,1.96,1.17,.07,.16,.13,.32,.2,.48-.03,.47-.05,.94-.08,1.4-.29,0-.58,0-.86,0l.04-.03c-.03-.87-.84-1.09-1.32-1.58l.06-1.44Z"/>
  <path class="cls-1" d="M214.57,73.59c-.22,1.23,.76,2.04,1.09,3.08-1.79,.46-1.86-1.23-2.33-2.11-.33-.63,.52-1.01,1.24-.97Z"/>
  <path class="cls-1" d="M137.54,196.06c-.55,1.42-1.55,2.41-2.95,3,.21-1.76,1.23-2.73,2.95-3Z"/>
  <path class="cls-1" d="M218.15,71.79c-.88,1.22-2.28,1.38-3.56,1.77,.39-2.19,1.88-2.18,3.56-1.77Z"/>
  <path class="cls-1" d="M62.91,138.32c.84,.87,1.62,1.76,1.4,3.11-2.23-.24-1.87-1.65-1.4-3.11Z"/>
  <path class="cls-1" d="M183.27,92.66c-1.02-.06-1.86-.45-2.44-1.32,1.22-.31,2.46-.65,2.44,1.32Z"/>
  <path class="cls-1" d="M186.34,94.13c-1.05,0-1.91-.39-2.51-1.28,1.24-.36,2.42-.61,2.51,1.28Z"/>
  <path class="cls-2" d="M69,268.49c.19-.63,.38-1.27,.57-1.9,.37-.14,.74-.28,1.11-.42,.5,1.54-.46,2.03-1.68,2.32Z"/>
  <path class="cls-1" d="M93.36,43.11c-.97,.05-1.65-.37-2.03-1.27,1.23-.46,2.01-.21,2.03,1.27Z"/>
  <path class="cls-1" d="M96.29,44.65c-.93,0-1.59-.41-1.97-1.27,1.24-.49,2.04-.28,1.97,1.27Z"/>
  <path class="cls-1" d="M221.13,70.71c-.44,.91-1.18,1.12-2.1,.9,.18-1.53,1.21-1.05,2.1-.9Z"/>
  <path class="cls-1" d="M159.43,77.56c-.84-.03-1.3-.53-1.57-1.27,1.24-.46,1.66,.1,1.57,1.27Z"/>
  <path class="cls-1" d="M134.56,199.09c-.14,.84-.62,1.33-1.46,1.48-.19-1.17,.3-1.65,1.46-1.48Z"/>
  <path class="cls-1" d="M133.07,200.6c-.13,.83-.62,1.32-1.44,1.48-.22-1.18,.26-1.67,1.44-1.48Z"/>
  <path class="cls-1" d="M92.46,242.46c.1-.89,.57-1.42,1.49-1.51,.12,.12,.24,.23,.36,.35-.35,.65-.85,1.15-1.49,1.51-.12-.12-.24-.23-.35-.35Z"/>
  <path class="cls-1" d="M90.96,243.96c.11-.89,.57-1.43,1.5-1.5,.12,.12,.24,.23,.35,.35l-1.48,1.52c-.12-.12-.25-.24-.37-.37Z"/>
  <path class="cls-1" d="M53.4,62.11c-.86-.15-1.36-.65-1.5-1.51,.09-.08,.17-.16,.26-.25,.75,.25,1.25,.75,1.49,1.51-.08,.08-.16,.17-.24,.25Z"/>
  <path class="cls-1" d="M150.48,182.49c-.05,.95-.54,1.46-1.51,1.46,.04-.97,.54-1.46,1.51-1.46Z"/>
  <path class="cls-2" d="M72.19,264.67c.35,1.03,0,1.37-1.02,1.02,.15-.53,.49-.87,1.02-1.02Z"/>
  <path class="cls-4" d="M73.98,264.44c.81-1.73,3.2-2.29,3.31-4.53l.1-.11c.84,.2,1.13-.13,.89-.94,.19-.19,.38-.39,.57-.58,.86,.23,1.16-.08,.91-.93,.19-.2,.39-.39,.58-.59,.87,.25,1.17-.06,.9-.92,.19-.2,.39-.4,.58-.6,.89,.24,1.19-.05,.83-.92,.06-.14,.15-.25,.28-.33,.51,0,1.02,.01,1.54,.02,.89-.2,2.16,.6,2.55-.95l2.99-.02c.46,.58,1,.45,1.57,.2,1.56-.7,3.2-.82,4.88-.73,1.6,.08,3-.41,4.51-1,2.26-.88,4.97-1.35,7.08,.38,2.82,2.31,5.4,4.92,8.03,7.45,1.91,1.85,1.95,3.32-.16,4.96-3.84,2.98-7.73,5.92-11.77,8.61-4.51,3-9.68,4.91-14.09,8.11-.55-.68-1.31-.43-2.01-.46,0-.73-.4-1.26-.95-1.67-4.29-3.26-7.51-7.64-11.57-11.14-.99-.85-1.55-1.94-1.52-3.29Z"/>
  <path class="cls-2" d="M55.89,282.3c.07-.32,.03-.75,.22-.95,3.12-3.27,6.02-6.76,9.69-9.47,.28,.79-.27,1.23-.72,1.71-2.65,2.86-5.71,5.33-8.06,8.48-.27,.37-.72,.36-1.14,.22Z"/>
  <path class="cls-2" d="M87.18,281.76c-.76,1.77-2.62,1.56-4,2.1-2.33,.91-4.5,2.35-7.14,2.34-.01-.66,.31-1.32,.9-1.3,2.24,.08,3.8-1.85,5.98-1.88,1.54-.02,2.42-2.26,4.26-1.26Z"/>
  <path class="cls-2" d="M62.15,289.24c-.2,.5-.61,.87-1.09,.93-2.83,.35-5.65,.89-8.53,.43,.18-.49,.51-.99,1.02-.97,2.88,.12,5.7-1.14,8.6-.39Z"/>
  <path class="cls-2" d="M69.64,287.72c-.99,1.6-2.59,1.27-4.08,1.31,.67-2.6,2.61-1.22,4.08-1.31Z"/>
  <path class="cls-2" d="M65.88,271.81c.38-1.72,1.58-2.66,3.11-3.31-.22,1.86-1.33,2.89-3.11,3.31Z"/>
  <path class="cls-2" d="M49.97,290.62c-.76,.61-1.6,.42-1.75-.4-.19-1.01,.68-1.56,1.63-1.8,.04,.73,.08,1.46,.12,2.2Z"/>
  <path class="cls-2" d="M74.66,286.26c-.73,1.18-1.87,1.34-3.1,1.28,.34-2.11,1.8-1.5,3.1-1.28Z"/>
  <path class="cls-2" d="M88.02,280.54c.7,.03,1.46-.21,2.01,.46-.07,.19-.14,.39-.2,.58-.59,.3-1.17,.63-1.8,.09,0-.38,0-.75,0-1.13Z"/>
  <path class="cls-2" d="M52.91,285.34c-.01-.94,.45-1.43,1.39-1.45,.21,1.13-.28,1.59-1.39,1.45Z"/>
  <path class="cls-2" d="M54.39,283.8c.02-.92,.5-1.39,1.41-1.41,.2,1.14-.27,1.61-1.41,1.41Z"/>
  <path class="cls-2" d="M49.92,288.35c.12-.83,.6-1.3,1.42-1.43,.14,1.09-.33,1.57-1.42,1.43Z"/>
  <path class="cls-2" d="M51.42,286.85c.13-.82,.6-1.3,1.41-1.43,.16,1.1-.32,1.58-1.41,1.43Z"/>
  <path class="cls-5" d="M247.17,183.33c-.03,.24-.05,.48-.08,.71-1.99,.14-1.59,1.51-1.44,2.77l.06,.13-.09,.11c-2,.09-1.62,1.48-1.48,2.73l.06,.15-.11,.12c-1.64-.05-2.02,1.42-2.49,2.4-1.75,3.62-4.07,6.86-6.23,10.22-.67,1.04-2.11,2-1.71,3.64l.03,.15-.12,.09c-1.22-.16-1.73,.33-1.43,1.56l-.11-.1,.09,.11c-.78-.19-1.17,.28-1.63,.81-2.39,2.8-4.93,5.45-7.78,7.78-.65,.54-1.42,.82-1.15,1.85l-.09,.13h-.16c-.27-.08-.53-.15-.8-.22,.5-1.73-.24-2.94-1.41-4.2-2.01-2.16-5.09-3.65-4.81-7.4,.04-.58-.99-1.25-1.53-1.88-1.19-1.37-3-2.32-3.5-4.15-.48-1.76-1.76-2.05-3.14-2.32-1.26-.24-2.46,.18-3.66,.52-4.44,1.27-8.82,2.9-13.58,2.46-.64-.06-1.31,.15-1.96,.27-1.98,.37-2.93-.58-2.23-2.48,.57-1.55,1.4-3.02,2.25-4.45,3.77-6.35,7.42-12.77,11.45-18.95,2.48-3.8,4.45-7.89,7.23-11.56,2.5-3.3,5.08-6.75,6.39-10.84,1.15-.74,2.41-1.35,3.42-2.25,.75-.67,2.41-.59,2.09-2.25,.15-.02,.3-.04,.45-.04,1,.02,1.5-.5,1.54-1.48,.15-.03,.3-.04,.45-.03,1.48-.19,2.3-1.04,2.53-2.5,.16-.16,.33-.32,.49-.49,1.27-.05,2.16-.78,2.96-1.66,.91-1,2.07-1.66,3.2-2.36,.51-.32,1.03-.5,1.56,.07,1.34,1.43,1.83,5.57,.65,7.2-1.5,2.07-2.8,4.29-4.79,6.02-1.82,1.58-3.43,3.4-5.15,5.1-1.49,1.47-1.76,2.75,0,4.37,3,2.76,5.8,5.74,8.69,8.62,2.89,2.89,3.39,2.85,6.43-.1,6.41-6.24,11.42-13.57,16.29-21,2.33-3.55,3.88-7.41,3.25-11.91-.3-2.12,.02-4.32,.06-6.48,.66,.23,.82,.73,.85,1.37,.18,5.31,1.09,10.52,2.05,15.73,0,.69,0,1.37,0,2.06,.03,.78-.56,1.37-.71,2.01-.59,2.47-2.55,4.54-2.17,7.28l-.03,.68c-1.59,.85-1.74,2.25-1.47,3.81-.02,.25-.05,.49-.07,.74-2.16,1.76-2.73,4.19-2.89,6.8,.04,.14,.1,.29,.12,.44,0,.06-.08,.13-.12,.2-2.38,.91-2.08,3.53-2.9,5.27-.62,1.33-2.38,2.66-1.6,4.59Z"/>
  <path class="cls-14" d="M212,153.51c-1.31,4.09-3.89,7.54-6.39,10.84-2.78,3.67-4.75,7.76-7.23,11.56-4.03,6.18-7.68,12.6-11.45,18.95-.85,1.43-1.67,2.9-2.25,4.45-.7,1.89,.25,2.84,2.23,2.48,.65-.12,1.32-.33,1.96-.27,4.76,.44,9.14-1.19,13.58-2.46,1.21-.34,2.4-.77,3.66-.52,1.38,.27,2.66,.57,3.14,2.32,.5,1.83,2.31,2.78,3.5,4.15,.54,.62,1.58,1.29,1.53,1.88-.28,3.76,2.8,5.24,4.81,7.4,1.17,1.26,1.91,2.47,1.41,4.2-.48,.33-.5,.78-.35,1.27-.05,.27-.21,.4-.49,.37-2.06-.05-3.35,1.02-4.11,2.85-.25,.07-.5,.14-.75,.21-.56-.16-1.23-.34-1.64,.09-1.85,1.96-4.59,2.36-6.65,3.91-.67,.51-2.22-.04-1.97,1.6-3.26,1.23-6.44,2.98-9.81,3.57-7.25,1.26-14.31,4.26-21.9,2.87-5.88-.35-11.77-.35-17.65,0-1.55,.3-3.1,.2-4.64-.05-.45-1.43,.74-2.43,.96-3.68,.57-1.7,2.16-2.63,3.09-4.11,2.12-3.39,4.43-6.66,6.73-9.93,2.16-3.08,4.86-5.81,6.21-9.42h.01c2.26-.67,2.52-2.86,3.46-4.54,.03-.62,.35-.97,.98-1.02,2.09-1.48,3.29-3.58,4.03-5.97,.17-.17,.33-.33,.5-.5,1.33-.81,2.49-1.75,2.48-3.51,.17-.17,.34-.34,.5-.5,.9-.48,1.49-1.25,2.06-2.07,1.84-2.62,3.8-5.17,5.57-7.83,1.2-1.81,3.06-3.24,3.37-5.58,.69-.99,1.82-1.67,2.01-3,.75-.01,1.14-.48,1.54-1.07,1.66-2.46,3.59-4.77,5-7.36,1.74-3.2,4.54-5.68,5.97-9.06,.01-.31,.03-.62,.04-.93,1.68-.39,3.09-1.63,4.91-1.61,.68,.01,1.35,.03,2.03,.04Z"/>
  <path class="cls-13" d="M259.02,149.46c-.96-5.21-1.87-10.42-2.05-15.73-.02-.64-.19-1.14-.85-1.37,0-2.9,0-5.8-.01-8.71,.38-.18,.82-.43,.79-.86-.27-3.63,.73-7.13,1.09-10.69,.06-.56,.1-1.16-.36-1.62,0-.28-.01-.56-.02-.84,1.27-1.87,2-3.88,1.52-6.18,0-.27-.01-.55-.02-.82,1.36-1.09,1.69-2.56,1.53-4.2,0-.26,0-.52,0-.78,.85-.44,1.09-.87-.01-1.28-.15-.64-.52-1.11-1.1-1.41-.83-1.57-2.33-2.46-3.62-3.55-2.57-2.16-5.14-4.3-7.76-6.48,1.53-1.52,3.82-.62,4.98-2.28,.29-.02,.59-.04,.88-.06,.74,.62,1.27,.45,1.6-.44l-.02-.07c.79,.01,1.57,.03,2.36,.04,2.16,.73,4.16,.31,6.07-.82,2.6-.06,5.14-1.02,7.77-.48,1.95,2.01,4.31,1.81,6.74,1.27,.5-.04,.99-.08,1.49-.11l-.04,.03c.5,1.34,.68,2.74,.5,4.14-.88,6.96,.58,14.11-1.67,20.96-.09,.2-.18,.4-.27,.6-.46-.18-.8-.02-1.03,.4-2.38,4.12-4.77,8.25-6.49,12.71-.48,1.23-2.04,2.17-1.17,3.82-.08,.3-.15,.59-.23,.89-.68-.01-1.07,.38-1.29,.96-1.5,3.95-2.99,7.9-4.48,11.86-.2,.52-.57,1.07,.1,1.54-.1,.4-.21,.8-.31,1.2-1.99,1.95-2.45,4.53-2.9,7.11,0,.03,.13,.09,.2,.14-.08,.41-.17,.82-.25,1.23-.55-.04-1.1-.08-1.65-.12Zm15.52-59.49c-.03-2.27-2.05-4.25-4.3-4.22-2.1,.03-4.35,2.27-4.34,4.3,.02,2.19,2.37,4.45,4.56,4.38,2.18-.07,4.1-2.18,4.08-4.46Z"/>
  <path class="cls-11" d="M89.83,281.58c.07-.19,.14-.39,.2-.58,4.42-3.2,9.58-5.11,14.09-8.11,4.05-2.69,7.93-5.63,11.77-8.61,2.11-1.64,2.08-3.11,.16-4.96-2.63-2.54-5.21-5.15-8.03-7.45-2.11-1.73-4.82-1.25-7.08-.38-1.52,.59-2.91,1.08-4.51,1-1.68-.09-3.32,.04-4.88,.73-.57,.25-1.11,.38-1.57-.2,.31-.79,1.03-1.31,1.71-1.3,2.94,.07,5.59-1.05,8.37-1.66,2.31-.51,4.69-1.17,6.74-2.02,3.87-1.59,7.8-3.13,11.61-4.92,5.32-2.5,10.32-5.5,15.42-8.34,.47-.26,.63-.75,.68-1.27,1.06,.06,1.87-.5,2.74-1,3.55-2.07,6.84-4.65,10.94-5.65,2.25-.54,2.65-.1,2.01,2.19-.31,1.11-.87,2.16-.73,3.37-1.12,.51-.94,1.58-1.1,2.51-3.36,2.05-5.21,5.43-7.42,8.49-.68,.94-1.3,1.92-1.94,2.88-.26,.24-.52,.49-.79,.73-.15,.25-.29,.25-.43,0-1.79,.23-2.82,1.3-3.29,2.98l-.02,.02c-.96,.03-1.45,.52-1.48,1.48-2.15,1.85-3.66,4.35-6.06,5.95-1.65,.06-2.56,1-2.99,2.52l-.97,.55c-.64,0-.98,.32-1.01,.95h-.01c-2.96,1.28-5.23,3.36-7.04,5.97-.15,0-.3,0-.45,.03-1.01,.03-1.57,.89-2.39,1.27-2.5,1.16-4.18,3.48-6.6,4.76-3.02,.87-5.17,3.3-8,4.52-2.25,1.58-5.95,1.42-6.35,5.26,0,.09-.45,.13-.68,.2-.26-.62,.06-1.43-.64-1.9Z"/>
  <path class="cls-9" d="M88.99,291.47c2.36-.47,1.29-2.24,1.35-3.58,.02-.43-.06-.81-.42-1.09,.14-.27,.27-.54,.41-.81,.72-.02,1.29,.29,1.73,.84,3.02,3.84,6.09,7.64,9,11.56,.84,1.13,1.64,1.8,3.04,1.64-.86,1.49-1.73,2.98-2.59,4.46-2.42,1.53-3.42,3.99-4.25,6.56-1.74,2.48-3.48,4.97-5.23,7.45-.66,.36-1.18,.78-.7,1.63-.08,.16-.16,.32-.24,.48-.98,.09-1.3,1.2-2.19,1.41-.07-.8-.14-1.6-.21-2.4,.33-.61,.46-1.19-.29-1.62v-1.09c.82-1.1,1.04-2.11-.45-2.85-.61-4.49-.21-8.96,.21-13.42,.47-.54,.48-1.12,.18-1.74,.06-.3,.12-.6,.19-.89,.11-.09,.23-.17,.34-.26-.13-.07-.27-.13-.4-.2-.02-.19-.03-.37-.05-.56,.54-.28,.57-.66,.25-1.13,.11-1.46,.22-2.93,.34-4.39Z"/>
  <path class="cls-12" d="M105.5,273.51c2.42-1.28,4.1-3.6,6.6-4.76,.82-.38,1.38-1.24,2.39-1.27,.4,1.12-1.06,1.58-.89,2.67,.38,2.41,3.79,5.33,6.37,5.36-2.07,3.81-4.65,7.29-7.04,10.89-.22,.33-.35,.73-.52,1.1-1.17,.15-1.88-.6-2.5-1.37-1.82-2.26-3.56-4.58-5.38-6.84-1.42-1.76-2.24-3.37,.5-4.7,.27-.13,.32-.72,.48-1.09Z"/>
  <path class="cls-10" d="M104.08,300.03c-1.4,.16-2.2-.51-3.04-1.64-2.91-3.92-5.98-7.72-9-11.56-.44-.55-1-.86-1.73-.84,.05-.84,.1-1.68,.14-2.51,.24-.06,.68-.11,.68-.2,.4-3.84,4.1-3.68,6.35-5.26-.89,1.46-.95,2.87,.16,4.27,2.68,3.36,5.33,6.74,8,10.1,.6,.75,1.35,1.22,2.36,1.11-1.1,2.3-2.09,4.67-3.94,6.52Z"/>
  <path class="cls-8" d="M108.03,293.51c-1.01,.11-1.77-.36-2.36-1.11-2.67-3.37-5.32-6.74-8-10.1-1.12-1.4-1.06-2.81-.16-4.27,2.83-1.21,4.97-3.65,8-4.52-.15,.37-.2,.96-.48,1.09-2.74,1.32-1.92,2.93-.5,4.7,1.82,2.26,3.56,4.58,5.38,6.84,.62,.77,1.34,1.53,2.5,1.37-1.57,1.92-2.23,4.5-4.38,6.01Z"/>
  <path class="cls-6" d="M119.97,275.51c-2.58-.03-5.99-2.94-6.37-5.36-.17-1.09,1.29-1.56,.89-2.67,.15-.02,.3-.03,.45-.03,2.93-1.31,5.24-3.33,7.04-5.96h.01c.33,0,.67,0,1,.01,.8,1.08,.44,2.69,1.71,3.6,.39,.28,.32,.93-.1,1.3-.89,.78-.52,1.79-.56,2.73-1.36,2.13-2.71,4.26-4.07,6.39Z"/>
  <path class="cls-7" d="M124.04,269.13c.04-.94-.33-1.95,.56-2.73,.42-.37,.5-1.02,.1-1.3-1.27-.9-.91-2.52-1.71-3.6,0-.32,0-.65,.01-.97l.97-.55c1.52-.22,2.24-1.38,2.99-2.52,2.39-1.6,3.91-4.1,6.06-5.95,.93-.06,1.42-.55,1.48-1.48l.02-.02c1.47-.07,1.91-1.73,3.2-2.09-.08,2.19-1.92,3.38-2.94,5.02-3.41,5.51-6.8,11.04-10.75,16.18Z"/>
  <path class="cls-7" d="M233.66,206.31c-.4-1.64,1.04-2.59,1.71-3.64,2.16-3.36,4.47-6.6,6.23-10.22,.48-.98,.86-2.45,2.49-2.4-.7,3.14-2.7,5.62-4.39,8.21-1.83,2.8-3.3,5.91-6.04,8.04Z"/>
  <path class="cls-7" d="M155.18,235.24c5.88-.35,11.77-.35,17.65,0-.32,.76-.99,.77-1.66,.77-4.86,0-9.72-.02-14.57-.02-.61,0-1.15-.11-1.42-.74Z"/>
  <path class="cls-7" d="M221.56,218.57c-.27-1.03,.5-1.32,1.15-1.85,2.85-2.33,5.39-4.98,7.78-7.78,.45-.53,.85-1,1.63-.81-2.73,4.28-6.24,7.77-10.56,10.45Z"/>
  <path class="cls-7" d="M204.55,228.79c-.25-1.64,1.29-1.09,1.97-1.6,2.07-1.55,4.81-1.95,6.65-3.91,.41-.43,1.08-.25,1.64-.09-1.78,2.56-4.86,3.05-7.33,4.5-.86,.5-1.77,1.27-2.94,1.1Z"/>
  <path class="cls-7" d="M247.17,183.33c-.78-1.93,.98-3.27,1.6-4.59,.82-1.74,.51-4.36,2.9-5.27-.94,3.54-2.18,6.95-4.5,9.86Z"/>
  <path class="cls-7" d="M256.14,160.81c-.38-2.74,1.58-4.81,2.17-7.28,.15-.64,.74-1.23,.71-2.01,.26,.01,.52,.03,.78,.04-.89,3.22-1.61,6.49-3.66,9.25Z"/>
  <path class="cls-14" d="M260.93,148.35c-.07-.05-.2-.1-.2-.14,.45-2.58,.91-5.16,2.9-7.11-.53,2.55-1.11,5.09-2.71,7.25Z"/>
  <path class="cls-7" d="M251.67,172.84c.16-2.61,.73-5.04,2.89-6.8-.48,2.47-1.18,4.85-2.89,6.8Z"/>
  <path class="cls-5" d="M148.39,234.94c.16-.93-.02-2,1.1-2.51,.52-.1,.8-.48,1.02-.92,.33,0,.66,0,.99,0-.23,1.25-1.42,2.25-.96,3.68-.79,.58-1.47,.18-2.15-.25Z"/>
  <path class="cls-7" d="M215.56,222.98c.76-1.83,2.05-2.9,4.11-2.85-.96,1.55-2.57,2.14-4.11,2.85Z"/>
  <path class="cls-7" d="M254.64,165.3c-.27-1.56-.12-2.96,1.47-3.81,.33,1.59-.4,2.77-1.47,3.81Z"/>
  <path class="cls-6" d="M137.72,247.92c-1.29,.36-1.73,2.02-3.2,2.09,.47-1.68,1.5-2.75,3.29-2.98-.03,.3-.06,.59-.09,.89Z"/>
  <path class="cls-14" d="M259.8,151.55c-.26-.01-.52-.03-.78-.04,0-.69,0-1.37,0-2.06,.55,.04,1.1,.08,1.65,.12,.28,.91,.02,1.58-.87,1.97Z"/>
  <path class="cls-7" d="M245.66,186.81c-.16-1.25-.55-2.63,1.44-2.77,.14,1.24-.42,2.12-1.44,2.77Z"/>
  <path class="cls-7" d="M244.14,189.79c-.14-1.26-.52-2.64,1.48-2.73,.06,1.21-.6,2.03-1.48,2.73Z"/>
  <path class="cls-7" d="M232.13,208.12c-.3-1.23,.21-1.73,1.43-1.56-.09,.88-.57,1.39-1.43,1.56Z"/>
  <path class="cls-7" d="M220.16,219.76c-.15-.5-.13-.95,.35-1.27,.27,.07,.53,.14,.8,.21-.21,.54-.59,.91-1.15,1.07Z"/>
  <path class="cls-7" d="M138.24,247.03c.26-.24,.52-.49,.79-.73,0,.52-.19,.84-.79,.73Z"/>
  <path class="cls-4" d="M60.09,24.44c1.01,1.18,2.94,1.25,3.52,2.94-1.22,2.84-2.08,5.79-2.6,8.84-.14,.8,.02,1.6-.4,2.4-2.56,4.91-5.01,9.88-7.6,14.77-.82,1.55-1.21,3.03-.54,4.69-.37,.04-.74,.08-1.11,.12l-.07-.08c.22-1.13-.33-1.56-1.39-1.52-.08-.14-.14-.28-.19-.43,.36-1.52-.85-1.97-1.78-2.62h0c.41-1.67-1.29-2.59-1.44-4.05,2.94-4.12,4.54-8.93,6.88-13.37,1.76-3.34,3.3-6.8,4.92-10.22,.38-.8,.84-1.42,1.8-1.48Z"/>
  <path class="cls-2" d="M42.53,28.49c-.12-1.84-.07-3.63,1.26-5.11,.15,1.84,.47,3.73-1.26,5.11Z"/>
  <path class="cls-2" d="M46.49,49.51c.16,1.46,1.86,2.38,1.44,4.04-1.6-.88-1.93-2.51-2.41-4.06,.32,0,.65,0,.97,.01Z"/>
  <path class="cls-2" d="M43.78,43.16c-1.28-1.14-1.35-2.62-1.21-4.17,1.61,1.04,1.41,2.61,1.21,4.17Z"/>
  <path class="cls-2" d="M44.91,47.58c-1.25-.93-1.44-2.16-1.01-3.57,1.33,.91,1.1,2.26,1.01,3.57Z"/>
  <path class="cls-2" d="M44.03,20.98c-.09-1.38-.23-2.78,1.28-3.59-.26,1.26,.33,2.82-1.28,3.59Z"/>
  <path class="cls-2" d="M53.43,14.62c1.05,.43,1.35,1.36,1.58,2.34-1.63-.04-1.51-1.26-1.58-2.34Z"/>
  <path class="cls-2" d="M50.58,10.47c1.1,.23,1.47,.97,1.38,2.02-1.31-.09-1.56-.91-1.38-2.02Z"/>
  <path class="cls-2" d="M48.5,8.95c.02-.41,.08-.95,.62-.76,.78,.28,1.37,.84,1.35,1.79-.89,.09-1.31-.69-1.97-1.03Z"/>
  <path class="cls-2" d="M45.56,15.49c-.18-1.06,.21-1.78,1.25-2.11,.17,1.05-.07,1.86-1.25,2.11Z"/>
  <path class="cls-2" d="M47.11,11.52c-.17-.96,.42-1.36,1.19-1.64,.3,1.06-.25,1.49-1.19,1.64Z"/>
  <path class="cls-2" d="M52.1,12.95c.8,.24,1.4,.63,1.28,1.61-.9-.15-1.44-.6-1.28-1.61Z"/>
  <path class="cls-9" d="M209.97,153.47c-1.82-.02-3.22,1.22-4.91,1.61-1.27,.75-3.18-.39-4.11,1.37-.33-.04-.66-.09-.98-.13,.13-2.06,1.64-2.32,3.2-2.29,1.26,.02,2.03-.47,2.98-1.3,3.32-2.92,2.74-7.26,3.55-10.81,.78-3.42,1.25-7.09,1.85-10.65,.45-2.67,.28-3.28-2.34-2.66-5.26,1.24-10.11-.61-14.76-1.93-8.41-2.39-14.85-8.23-20.7-14.6-1.01-1.1-1.94-2.28-3.25-3.06h0c-.03-1.03-.67-1.58-1.49-2-.96-1.52-2.24-2.76-3.49-4.02,.26-1.79-1.38-2.52-2.17-3.69-2.28-3.36-4.82-6.53-7.82-9.31l-.51-.51c-.06-.93-.54-1.44-1.48-1.5l-.02-.02c.03-1.06-.23-1.91-1.51-1.96h-.03c-1.26-2.95-3.18-5.34-5.98-6.98l-.02-.02c-.01-.97-.51-1.46-1.48-1.49l-.02-.02c-.87-2.12-2.37-3.6-4.48-4.49l-.02-.02c-.03-.96-.52-1.46-1.48-1.49h-.01c-.04-.97-.52-1.47-1.49-1.48l-.02-.02c-.03-.96-.51-1.46-1.49-1.45l-.04-.04c.05-.77-.43-1.14-1.01-1.55-2.2-1.58-4.39-3.18-6.49-4.89-.35-.28-2.31-.82-.31-1.73,2.92,.27,5.18,2.14,7.61,3.42,5.24,2.76,10.41,5.76,15.24,9.19,4.55,3.23,9.29,6.2,13.67,9.69,4.5,3.59,9.72,6.14,14.51,9.33,4.03,2.69,8.55,4.33,13.08,5.58,4.12,1.14,8.76,1.15,12.85,.1,5.82-1.49,11.25-4.26,15.69-8.59,.57-.56,1.39-.87,2.1-1.29,.04,8.15,.08,16.3,.13,24.45,0,1.03-.33,2.23,1.43,2.31,1.41,.06,.9,.85,.32,1.45-1.27,1.31-2.61,2.57-3.86,3.9-.54,.58-1.73,.66-1.67,1.9,1.58,0,2.32-1.08,3.17-1.93,.71-.71,1.55-1.15,2.46-.72,1.12,.52,.58,1.53,.41,2.4-1.02,5.02-1.3,10.17-2.76,15.1-1.47,4.99-3.06,9.86-7.7,13.16-1.24,.88-3.51,.49-3.79,2.68-.39,.22-.47,.61-.53,1.01Z"/>
  <path class="cls-10" d="M210.49,152.47c.29-2.19,2.55-1.8,3.79-2.68,4.64-3.3,6.23-8.17,7.7-13.16,1.45-4.92,1.74-10.08,2.76-15.1,.18-.87,.71-1.87-.41-2.4-.91-.42-1.75,0-2.46,.72-.85,.85-1.59,1.93-3.17,1.93-.05-1.25,1.13-1.33,1.67-1.9,1.25-1.33,2.59-2.59,3.86-3.9,.58-.6,1.09-1.38-.32-1.45-1.75-.08-1.42-1.28-1.43-2.31-.05-8.15-.09-16.3-.13-24.45,.17-.89,.86-1.37,1.5-1.88,1.42,.12,1.61-.79,1.61-1.88,0-1.09-.19-2.01-1.6-1.91-.46-.04-.92-.08-1.37-.11h0c-.34-1.68-1.32-2.7-3.04-2.95h0c.02-1.05-.49-1.53-1.53-1.44l-.03-.04c0-.16,.03-.33,0-.49-.19-1.02-2.25-1.51-1.28-2.55,.84-.91,2.05-1.87,3.52-2.03,1.18-.13,2.32-.32,2.87-1.58,.49-.05,.97-.1,1.46-.16,1.66,.41,3.26,.26,4.75-.62,2.17-1.28,4.72-.29,6.98-1.17,.83-.32,1.78-.32,2.33-1.17,.46-.02,.92-.05,1.37-.07,1.85,.56,3.75,0,5.61,.25,0,4.05,.38,8.16-.11,12.15-.42,3.5-.14,6.88,.1,10.31,.18,2.5,.64,2.81,2.75,1.57,1.35-.79,2.69-1.16,4.2-.47,.48,.22,1.03,.68,1.55,.02,.66,.51,1.32,1.02,1.98,1.52,.03,.41-.1,.97,.11,1.21,1.51,1.68,.77,3.14-.29,4.63-3.69,5.19-7.35,10.41-11.08,15.58-.46,.64-.8,1.23-.71,2.02h0c-.76,0-1.13,.47-1.56,1.03-1.48,1.97-2.58,4.18-4.16,6.1-.68,.83-1.8,1.56-1.76,2.89,0,.16-.01,.32-.03,.47-1.65,.33-2.06,1.68-2.48,3.02,0,.16-.01,.32-.03,.48-1.06,.25-2.11,.5-1.51,2-.01,.41-.11,.78-.51,.99-1.69-.01-2.08,1.26-2.47,2.52-.7,.51-.49,1.72-1.51,2-1.19,.16-1.87,.81-1.97,2.02-.5,1.84-2.63,2.56-3.06,4.46-.16,.16-.33,.32-.49,.49-1.35,.31-2.18,1.16-2.53,2.5-.15,0-.3,0-.45,.03-.95,.04-1.44,.55-1.54,1.48-.15,0-.3,.02-.45,.04-1.07,0-1.77,.8-2.51,1.35-1.38,1.02-2.67,2.11-4.5,2.11Z"/>
  <path class="cls-8" d="M92.51,44.46c3.63,1.89,7.26,3.78,10.89,5.68,.46,.24,.7,.68,.84,1.17-.52,.28-.89,.69-1.25,1.17-3.3,4.48-5.37,9.69-8.52,14.24-2.8,4.05-4.02,9.29-9.26,11.55-2.29,.99-2.55,5.75-.6,6.71,3.33,1.64,6.71,3.24,10.39,4h0c.13,.3,.18,.74,.4,.86,2.29,1.28,2.48,3.11,1.5,5.3-.2,.45-.32,.94-.41,1.43-.83,4.77-1.82,9.31-7.77,10.38-1.88,.34-1.19,2.31-1.17,3.64,.01,1.2,.97,1.32,1.96,1.4,4.52,.36,9.02,.9,13.42,2.07,1.66,.44,3.4,.79,3.59,3.14,.36,4.38,.52,8.77,.5,13.16,0,1.96-.82,3.27-2.53,4.11-.63-1.13-1.38-1.65-2.83-1.19-1.4,.44-3.03,.61-3.98-1.02-.88-1.5-1.66-3.07-1.68-4.88-.04-3.39,0-6.76-.44-10.14-.22-1.68-.81-2.62-2.41-2.94-2.9-.57-5.75-1.41-8.77-1.35-4.5,.09-4.88-.36-4.89-4.99,0-.33,0-.66,0-1h.24s.24,0,.24,0c3.51-.03,3.73-.24,4.04-3.71,.05-.57,.24-1.13,.39-1.68,.94-3.52,1.85-7.04,2.84-10.54,.49-1.72-.12-2.81-1.57-3.73-2.4-1.53-5.2-2.14-7.66-3.53-3.06-1.73-3.51-2.83-2.15-5.98,.2-.46,.43-.9,.65-1.35,.83,.01,1.73,0,1.86-1.07,.11-.94-.59-1.45-1.36-1.77-.5-.21-1.15-.03-1.53-.58,5.1-9.87,10.48-19.57,17.03-28.58Z"/>
  <path class="cls-10" d="M92.51,44.46c-6.55,9-11.93,18.71-17.03,28.58-3.25-1.33-6.45-2.79-9.49-4.58,1.13-3.02,1.38-6.1,.33-9.16-.52-1.53-.12-2.81,.66-3.98,1.84-2.75,3.51-5.61,4.96-8.57,1.74-3.54,4.55-6.51,5.6-10.41,3.52,1.3,6.55,3.53,9.88,5.19,1.75,.87,3.4,1.94,5.09,2.92Z"/>
  <path class="cls-12" d="M95,89c-3.68-.76-7.06-2.36-10.39-4-1.95-.96-1.7-5.73,.6-6.71,5.24-2.25,6.46-7.5,9.26-11.55,3.15-4.55,5.22-9.77,8.52-14.24,.36-.48,.73-.9,1.25-1.17,2.07-.42,3.27,1.86,5.25,1.69,.01,.46,.02,.93,.03,1.39,.31,2.3,1.65,4.46,.11,6.93-3.07,4.91-5.89,9.98-8.81,14.99-.95,1.63-2,2.92-4.24,2.83-1-.04-2.1,.31-3.18,.37-2.32,.12-3.61,1.41-4.21,4.18-.38,1.73,1.19,2.1,2.09,3,1.08,1.09,2.92,.86,3.73,2.3Z"/>
  <path class="cls-3" d="M113.01,54.44c1.63,.08,3.45-.4,4.46,1.51,.06,.54,.37,.79,.84,1.09,3.96,2.52,7.84,5.13,11.6,7.95,1.71,1.29,3.16,3.21,5.54,3.52l.04,.04c.06,.93,.56,1.41,1.49,1.45l.02,.02c.05,.95,.54,1.44,1.49,1.47h.01c.03,.97,.53,1.46,1.48,1.5l.02,.02c.89,2.1,2.39,3.58,4.48,4.49l.02,.02c.05,.94,.54,1.43,1.48,1.49l.02,.02c.92,2.54,2.92,4.37,4.39,6.55,.34,.51,1.01,.44,1.59,.44h.03c.16,.49,.33,.99,.49,1.49,1.16,4.05,.61,7.96-1.06,11.86-1.22-.65-2.24-1.34-3.09-2.58-.65-.95-.54-2.85-2.44-2.75-.02-.13-.02-.25,0-.38,.13-1.09-.4-1.59-1.45-1.63-.02-.29-.03-.58-.05-.88,.12-1.09-.4-1.59-1.46-1.62-.05-.13-.06-.26-.03-.39,.11-1.06-.41-1.56-1.44-1.61l-.07-.86c.13-1.09-.4-1.6-1.45-1.63-.66-.99-1.32-1.98-1.98-2.97,.02-.68-.3-1.03-.99-1.04-.4-.88-1.47-1.31-1.56-2.39-.27-1.78-1.69-2.62-2.94-3.61-.19-.3-.37-.6-.56-.89,.09-.75-.24-1.1-.99-1.09-.21-1.18-1.08-1.83-1.97-2.46-.49-1.43-.93-2.9-2.95-2.62-.17,.02-.33,.02-.5,.02-.33-1.67-1.34-2.65-2.99-3h0c-.33-1.67-1.35-2.65-2.99-3.01,0-.16,0-.33,.02-.49-.08-2.27-1.92-2.77-3.53-3.5-.41-1.68-2.1-2.28-3.01-3.54Z"/>
  <path class="cls-9" d="M77.54,36.35c-1.05,3.91-3.85,6.87-5.6,10.41-1.46,2.96-3.13,5.81-4.96,8.57-.78,1.16-1.18,2.45-.66,3.98,1.05,3.06,.8,6.14-.33,9.16-1.3,.13-1.7-1.54-2.97-1.49-.08-.67-.43-1-1.13-.91l-.47-.44c.15-1.6,.77-3.05,1.5-4.46,1.06-2.07,1.58-4.31,.83-6.51-1.29-3.79-.93-7.74-1.11-11.58-.18-3.91,.83-7.88,.86-11.86,.01-1.41,.92-2.05,2.17-2.35,2.79,1.76,5.61,3.45,8.34,5.3,1.15,.78,2.6,1.07,3.52,2.2Z"/>
  <path class="cls-11" d="M65.68,28.86c-1.24,.3-2.16,.93-2.17,2.35-.04,3.98-1.04,7.95-.86,11.86,.17,3.84-.18,7.79,1.11,11.58,.75,2.21,.23,4.44-.83,6.51-.73,1.41-1.35,2.86-1.5,4.46-1.65,.36-2.29-2.08-4.04-1.44l-.07-.06c.13-1.1-.31-1.61-1.45-1.39l-.1-.09c.22-.66-.09-1.07-.58-1.48-1.06-.88-2-1.89-2.72-3.08-.67-1.66-.28-3.14,.54-4.69,2.59-4.89,5.04-9.86,7.6-14.77,.42-.8,.26-1.6,.4-2.4,.52-3.04,1.37-6,2.6-8.84,.62,.05,1.23,.1,1.85,.16,.07,.44,.14,.88,.22,1.32Z"/>
  <path class="cls-4" d="M135.45,68.51c-2.38-.31-3.82-2.23-5.54-3.52-3.76-2.83-7.64-5.44-11.6-7.95-.47-.3-.78-.56-.84-1.09,3.81,.49,7.29,1.74,10.17,4.4-2,.92-.04,1.45,.31,1.73,2.1,1.71,4.29,3.31,6.49,4.89,.57,.41,1.06,.78,1.01,1.55Z"/>
  <path class="cls-4" d="M113.01,54.44c.91,1.26,2.6,1.85,3.01,3.54l-.11,.11c-.8-.23-1.59-.46-2.39-.7-.74-1.79-2.38-2.38-4.01-2.98-.01-.46-.02-.93-.03-1.39,1.4-.08,2.66,.18,3.52,1.43Z"/>
  <path class="cls-11" d="M223.89,82.1c1.41-.09,1.6,.82,1.6,1.91,0,1.09-.19,2.01-1.61,1.88,.69-1.26,.65-2.53,.01-3.8Z"/>
  <path class="cls-4" d="M126.53,190.12c-.49,.55-1.37,.7-1.56,1.55-3.5,0-7,0-10.5,0-.81-1.78-2.45-1.59-3.98-1.66-.47-2.33-2.1-4.08-3.18-6.09-1.96-3.66-3.75-7.57-8.18-9.18-2.29-.84-3.11-2.54-1.66-4.84,.29-.05,.58-.1,.87-.15,1.85,.3,3.76,.62,5.42-.51,1.03-.7,2.07-.83,3.22-.77,1.17,3.58,2.44,5.57,6.72,5.03,1.93-.24,3.4,.6,4.57,2.03,2.9,3.55,4.97,7.62,7.25,11.55,.54,.93,1.08,1.89,1.01,3.03Z"/>
  <path class="cls-4" d="M102.5,166.16c-2.5,0-5,0-7.51,0-2.03-1.32-4.23-1.89-6.65-1.42-.48-.06-.95-.11-1.43-.17-1.23-2.12-3.57-2.14-5.52-2.9l.06-.12c.05-.78,.07-1.54-1.05-1.51-.14,0-.27,0-.41-.03-1.61-5.14-1.79-10.8-5.71-15.1-1.03-1.13-2.17-2.68-1.59-4.24,.52-1.39,2.25-.37,3.38-.74,2.3,0,4.6,.02,6.9,.02-.22,2.93,.91,4.96,3.79,5.96,1.83,.63,3.03,1.86,3.59,3.82,1.2,4.23,2.63,8.4,3.78,12.64,.45,1.66,1.22,1.99,2.86,2.24,2.59,.39,5.09,.34,7.63,.02-.17,1.26-1.77,.53-2.14,1.53Z"/>
  <path class="cls-3" d="M97.49,169.91c-1.45,2.3-.63,4,1.66,4.84,4.42,1.61,6.22,5.52,8.18,9.18,1.08,2.01,2.7,3.77,3.18,6.09-.39,.08-.78,.16-1.17,.24-.46-.07-.92-.14-1.39-.21-1.14-1.96-3.06-2.49-5.1-2.82-.16-.02-.32-.07-.47-.13-.81-1.7-1.95-2.94-4.02-2.9-.2-.18-.41-.36-.61-.54,.23-.87-.07-1.17-.93-.88-.16-.04-.31-.11-.44-.2,.21-1.2-.25-1.71-1.47-1.42l-.07-.07c.28-1.23-.2-1.7-1.43-1.44l-.07-.07c.28-1.22-.22-1.68-1.42-1.47-.09-.14-.15-.29-.19-.45-.55-2.41-1.97-4.11-4.2-5.15-.08-.29-.16-.59-.24-.88l.13-1.69c3.36-.01,6.71-.02,10.07-.03Z"/>
  <path class="cls-3" d="M76.09,139.93c-1.13,.36-2.86-.66-3.38,.74-.58,1.57,.56,3.11,1.59,4.24,3.93,4.3,4.1,9.96,5.71,15.1-.38,.05-.75,.1-1.13,.15-.84-.3-1.36-1-1.97-1.59,.06-1.05-.41-1.56-1.48-1.46l-.04-.04c.1-1.07-.39-1.55-1.46-1.46l-.04-.04c.11-1.05-.39-1.53-1.42-1.52-.08-.13-.13-.27-.16-.42,.21-1.39-.65-1.87-1.79-2.13l-.03-.03c.04-1.62-1.23-2.67-1.9-3.91-1.78-3.32-3.1-6.77-4.23-10.41,2.68-.77,4.64,2.2,7.24,1.15,.8,.05,1.6,.1,2.39,.15,.42,.88,1.95,.2,2.09,1.48Z"/>
  <path class="cls-2" d="M102.5,166.16c.37-.99,1.96-.27,2.14-1.53,2.38-.24,4.8,.26,7.15-.56,.66-.23,1.56-.27,1.66,.87-.9-.09-1.52,.35-2.14,.95-1.23,1.18-2.84,1.78-4.32,2.57-1.15-.05-2.19,.07-3.22,.77-1.66,1.13-3.56,.81-5.42,.51,1.57-1.08,3.45-1.25,5.22-1.72,.78-.21,1.63-.18,2.26-.99-.9-1.13-2.4-.07-3.34-.89Z"/>
  <path class="cls-2" d="M88.35,164.74c2.42-.48,4.61,.09,6.65,1.42-2.52,.95-4.62-.06-6.65-1.42Z"/>
  <path class="cls-2" d="M87.53,172.51c2.23,1.04,3.65,2.74,4.2,5.15-1.94-1.28-3.43-2.92-4.2-5.15Z"/>
  <path class="cls-2" d="M81.41,161.67c1.95,.76,4.29,.77,5.52,2.9-2.11-.45-4.22-.9-5.52-2.9Z"/>
  <path class="cls-2" d="M109.33,190.26c.39-.08,.78-.16,1.17-.24,1.53,.07,3.16-.12,3.98,1.66-1.84-.02-3.71,.06-5.15-1.42Z"/>
  <path class="cls-2" d="M102.85,187.23c2.04,.33,3.96,.86,5.1,2.82-1.86-.66-3.91-.96-5.1-2.82Z"/>
  <path class="cls-2" d="M98.36,184.2c2.07-.04,3.21,1.19,4.02,2.9-1.77-.37-3.15-1.28-4.02-2.9Z"/>
  <path class="cls-2" d="M70.52,151.51c1.14,.25,2,.74,1.79,2.13-.95-.41-1.74-.96-1.79-2.13Z"/>
  <path class="cls-2" d="M78.88,160.16c.38-.05,.75-.1,1.13-.15,.14,.03,.27,.03,.41,.03,.18,.5,.35,1.01,.53,1.51-1.04,.07-1.73-.41-2.07-1.39Z"/>
  <path class="cls-2" d="M94.91,181.16c1.23-.29,1.69,.21,1.47,1.42-.83-.12-1.32-.59-1.47-1.42Z"/>
  <path class="cls-2" d="M93.41,179.65c1.23-.27,1.71,.21,1.43,1.44-.81-.15-1.29-.62-1.43-1.44Z"/>
  <path class="cls-2" d="M91.93,178.11c1.2-.21,1.71,.25,1.42,1.47-.82-.15-1.3-.64-1.42-1.47Z"/>
  <path class="cls-2" d="M87.42,169.94l-.13,1.69c-.57-.26-1.26-.53-1.08-1.29,.12-.53,.74-.41,1.2-.4Z"/>
  <path class="cls-2" d="M72.47,154.05c1.02,0,1.53,.47,1.42,1.52-.83-.17-1.32-.66-1.42-1.52Z"/>
  <path class="cls-2" d="M73.93,155.61c1.06-.09,1.55,.4,1.46,1.46-.83-.15-1.32-.63-1.46-1.46Z"/>
  <path class="cls-2" d="M75.42,157.12c1.07-.1,1.55,.4,1.48,1.46-.83-.14-1.33-.62-1.48-1.46Z"/>
  <path class="cls-3" d="M80.95,161.55c-.18-.5-.35-1.01-.53-1.51,1.12-.03,1.1,.73,1.05,1.51-.17,0-.34,0-.52,0Z"/>
  <path class="cls-2" d="M96.83,182.78c.86-.28,1.16,.02,.93,.88-.46-.13-.77-.43-.93-.88Z"/>
  <path class="cls-2" d="M284.48,84.33c2.67-.61,4.69,1.22,6.92,2.03,3.61,1.29,6.92,3.31,10.06,5.57,.46,.33,.93,.61,1.33,1.05,1.03,1.14,3.31,2.25,2.76,3.38-.56,1.15-2.86,1.89-4.45,2.01-3.14,.24-5.94,1.55-8.81,2.47-2.76,.88-5.76,1.08-8.32,2.61,1.78-6.32,1.18-12.71,.51-19.1Z"/>
  <path class="cls-3" d="M284.48,84.33c.67,6.39,1.27,12.78-.51,19.1-.94,.15-1.87,.3-2.81,.45-.25-6.5,.39-12.95,1.1-19.39,.46-.05,.92-.11,1.37-.16,.28,0,.56,0,.84,0Z"/>
  <path class="cls-14" d="M282.26,84.49c-.71,6.44-1.35,12.89-1.1,19.39-.84,1.04-1.05,2.53-2.35,3.24,2.25-6.85,.79-14,1.67-20.96,.18-1.4,0-2.8-.5-4.14,.29,0,.58,0,.86,0,.51,.52,1.02,1.04,1.53,1.56l-.11,.9Z"/>
  <path class="cls-14" d="M269.85,124.64c-.87-1.65,.7-2.59,1.17-3.82,1.72-4.46,4.1-8.58,6.49-12.71,.24-.41,.57-.57,1.03-.4-1.62,3.14-3.23,6.3-4.88,9.43-1.31,2.48-2.07,5.24-3.81,7.49Z"/>
  <path class="cls-2" d="M282.26,84.49l.11-.9c.68-.2,1.08,.09,1.27,.74-.46,.05-.92,.11-1.37,.16Z"/>
  <path class="cls-2" d="M89.91,286.81c.37,.27,.44,.66,.42,1.09-.38,.08-.76,.16-1.14,.24-.3-.73,.03-1.12,.71-1.32Z"/>
  <path class="cls-4" d="M59,98.99c.03-1.03-.55-1.47-1.37-2.08-2.51-1.85-5.02-3.79-6.21-6.87,1.24-1.78,1.09-3.94,1.38-5.91,.62-4.16,2.07-8.31-.11-12.58-1.08-2.11-.07-3.22,2.44-3.75,.16-.03,.24-.39,.36-.6,.51,.26,1.01,.52,1.52,.78,0,.73,.34,1.06,1.09,.88,1.78,1.47,4.33,1.58,5.95,3.33,.08,2.54-.64,5.19,.4,7.61,1.65,3.84,1.55,7.87,1.33,11.83-.18,3.27-.94,6.51-.78,9.83-2.02-.41-3.55-2.02-5.62-2.32-.14-.03-.27-.08-.39-.15Z"/>
  <path class="cls-3" d="M52.98,116.02c-2-5.39-3.55-10.87-3.2-16.72,2.02,.27,3.68,1.46,5.32,2.47,1.15,.7,3.21,.12,3.46,2.2-2.74,.15-3.09,.66-1.97,3.06,.38,.81,.87,1.64,1.5,2.26,1.58,1.54,2.1,3.42,2.46,5.52,.7,4.06,.18,8.26,1.41,12.25-.5,0-1-.01-1.5-.02h-.01c.01-1.02-.48-1.52-1.49-1.49l-.02-.02c-.78-2.16-2.15-4.01-3.55-5.75-.96-1.2-.56-3.23-2.42-3.76Z"/>
  <path class="cls-2" d="M58.56,103.96c-.25-2.07-2.32-1.49-3.46-2.2-1.63-1-3.29-2.2-5.32-2.47-.51-1.85,.55-1.34,1.4-.87,2.88,1.6,5.76,3.22,8.85,4.36,2.73,1.02,5.47,2.24,9.03,1.56-3.12-.91-5.38-2.55-7.91-3.62-.76-.32-1.55-.65-1.76-1.59,2.07,.3,3.59,1.91,5.62,2.32,.84,.06,1.56,.46,2.32,.75,2.49,.93,4.93,2.05,7.61,2.41,.18,.55,.35,1.12,1.02,.39,.73,.05,1.55-.02,1.52,1.09-.8-.05-1.7-.36-2.04,.79-1.96,0-3.92,.01-5.88,.02-.44-1.24-1.46-1.38-2.57-1.33-2.24-.13-4.56,.16-6.52-1.45-.41-.33-1.26-.12-1.91-.16Z"/>
  <path class="cls-2" d="M52.98,116.02c1.87,.54,1.46,2.57,2.42,3.76,1.4,1.74,2.77,3.59,3.55,5.75-2.01-.51-2.17-2.79-3.65-3.81-.5-2.01-2.53-3.4-2.32-5.7Z"/>
  <path class="cls-11" d="M69.57,106.9c1.96,0,3.92-.01,5.88-.02,.79,.03,1.75,.48,2.04-.79,.03-1.11-.79-1.04-1.52-1.09-.23-.42-.6-.48-1.02-.39-2.68-.36-5.12-1.48-7.61-2.41-.77-.29-1.49-.69-2.32-.75-.17-3.31,.59-6.56,.78-9.83,.22-3.96,.32-7.99-1.33-11.83-1.04-2.42-.32-5.07-.4-7.61,.99,.1,1.97,.21,2.96,.31v1.44c-1.32,.26-1,1.32-1.01,2.17-.09,4.76,1.35,9.11,3.18,13.47,2,4.75,4.86,8.7,8.8,11.93,.48,.56,.87,1.22,1.45,1.65,1.51,1.13,1.86,2.34,.54,3.82h-.24s-.24,0-.24,0c-2.16,.01-1.54,1.54-1.34,2.65,.4,2.26,2.18,3.88,3,5.9,1.21,2.96,2.75,5.65,4.67,8.16,2.58,3.37,6.06,6.1,7.37,10.39,.15,.5,.87,.36,1.34,.47-.14,.85-.75,.92-1.45,.95-.78,.03-1.67-.23-2.17,.69l-1.27,.07c-1.42-.43-2.85-.38-4.28-.03-1.46-.09-2.92-.17-4.38-.26-.72-1.65-2.39-.88-3.55-1.4-.31-.02-.62-.04-.93-.06-1.87-4.81-1.57-9.96-1.84-14.93-.21-3.96-1.36-6.14-5.25-7.1-2.48-.61-3.32-2.98-2.41-5.49,.85-.03,1.7-.05,2.56-.08Z"/>
  <path class="cls-11" d="M113.45,164.95c-.11-1.14-1.01-1.1-1.66-.87-2.35,.82-4.77,.32-7.15,.56-2.54,.32-5.05,.37-7.63-.02-1.65-.25-2.41-.58-2.86-2.24-1.15-4.24-2.58-8.41-3.78-12.64-.56-1.96-1.76-3.19-3.59-3.82-2.88-1-4.01-3.03-3.79-5.96,.64-.02,1.29-.04,1.93-.07,.45,.1,.84,.05,1.07-.42,.33-.01,.66-.02,.98-.03,.7,.07,1.4,.13,1.54-.83,.61-.09,1.17-.28,1.59-.76,.36-.07,.73-.13,1.09-.2,.26,.03,.53,.07,.79,.1,0,.09,.02,.19,.05,.28,0,0-.04,0-.04,0-.16,.15-.33,.31-.49,.46-1.23,2.42,.2,3.78,1.99,5h.01c.27,1.41,1.1,2.24,2.49,2.51h0c.14,1.98,1.47,3.06,3,3.99,1.16,1,2.33,2.01,3.49,3.01,0,1.05,.85,1.55,1.46,2.2,1.61,1.72,3.58,3.09,3.75,5.87,.07,1.15,1.35,2,2.81,1.94,.99-.05,1.98-.05,2.97,0,1.4,.09,1.66,.84,1.04,2.01-.31,.02-.63,.03-.94,.05l-.12-.13Z"/>
  <path class="cls-2" d="M84.92,139.89c-.64,.02-1.29,.04-1.93,.07-2.3,0-4.6-.02-6.9-.02-.13-1.29-1.67-.6-2.09-1.48,.72-.62,1.58-.43,2.36-.28,2.61,.48,5.19,.53,7.81-.04,.92-.2,1.95-.39,2.87,.2-.02,.37-.04,.74-.06,1.11-.33,.01-.66,.02-.98,.03-.7-.73-.87-.12-1.07,.42Z"/>
  <path class="cls-2" d="M76.5,134.51c.31,.02,.62,.04,.93,.06,.05,.42,.11,.84,.16,1.26-5.66-.27-10.34-2.96-14.86-6.04-.37-.26-.56-.79-.83-1.2,0,0,.15-.16,.15-.16,.32,.01,.63,.03,.95,.04h0c.41,.84,.99,1.45,1.97,1.55,.71,.67,1.64,1.03,2.45,1.53,2.76,1.69,5.66,3.16,9.06,2.96Z"/>
  <path class="cls-3" d="M92.04,138.03c-.03-.09-.05-.18-.05-.28,.97-1.54-.24-1.21-1.05-1.22-.07-.11-.08-.22-.03-.34,.51-.91,1.39-.66,2.17-.69,.69-.03,1.31-.1,1.45-.95,1.14,0,2.28,0,3.42,.01,.28,.77,.32,1.54-.02,2.31-.48,.02-.96,.05-1.44,.07-1.71-1.03-2.03,.37-2.54,1.45v.05c-.68,.03-1.33-.06-1.92-.43Z"/>
  <path class="cls-3" d="M77.59,135.83c-.05-.42-.11-.84-.16-1.26,1.16,.52,2.84-.25,3.55,1.4-1.15,.42-2.28,.37-3.39-.14Z"/>
  <path class="cls-2" d="M85.37,136.23c1.43-.35,2.85-.4,4.28,.03-1.43,1.06-2.86,1.04-4.28-.03Z"/>
  <path class="cls-2" d="M60.47,127.04c.5,0,1,.01,1.5,.02,0,.14,.02,.28,.04,.43,.02,.32,.03,.64,.05,.95l-.15,.16c-.77-.25-1.34-.68-1.43-1.56Z"/>
  <path class="cls-2" d="M58.97,125.55c1.01-.02,1.5,.47,1.49,1.48-.87-.11-1.37-.61-1.49-1.48Z"/>
  <path class="cls-2" d="M90.1,137.84c-.42,.49-.98,.67-1.59,.76-.21-.09-.42-.19-.63-.28,.55-1.03,1.37-.83,2.23-.49Z"/>
  <path class="cls-2" d="M90.94,136.53c.81,.01,2.02-.32,1.05,1.22-.26-.03-.53-.07-.79-.1-.08-.37-.17-.74-.25-1.11Z"/>
  <path class="cls-3" d="M87.87,138.33c.21,.09,.42,.19,.63,.28-.14,.96-.84,.91-1.54,.83,.02-.37,.04-.74,.06-1.11,.28,0,.56,0,.84,0Z"/>
  <path class="cls-2" d="M88.89,322.03c.89-.22,1.21-1.33,2.19-1.41,.2,1.04-.59,1.63-1.08,2.35-.29,.43-.69,.79-1.18,.32-.4-.38-.39-.86,.07-1.25Z"/>
  <path class="cls-2" d="M87.94,314.07c1.49,.74,1.27,1.75,.44,2.85-1.28-.78-.78-1.83-.44-2.85Z"/>
  <path class="cls-2" d="M91.32,320.13c-.47-.85,.04-1.27,.7-1.63,.89,1.03-.04,1.27-.7,1.63Z"/>
  <path class="cls-2" d="M88.39,318.01c.75,.42,.62,1,.29,1.62-.73-.42-.9-.95-.29-1.62Z"/>
  <path class="cls-2" d="M88.33,298.91c.3,.62,.29,1.2-.18,1.74-.95-.68-.92-1.26,.18-1.74Z"/>
  <path class="cls-2" d="M88.65,295.86c.32,.47,.3,.85-.25,1.13-.58-.52-.27-.85,.25-1.13Z"/>
  <path class="cls-2" d="M88.46,297.55c.13,.07,.27,.13,.4,.2-.11,.09-.23,.17-.34,.26-.09-.14-.11-.3-.06-.46Z"/>
  <path class="cls-3" d="M91.33,244.32l1.48-1.52c.64-.36,1.14-.86,1.49-1.51,5.87-5.37,10.98-11.51,16.73-16.99,2.69-2.56,4.89-5.61,7.87-7.89l.17,.17c-.39,2.05-2.88,2.7-3.18,4.81-1.34,.28-2.08,1.38-2.81,2.32-1.08,1.38-2.28,2.61-3.48,3.87-4.47,4.69-8.79,9.53-13.46,14.02-1.78,1.7-3.08,4.06-5.61,4.93-.07-.08-.14-.16-.21-.25,.33-.65,.67-1.31,1-1.96Z"/>
  <path class="cls-2" d="M127.8,207.26c.09-.89,.57-1.38,1.46-1.46,.07,.06,.15,.13,.23,.19-.03,.97-.52,1.49-1.5,1.5-.06-.08-.12-.15-.18-.23Z"/>
  <path class="cls-3" d="M118.91,216.42c.23-.79,.85-1.24,1.5-1.65,.03,.13,.05,.25,.08,.38,.13,1.06-.51,1.38-1.41,1.44l-.17-.17Z"/>
  <path class="cls-2" d="M120.41,214.76c.18-.75,.63-1.24,1.37-1.44,.07,.06,.15,.12,.22,.18,.08,1.08-.62,1.45-1.51,1.64-.03-.13-.05-.25-.08-.38Z"/>
  <path class="cls-2" d="M121.79,213.32c.29-.71,.73-1.26,1.49-1.51,.07,.06,.14,.12,.22,.18,.02,1.01-.45,1.54-1.48,1.52-.07-.06-.14-.12-.22-.18Z"/>
  <path class="cls-2" d="M123.27,211.81c.28-.72,.73-1.27,1.49-1.51,.07,.06,.15,.12,.22,.18,0,1-.48,1.52-1.5,1.5-.07-.06-.14-.12-.22-.18Z"/>
  <path class="cls-2" d="M124.77,210.31c.27-.73,.72-1.28,1.5-1.5,.07,.06,.15,.12,.22,.18,0,1-.49,1.51-1.5,1.5-.07-.06-.15-.12-.22-.18Z"/>
  <path class="cls-2" d="M129.26,205.8c.24-.78,.76-1.29,1.54-1.54,.06,.07,.13,.15,.19,.23-.03,.42-.05,.84-.08,1.25-.47,.08-.95,.16-1.42,.25-.08-.06-.15-.12-.23-.19Z"/>
  <path class="cls-2" d="M126.26,208.8c.26-.77,.76-1.29,1.54-1.54,.06,.07,.12,.15,.18,.23-.02,.99-.5,1.5-1.5,1.5-.07-.06-.15-.12-.22-.18Z"/>
  <path class="cls-8" d="M130.91,205.74c.03-.42,.05-.84,.08-1.25,2.36-1.39,3.96-3.6,5.91-5.44,3.4-3.21,6.29-6.92,10.01-9.8-.09,1.52,.79,2.69,1.94,3.25,4.19,2,7.05,5.68,10.76,8.31,2.75,1.95,7.42,3.81,5.21,9.04,0,.02,.12,.1,.18,.16-.67,2.02-2.03,3.55-3.5,5-2.04,.35-3.66,1.44-5.13,2.85-1.01,.97-2.05,1.98-3.26,2.68-1.84,1.06-4.31,1.97-5.79,.32-3.03-3.39-7.24-5.24-10.26-8.54-.97-1.06-2.15-1.86-3.42-2.46-1.79-.84-2.64-2.2-2.73-4.11Z"/>
  <path class="cls-12" d="M165,210c-.06-.05-.19-.13-.18-.16,2.21-5.23-2.46-7.09-5.21-9.04-3.71-2.62-6.57-6.31-10.76-8.31-1.16-.55-2.03-1.72-1.94-3.25,2.57-3.85,6.06-6.89,9.16-10.26,1.26-1.37,2.85-2.54,3.26-4.53l.1-.12c1.58,.64,1.54-1.86,2.95-1.54,.13,.77,.48,1.4,1.1,1.88,2.79,2.17,5.57,4.36,8.37,6.52,2.16,1.65,4.5,3.06,6.3,5.17,.81,.95,1,1.78,.48,2.92-.72,1.57-1.81,2.98-2.11,4.74,0,.33-.01,.65-.02,.98-1.18,.16-1.33,1.09-1.49,2.01-.76,1.96-2.95,3.13-3.03,5.47-.63,.05-.95,.4-.98,1.02-2.04,.83-3.14,2.38-3.46,4.52h-.01c-1.49-.17-1.42,1.66-2.52,1.98Z"/>
  <path class="cls-3" d="M55.5,67.2c-.12,.21-.21,.57-.36,.6-2.52,.53-3.52,1.64-2.44,3.75,2.18,4.27,.73,8.42,.11,12.58-.29,1.97-.15,4.13-1.38,5.91-.47-.24-.91-.59-1.5-.44-.14-.52-.07-1.13-.63-1.47,.23-.76-.11-1.07-.84-1.07-.08-.46-.15-.93-.23-1.39,.4-1.45-.06-2.51-1.43-3.15-.02-.28-.05-.57-.07-.85,.28-1.45,.71-2.95-1.26-3.6-.07-1.47-.14-2.95-.2-4.42,.37-2.43,.37-4.86,0-7.29,.05-1.45,.09-2.9,.14-4.35,1.2-1.69,2.26-.98,3.34,.17,1.26,1.34,2.47,2.73,3.86,3.93,.63,.55,1.58,.86,2.53,.69,.13,.14,.26,.27,.39,.41Z"/>
  <path class="cls-2" d="M45.25,66.35c.37,2.43,.37,4.86,0,7.29-1.22-2.43-1.23-4.86,0-7.29Z"/>
  <path class="cls-2" d="M45.45,78.07c1.97,.65,1.55,2.15,1.26,3.6-1.34-.88-1.31-2.24-1.26-3.6Z"/>
  <path class="cls-2" d="M46.79,82.52c1.37,.64,1.84,1.7,1.43,3.15-1.39-.64-1.58-1.82-1.43-3.15Z"/>
  <path class="cls-2" d="M48.45,87.06c.74,0,1.07,.31,.84,1.07-.6-.1-.87-.47-.84-1.07Z"/>
  <path class="cls-4" d="M67.03,73.94v-1.44c1.37-.14,2.64,1.61,4.23,.19-2.43-1.26-4.76-2.54-7.15-3.68-.87-.42-1.48-.97-1.88-1.81,.26-.08,.53-.15,.79-.23,1.26-.04,1.66,1.62,2.97,1.49,3.04,1.79,6.23,3.24,9.49,4.58,.38,.55,1.03,.37,1.53,.58,.77,.32,1.48,.83,1.36,1.77-.13,1.07-1.02,1.08-1.86,1.07-.42-.89-1.2-.99-2.07-.98-1.31,0-2.62-.03-3.93-.04-.45-2.19-2.27-1.13-3.5-1.48Z"/>
  <path class="cls-2" d="M52.47,58.08c.72,1.19,1.66,2.19,2.72,3.08,.49,.41,.8,.82,.58,1.48-.71-.26-1.42-.52-2.13-.79-.24-.76-.74-1.26-1.49-1.51-.26-.71-.52-1.43-.79-2.14,.37-.04,.74-.08,1.11-.12Z"/>
  <path class="cls-2" d="M57.39,64.18c1.75-.64,2.39,1.8,4.04,1.44l.47,.44c-.05,.33-.09,.67-.14,1-1.78-.48-3.37-1.24-4.37-2.89Z"/>
  <path class="cls-2" d="M55.87,62.73c1.14-.22,1.58,.29,1.45,1.39-.8-.13-1.27-.61-1.45-1.39Z"/>
  <path class="cls-2" d="M58.11,68.86c-.75,.19-1.08-.14-1.09-.88,.63-.05,.99,.26,1.09,.88Z"/>
  <path class="cls-11" d="M61.76,67.06c.05-.33,.09-.67,.14-1,.69-.09,1.05,.24,1.13,.91-.26,.08-.53,.15-.79,.23-.18,.02-.33-.02-.47-.13Z"/>
  <path class="cls-3" d="M88.83,247.8c.14-.86,.67-1.33,1.49-1.51,.07,.08,.14,.17,.21,.25,.04,1.04-.46,1.54-1.49,1.51-.07-.08-.14-.16-.21-.24Z"/>
  <path class="cls-3" d="M84.47,253.99c-.51,0-1.02-.01-1.54-.02,.09-.87,.61-1.36,1.4-1.62,.07,.05,.13,.11,.19,.17l-.06,1.47Z"/>
  <path class="cls-3" d="M87.34,249.31c.23-.77,.75-1.25,1.49-1.52,.07,.08,.14,.16,.21,.24-.1,.89-.61,1.39-1.49,1.51-.07-.08-.14-.15-.2-.23Z"/>
  <path class="cls-3" d="M85.85,250.83c.23-.76,.75-1.25,1.49-1.52,.07,.08,.13,.16,.2,.23-.11,.88-.61,1.38-1.48,1.52-.07-.07-.14-.15-.21-.23Z"/>
  <path class="cls-3" d="M84.33,252.36c.26-.75,.77-1.26,1.52-1.52,.07,.08,.14,.15,.21,.23-.21,.47-.41,.94-.62,1.41-.3,.02-.61,.04-.91,.06-.06-.06-.13-.12-.19-.17Z"/>
  <path class="cls-2" d="M79.76,257.34c.26,.85-.05,1.16-.91,.93,.12-.49,.43-.8,.91-.93Z"/>
  <path class="cls-2" d="M81.24,255.84c.27,.86-.03,1.17-.9,.92,.13-.47,.44-.77,.9-.92Z"/>
  <path class="cls-2" d="M82.65,254.31c.36,.88,.07,1.17-.83,.92,.12-.45,.4-.75,.83-.92Z"/>
  <path class="cls-2" d="M78.28,258.86c.24,.82-.05,1.14-.89,.94,.09-.51,.41-.8,.89-.94Z"/>
  <path class="cls-11" d="M106.99,168.47c1.48-.79,3.09-1.39,4.32-2.57,.62-.6,1.25-1.04,2.14-.95l.12,.13c-.62,1.28-.87,2.84,.47,3.49,1.26,.62,1.9,1.73,2.94,2.45,.13,.29,.19,.68,.41,.86,4.02,3.19,8.38,5.92,13.26,7.43,1.92,.59,4.13,1.53,6.36,.72,.32,0,.65,0,.97,0,.04,.64,.37,.97,1.01,.98,1.83,0,3.67,0,5.5,0,.64-.02,1.29-.05,1.93-.07l.07,.07c-3.06,2.47-6.23,4.76-10,6.07-1.53,.53-2.93,1.39-4.43,2.02-1.83,.76-3.63,1.02-5.53,1.04,.07-1.15-.47-2.1-1.01-3.03-2.29-3.93-4.35-8-7.25-11.55-1.17-1.43-2.64-2.27-4.57-2.03-4.28,.54-5.54-1.45-6.72-5.03Z"/>
  <path class="cls-2" d="M47.94,53.56c.93,.64,2.14,1.1,1.78,2.62-1.13-.51-1.82-1.32-1.78-2.62Z"/>
  <path class="cls-2" d="M49.91,56.6c1.07-.05,1.61,.39,1.39,1.52-.79-.2-1.28-.68-1.39-1.52Z"/>
  <path class="cls-8" d="M254,91.54c-.52,.66-1.07,.2-1.55-.02-1.51-.69-2.85-.32-4.2,.47-2.11,1.24-2.57,.93-2.75-1.57-.25-3.44-.53-6.81-.1-10.31,.48-4,.11-8.1,.11-12.15,3.37-.29,6.76,.3,10.12-.27,.46,.03,.92,.06,1.38,.1,.62,1.44,2.1,1.32,3.2,1.45,3.45,.41,6.63,1.56,9.69,3.1,1.36,.68,2.61,1.59,3.85,2.48,.58,.41,1.1,.72,1.81,.45l.19,.12c-.27,1.2,.17,1.67,1.38,1.36l.14,.14c-.34,1.18,.14,1.64,1.32,1.47,.06,.2,.13,.41,.19,.61l-.06,1.44-3.23,.16c-1.23,0-2.49-.28-3.69,.26-2.63-.53-5.17,.42-7.77,.48-.7-1.46-1.98-.53-2.98-.73-.91-.11-1.87-.24-2.68,.24-.89,.52-2.55-.66-2.77,1.26l.02,.07c-.63-.2-1.23-.31-1.6,.44-.29,.02-.59,.04-.88,.06-1.91-.51-3.52,.38-5.19,1.09-1.26,.54-1.49,1.12-.38,2.08,2.17,1.88,4.3,3.8,6.45,5.7Z"/>
  <path class="cls-2" d="M255.61,67.69c-3.36,.56-6.75-.03-10.12,.27-1.86-.25-3.76,.31-5.61-.25,3.36-1.17,6.86-1.48,10.31-.95,1.8,.28,3.83-.53,5.42,.93Z"/>
  <path class="cls-2" d="M277.11,76.75c-1.21,.31-1.65-.16-1.38-1.36,.77,.14,1.22,.6,1.38,1.36Z"/>
  <path class="cls-2" d="M278.57,78.36c-1.18,.17-1.65-.29-1.32-1.47,.77,.19,1.25,.65,1.32,1.47Z"/>
  <path class="cls-2" d="M162.37,172.79c-1.42-.32-1.37,2.17-2.95,1.54,.31-1.14,1.28-1.87,1.88-2.87-.77-.55-1.44,.33-2.14,.07,.12-.34,.24-.67,.36-1.01,1.33-1.67,3.26-2.61,4.91-3.9,.87-.68,2.08-2.29,3.08-1.17,.83,.93-.81,1.98-1.49,2.92-1.12,1.55-3.09,2.4-3.64,4.41Z"/>
  <path class="cls-12" d="M159.52,170.53c-.12,.34-.24,.67-.36,1.01l-1.14,.73c-.17-.1-.34-.2-.51-.3,.08-1.3,.93-1.53,2-1.44Z"/>
  <path class="cls-6" d="M159.52,170.53c-1.07-.09-1.92,.14-2,1.44-.14,.07-.28,.09-.43,.09-.86-.59-1.67,1.22-2.36,.18-.68-1.01,.19-2.07,.51-3.07,.15-.46,.48-.88,.8-1.25,3.13-3.62,2.57-7.23-.01-10.85-.05-.07-.07-.15-.11-.22-1.42-2.38-2.63-2.88-5.35-2.11-.72,.2-1.39,.54-2.1,.77-3.45,1.13-6.24,3.75-9.99,4.3-1.88,.28-3.09-.35-3.96-1.83-.94-1.61-.64-3.18,.41-4.67,1.08-1.52,1.97-3.1,1.4-5.09-.77-2.71-1.45-5.45-2.27-8.14-.91-2.98-2.58-3.77-5.66-3.33-3.93,.56-7.89,.89-11.84,1.24-1.78,.16-3.37-.25-3.77-2.37-.35-1.86,.87-2.7,2.26-3.39,1.57-.77,3.15-1.51,4.74-2.23,2.48-1.13,3.59-2.64,3.13-5.21-.42-2.32-.35-4.63-.46-6.94-.06-1.15-.13-2.52-1.39-2.97-2.1-.75-4.28-1.73-6.44-1.76-5.07-.08-10.08-.71-15.12-1.08-1.46-.11-2.39-.63-2.51-2.17-.12-1.53,.38-2.57,2.05-2.88,1.38-.25,2.74-.63,4.11-1,2.17-.58,3.67-1.87,4.28-4.09,.41-1.52,.65-3.1,1.22-4.56,.81-2.07,.07-3.49-1.72-4.32-3.82-1.78-7.75-3.32-11.94-4.01h0c-.81-1.44-2.65-1.21-3.73-2.3-.89-.9-2.46-1.27-2.09-3,.6-2.76,1.89-4.06,4.21-4.18,1.08-.06,2.17-.41,3.18-.37,2.24,.09,3.29-1.2,4.24-2.83,2.92-5.01,5.74-10.07,8.81-14.99,1.54-2.47,.2-4.63-.11-6.93,1.63,.6,3.26,1.19,4.01,2.98,.53,2.32,1.67,4.16,3.97,5.11,2.49,3.59,5.33,6.92,7.54,10.72,.94,1.62,1.44,3.53,2.96,4.79,.12,1.12,.76,2.01,1.28,2.95,.95,1.71,1.56,3.78,.92,5.41-.57,1.46-2.7,.43-4.12,.6-.9,.11-1.81-.12-2.71-.23-3.85-.47-7.65-1.42-11.58-1.27-1.53,.06-2.48,.5-2.83,2.15-.43,2.04,.58,4.06,2.64,4.83,3.1,1.16,6.24,2.24,9.3,3.5,1.79,.73,3.41,2.12,3.25,4.1-.35,4.06-2.07,5.43-6.3,5.98-1.8,.24-3.62,.55-5.34,1.11-1.32,.43-2.23,1.5-1.96,3.09,.16,.94,.52,1.76,1.72,1.78,5.14,.05,10.18,1.54,15.36,1.01,2.56-.26,4.79,1.14,7.23,1.53,.86,.14,1.29,.88,1.41,1.59,.43,2.55,.53,5.16,0,7.67-.39,1.85-2.63,1.84-3.87,2.91-.53,.45-1.41,.46-2.08,.79-2,1-4.36,1.18-6.15,2.62-1.21,.97-2.72,1.85-1.91,3.84,.83,2.04,2.62,2.37,4.37,1.96,4.52-1.05,9.14-1.35,13.71-2.01,7.22-1.04,5.7-1.55,8.04,4.82,1.17,3.2,1.02,5.98-1.98,8.16-.73,.53-1.35,1.25-1.93,1.95-.58,.71-.92,1.43-.6,2.5,.82,2.74,2.85,3.4,5.88,2.22,4.27-1.66,8.18-4.02,12.36-5.83,2.84-1.23,3.7-.74,6.51,3.13,1.44,1.99,.4,3.38-.97,4.76-1.55,1.56-2.48,3.52-3.41,5.47-.59,1.23,.21,2.05,.84,2.92,.28,.39,.71,.55,1.08,.28,2.43-1.73,5.48-2.52,7.4-5.04,1.14-1.49,2.65-1.98,4.35-.8,5.07,3.5,10.56,5.74,16.79,6.24,2.64,.21,2.78,.83,1.38,3.17-1.14,1.9-2.86,3.44-3.54,5.64-.19,1.32-1.32,2.01-2.01,3-.75,.01-1.13,.47-1.54,1.05-1.93,2.73-3.99,5.37-5.84,8.15-1.34,2.01-3.05,3.83-3.62,6.29-.17,.17-.34,.34-.5,.5-1.13,0-1.24,1.67-2.47,1.52,.3-1.76,1.39-3.17,2.11-4.74,.52-1.14,.34-1.97-.48-2.92-1.8-2.11-4.15-3.51-6.3-5.17-2.81-2.15-5.58-4.35-8.37-6.52-.62-.48-.97-1.11-1.1-1.88,.55-2.01,2.53-2.86,3.64-4.41,.68-.94,2.32-1.98,1.49-2.92-1-1.12-2.21,.49-3.08,1.17-1.64,1.28-3.57,2.22-4.91,3.9Z"/>
  <path class="cls-12" d="M95,89c4.2,.69,8.12,2.23,11.94,4.01,1.79,.83,2.52,2.25,1.72,4.32-.57,1.46-.81,3.04-1.22,4.56-.6,2.21-2.11,3.51-4.28,4.09-1.36,.36-2.72,.74-4.11,1-1.67,.31-2.17,1.35-2.05,2.88,.12,1.54,1.05,2.06,2.51,2.17,5.04,.37,10.05,1,15.12,1.08,2.16,.04,4.34,1.01,6.44,1.76,1.26,.45,1.34,1.83,1.39,2.97,.11,2.32,.05,4.62,.46,6.94,.46,2.56-.65,4.08-3.13,5.21-1.59,.72-3.17,1.46-4.74,2.23-1.39,.69-2.62,1.53-2.26,3.39,.4,2.13,1.99,2.53,3.77,2.37,3.95-.35,7.91-.68,11.84-1.24,3.08-.44,4.76,.35,5.66,3.33,.82,2.7,1.5,5.43,2.27,8.14,.57,1.99-.32,3.58-1.4,5.09-1.06,1.49-1.36,3.06-.41,4.67,.87,1.47,2.07,2.11,3.96,1.83,3.75-.55,6.53-3.17,9.99-4.3,.71-.23,1.39-.57,2.1-.77,2.72-.77,3.93-.27,5.35,2.11,.04,.07,.06,.16,.11,.22,2.58,3.61,3.14,7.22,.01,10.85-.32,.37-.66,.79-.8,1.25-.32,1-1.19,2.05-.51,3.07,.69,1.03,1.5-.78,2.36-.18-2.34,2.02-4.68,4.05-7.02,6.07-.36-.03-.72-.07-1.07-.1-.09-1.51,.14-2.92,.83-4.32,.66-1.34,1.2-2.96,.49-4.31-1.49-2.84-3.19-5.59-4.99-8.25-.79-1.17-2.09-2.1-3.64-1.43-3.3,1.42-6.7,2.69-9.68,4.78-.67,.17-1.33,.34-2,.5-4.48,1.26-6.93-.65-6.98-5.52-.02-1.58-.09-3.14-.53-4.67-1.13-3.88-2.32-7.74-3.34-11.65-.61-2.33-1.96-3.22-4.31-3.19-3.07,.03-5.92,1.34-9.08,1.1-4.1-.3-4.12-.07-5.26-4.07,1.45-.65,3.05-1.05,4-2.5,1.7-.84,2.52-2.15,2.53-4.11,.02-4.4-.14-8.78-.5-13.16-.19-2.35-1.93-2.7-3.59-3.14-4.39-1.17-8.9-1.7-13.42-2.07-.99-.08-1.95-.21-1.96-1.4-.01-1.32-.7-3.3,1.17-3.64,5.95-1.07,6.93-5.61,7.77-10.38,.08-.49,.21-.98,.41-1.43,.98-2.2,.79-4.02-1.5-5.3-.22-.13-.27-.57-.4-.86Z"/>
  <path class="cls-2" d="M219.48,79.03c1.72,.26,2.7,1.27,3.04,2.95-1.52-.46-2.5-1.48-3.04-2.95Z"/>
  <path class="cls-2" d="M217.94,77.59c1.04-.09,1.55,.39,1.53,1.43-.89-.07-1.38-.57-1.53-1.43Z"/>
  <path class="cls-8" d="M132,164.5c2.98-2.09,6.37-3.35,9.68-4.78,1.55-.67,2.86,.26,3.64,1.43,1.8,2.66,3.5,5.41,4.99,8.25,.71,1.35,.18,2.98-.49,4.31-.69,1.4-.92,2.81-.83,4.32-.78,1.03-2.4,1.32-2.56,2.9-.64,.02-1.29,.05-1.93,.07-1.24-3.6-3.71-6.52-5.45-9.85-1.57-3-2.98-6.25-7.04-6.65Z"/>
  <path class="cls-7" d="M275.47,80.57l3.23-.16c.48,.49,1.29,.71,1.32,1.58-.5,.04-.99,.08-1.49,.11-.62-1.31-2.67,.23-3.05-1.53Z"/>
  <path class="cls-9" d="M85.44,252.47c.21-.47,.41-.94,.62-1.41,.87-.13,1.37-.64,1.48-1.52,.88-.12,1.39-.62,1.49-1.51,1.04,.03,1.53-.47,1.49-1.51,2.54-.87,3.84-3.23,5.61-4.93,4.67-4.48,8.99-9.33,13.46-14.02,1.2-1.26,2.4-2.49,3.48-3.87,.74-.94,1.48-2.04,2.81-2.32,.41,.76,.99,1.31,1.77,1.69,4.08,1.98,6.76,5.76,10.59,8.15,2.05,1.27,3.55,3.16,6.26,2.29-.04,.52-.2,1-.68,1.27-5.11,2.84-10.11,5.85-15.42,8.34-3.81,1.79-7.74,3.33-11.61,4.92-2.05,.84-4.43,1.51-6.74,2.02-2.78,.61-5.43,1.74-8.37,1.66-.68-.02-1.41,.51-1.71,1.3l-2.99,.02c-.57-.07-1.2,.02-1.57-.58Z"/>
  <path class="cls-11" d="M85.44,252.47c.37,.6,1,.51,1.57,.58-.39,1.55-1.65,.75-2.55,.95l.06-1.47c.3-.02,.61-.04,.91-.06Z"/>
  <path class="cls-7" d="M222.96,144.47c.43-1.89,2.56-2.61,3.06-4.46,1.16-.18,1.84-.83,1.97-2.02,1.02-.27,.81-1.48,1.51-2,1.53-.14,1.71-1.62,2.47-2.52,.4-.21,.5-.58,.51-.99,.82-.43,1.48-.98,1.51-2,.01-.16,.02-.32,.03-.48,1.61-.36,2.02-1.71,2.48-3.02,.02-.16,.02-.32,.03-.47,2.29-.73,2.96-2.98,4.21-4.63,1.25-1.66,3.02-3.09,3.27-5.38h0c.55-.03,.84-.39,1.16-.81,2.38-3.16,4.7-6.36,7.21-9.42,2-2.44,3.49-5.42,6.61-6.79l.11,3.16c0,.27,.01,.55,.02,.82-2.18,1.65-1.57,3.98-1.52,6.18,0,.28,.01,.56,.02,.84-1.03,.05-1,.78-1.15,1.56-.76,3.85-.47,7.73-.36,11.6,0,2.9,0,5.8,.01,8.71-.04,2.16-.36,4.36-.06,6.48,.63,4.5-.93,8.36-3.25,11.91-4.86,7.42-9.87,14.76-16.29,21-3.04,2.95-3.53,2.99-6.43,.1-2.89-2.89-5.69-5.86-8.69-8.62-1.77-1.62-1.49-2.9,0-4.37,1.72-1.7,3.33-3.51,5.15-5.1,1.98-1.72,3.29-3.95,4.79-6.02,1.18-1.63,.69-5.78-.65-7.2-.53-.57-1.05-.39-1.56-.07-1.13,.7-2.28,1.36-3.2,2.36-.8,.87-1.7,1.6-2.96,1.66Z"/>
  <path class="cls-7" d="M210.49,152.47c1.83,0,3.12-1.09,4.5-2.11,.75-.55,1.44-1.35,2.51-1.35,.32,1.66-1.35,1.58-2.09,2.25-1,.9-2.27,1.51-3.42,2.25-.68-.01-1.35-.03-2.03-.04,.06-.4,.14-.78,.53-1.01Z"/>
  <path class="cls-7" d="M219.95,147.46c.35-1.33,1.17-2.18,2.53-2.5-.23,1.46-1.05,2.31-2.53,2.5Z"/>
  <path class="cls-7" d="M217.96,148.97c.1-.93,.59-1.44,1.54-1.48-.04,.98-.54,1.49-1.54,1.48Z"/>
  <path class="cls-7" d="M192.51,173.5c.68-2.19,2.4-3.73,3.54-5.64,1.4-2.34,1.27-2.96-1.38-3.17-6.22-.5-11.72-2.74-16.79-6.24-1.7-1.18-3.22-.69-4.35,.8-1.92,2.52-4.97,3.31-7.4,5.04-.37,.26-.8,.11-1.08-.28-.63-.87-1.43-1.69-.84-2.92,.93-1.95,1.86-3.91,3.41-5.47,1.37-1.38,2.42-2.77,.97-4.76-2.81-3.87-3.66-4.36-6.51-3.13-4.18,1.81-8.1,4.17-12.36,5.83-3.03,1.18-5.06,.53-5.88-2.22-.32-1.07,.02-1.79,.6-2.5,.58-.7,1.2-1.42,1.93-1.95,3-2.18,3.15-4.97,1.98-8.16-2.34-6.36-.82-5.86-8.04-4.82-4.57,.66-9.18,.96-13.71,2.01-1.75,.4-3.54,.08-4.37-1.96-.81-2,.7-2.87,1.91-3.84,1.8-1.44,4.15-1.62,6.15-2.62,.66-.33,1.55-.34,2.08-.79,1.24-1.07,3.47-1.05,3.87-2.91,.53-2.52,.43-5.12,0-7.67-.12-.72-.55-1.45-1.41-1.59-2.44-.4-4.66-1.79-7.23-1.53-5.18,.53-10.22-.96-15.36-1.01-1.19-.01-1.56-.83-1.72-1.78-.27-1.58,.64-2.65,1.96-3.09,1.72-.56,3.54-.87,5.34-1.11,4.23-.56,5.95-1.92,6.3-5.98,.17-1.97-1.46-3.37-3.25-4.1-3.06-1.25-6.2-2.34-9.3-3.5-2.06-.77-3.07-2.79-2.64-4.83,.35-1.65,1.3-2.08,2.83-2.15,3.93-.16,7.73,.8,11.58,1.27,.9,.11,1.81,.34,2.71,.23,1.42-.17,3.55,.85,4.12-.6,.64-1.63,.03-3.7-.92-5.41-.52-.94-1.16-1.83-1.28-2.95,3.14,2.71,4.08,6.6,5.44,10.24,.33,.87-.44,1.35-1.38,1.17-2.35-.44-4.74-.77-7.04-1.38-3.09-.81-4.98,.12-5.85,3.17-.42,1.47,1.21,3.65,3.43,4.2,3.24,.8,6.25,2.16,9.27,3.51,1.72,.77,3.47,1.78,5.27,1.97,2.14,.23,3.45,.99,3.27,3.08-.18,2.13-2.07,2-3.66,2.02-2.5,.04-4.96,.38-7.3,1.3-1.22,.48-2.26,1.24-1.85,2.81,.36,1.4,1.27,1.94,2.77,1.92,4.07-.07,8.1,.65,12.18,.55,1.68-.04,3.74,0,4.7,2.03,.81,1.72,1.58,3.45,2.39,5.17,.84,1.79-.05,2.82-1.67,3.1-3.48,.58-6.37,2.49-9.43,3.99-.92,.45-2.19,1.18-1.74,2.9,.47,1.82,1.7,1.71,3.07,1.73,4.4,.09,8.77-.28,13.12-.93,1.09-.16,1.99,.16,2.57,1.11,.69,1.13,1.39,2.27,1.99,3.45,1.85,3.59,1.62,4.53-1.59,7.07-.13,.1-.3,.16-.42,.27-1.3,1.13-2.46,2.41-1.63,4.24,.89,1.96,2.69,2.09,4.48,1.52,1.74-.55,3.38-1.37,5.1-1.98,1.1-.39,2.37-.71,3.23,.38,1.81,2.3,4.18,4.28,3.85,7.77-.14,1.49,.71,3.12,2.62,2.98,2.06-.15,3.99-.83,5.58-2.38,1.04-1.02,1.7-2.47,3.18-3.03,.36,0,.72-.01,1.07-.02,.15,0,.3,0,.45,.04,1.27,2.12,3.47,2.45,5.6,2.93,.3,0,.59,0,.89,0,1.49,1.94,3.6,1.53,5.62,1.49,1.46-.04,2.91-.08,4.37-.12,.33,.04,.66,.09,.98,.13,1.41,.34,2.7-.46,4.07-.44-1.43,3.38-4.23,5.86-5.97,9.06-1.41,2.59-3.34,4.9-5,7.36-.4,.59-.79,1.06-1.54,1.07Z"/>
  <path class="cls-7" d="M165,210c1.1-.32,1.03-2.14,2.52-1.97-1.35,3.62-4.05,6.34-6.21,9.42-2.3,3.27-4.61,6.55-6.73,9.93-.92,1.47-2.51,2.41-3.09,4.11-.33,0-.66,0-.99,0,.24-1.94,1.77-3.1,2.8-4.56,2.79-3.95,5.68-7.81,8.19-11.95,1.47-1.46,2.83-2.99,3.5-5Z"/>
  <path class="cls-7" d="M179.49,191.99c.57-2.46,2.28-4.29,3.62-6.29,1.86-2.78,3.92-5.42,5.84-8.15,.41-.58,.8-1.04,1.54-1.05-.31,2.35-2.17,3.78-3.37,5.58-1.77,2.67-3.73,5.21-5.57,7.83-.58,.82-1.16,1.6-2.06,2.07Z"/>
  <path class="cls-7" d="M171.98,202.48c.07-2.34,2.27-3.51,3.03-5.47,.34-.17,.67-.33,1.01-.5-.75,2.39-1.94,4.49-4.03,5.97Z"/>
  <path class="cls-7" d="M167.54,208.02c.33-2.14,1.42-3.69,3.46-4.52-.94,1.67-1.2,3.87-3.46,4.52Z"/>
  <path class="cls-7" d="M176.52,194.02c1.23,.15,1.34-1.52,2.47-1.52,0,1.76-1.15,2.7-2.48,3.51,0-.34,0-.67-.01-1.01,0-.33,.01-.65,.02-.98Z"/>
  <path class="cls-6" d="M205.02,156.01c-1.38-.02-2.66,.79-4.07,.44,.93-1.77,2.84-.62,4.11-1.37-.01,.31-.03,.62-.04,.93Z"/>
  <path class="cls-6" d="M176.5,195c0,.34,0,.67,.01,1.01-.17,.17-.33,.33-.5,.5-.34,.17-.67,.33-1.01,.5,.16-.92,.32-1.84,1.49-2.01Z"/>
  <path class="cls-1" d="M274.54,89.97c.03,2.29-1.9,4.4-4.08,4.46-2.19,.07-4.54-2.18-4.56-4.38-.02-2.03,2.24-4.27,4.34-4.3,2.25-.03,4.27,1.95,4.3,4.22Z"/>
  <path class="cls-12" d="M259,99.5c-3.12,1.37-4.61,4.35-6.61,6.79-2.51,3.06-4.83,6.26-7.21,9.42-.31,.42-.61,.78-1.16,.81-.09-.79,.25-1.38,.71-2.02,3.72-5.17,7.39-10.38,11.08-15.58,1.06-1.49,1.8-2.96,.29-4.63-.22-.24-.08-.8-.11-1.21,1.3,.42,1.8,2.31,3.54,1.92,.58,.3,.96,.77,1.1,1.41-.05,.19-.1,.39-.15,.58-1.14,.21-1.32,1.11-1.45,2.04,0,.16-.01,.32-.02,.48Z"/>
  <path class="cls-5" d="M259.52,94.98c-1.74,.39-2.24-1.5-3.54-1.92-.66-.51-1.32-1.02-1.98-1.52-2.15-1.9-4.28-3.82-6.45-5.7-1.11-.96-.88-1.55,.38-2.08,1.67-.71,3.28-1.6,5.19-1.09-1.16,1.66-3.46,.76-4.98,2.28,2.61,2.18,5.19,4.33,7.76,6.48,1.3,1.09,2.79,1.99,3.62,3.55Z"/>
  <path class="cls-5" d="M256.11,123.65c-.11-3.87-.39-7.75,.36-11.6,.15-.77,.12-1.51,1.15-1.56,.46,.46,.42,1.06,.36,1.62-.36,3.56-1.36,7.06-1.09,10.69,.03,.43-.4,.68-.79,.86Z"/>
  <path class="cls-5" d="M275.47,80.57c.39,1.77,2.44,.22,3.05,1.53-2.43,.54-4.79,.74-6.74-1.27,1.2-.54,2.45-.26,3.69-.26Z"/>
  <path class="cls-5" d="M261.03,80.59c1.01,.19,2.29-.74,2.98,.73-1.91,1.12-3.91,1.55-6.07,.82,.62-1.34,2.67,.2,3.09-1.54Z"/>
  <path class="cls-5" d="M257.61,109.65c-.05-2.19-.66-4.53,1.52-6.18,.47,2.3-.25,4.31-1.52,6.18Z"/>
  <path class="cls-7" d="M261.03,80.59c-.42,1.74-2.47,.2-3.09,1.54-.79-.01-1.57-.03-2.36-.04,.22-1.92,1.88-.74,2.77-1.26,.81-.48,1.77-.35,2.68-.24Z"/>
  <path class="cls-5" d="M259,99.5c0-.16,.01-.32,.02-.48,.54-.19,1.08-.37,1.62-.56,.16,1.64-.18,3.11-1.53,4.2l-.11-3.16Z"/>
  <path class="cls-7" d="M260.64,98.45c-.54,.19-1.08,.37-1.62,.56,.13-.93,.32-1.82,1.45-2.04,.05,.23,.11,.47,.16,.7,0,.26,0,.52,0,.78Z"/>
  <path class="cls-5" d="M254,82.6c.37-.75,.97-.63,1.6-.44-.33,.89-.85,1.06-1.6,.44Z"/>
  <path class="cls-5" d="M260.63,97.67c-.05-.23-.11-.47-.16-.7,.05-.19,.1-.39,.15-.58,1.1,.42,.86,.85,.01,1.28Z"/>
  <path class="cls-10" d="M161.5,215c-2.51,4.13-5.41,8-8.19,11.95-1.03,1.45-2.56,2.62-2.8,4.56-.22,.44-.49,.82-1.02,.92-.14-1.21,.41-2.26,.73-3.37,.65-2.28,.24-2.73-2.01-2.19-4.1,.99-7.39,3.57-10.94,5.65-.87,.51-1.68,1.07-2.74,1-2.72,.86-4.22-1.02-6.26-2.29-3.83-2.38-6.52-6.17-10.59-8.15-.78-.38-1.37-.94-1.77-1.69,.3-2.11,2.79-2.76,3.18-4.81,.9-.06,1.54-.38,1.41-1.44,.89-.19,1.59-.56,1.51-1.64,1.03,.02,1.5-.51,1.48-1.52,1.02,.02,1.5-.5,1.5-1.5,1.01,0,1.5-.5,1.5-1.5,1,0,1.49-.51,1.5-1.5,.99-.01,1.47-.53,1.5-1.5,.47-.08,.95-.16,1.42-.25,.09,1.92,.94,3.27,2.73,4.11,1.27,.6,2.45,1.4,3.42,2.46,3.02,3.31,7.23,5.15,10.26,8.54,1.48,1.65,3.96,.74,5.79-.32,1.2-.7,2.24-1.71,3.26-2.68,1.47-1.41,3.09-2.5,5.13-2.85Z"/>
  <path class="cls-12" d="M121.98,261.49c-1.8,2.63-4.12,4.66-7.04,5.96,1.82-2.61,4.09-4.69,7.04-5.96Z"/>
  <path class="cls-12" d="M126.97,257.46c-.74,1.14-1.47,2.3-2.99,2.52,.43-1.51,1.33-2.46,2.99-2.52Z"/>
  <path class="cls-6" d="M134.51,250.02c-.06,.93-.55,1.42-1.48,1.48,.03-.96,.52-1.45,1.48-1.48Z"/>
  <path class="cls-12" d="M123,260.53c0,.32,0,.65-.01,.97-.33,0-.67-.01-1-.02,.04-.64,.37-.96,1.01-.95Z"/>
  <path class="cls-11" d="M183.49,152.02c-.15-.03-.3-.04-.45-.04-.07-.64-.4-.99-1.08-.93l-.9-.6c-.51-1.61-1.89-2.45-3.09-3.44-3.49-2.86-6.2-6.31-8.02-10.45,1.23-.01,3.23,2.27,3.43-.79,.19-2.94,1.85-5.24,2.79-7.81,1.68-4.58,2.15-8.68-1.24-12.6-1.08-1.25-2.06-2.57-3.16-3.8-.67-.75-1.45-1.39-1.28-2.54,1.31,.78,2.24,1.97,3.25,3.06,5.85,6.38,12.29,12.21,20.7,14.6,4.65,1.32,9.5,3.18,14.76,1.93,2.62-.62,2.79-.02,2.34,2.66-.6,3.56-1.08,7.23-1.85,10.65-.81,3.56-.23,7.89-3.55,10.81-.95,.83-1.72,1.33-2.98,1.3-1.55-.03-3.06,.24-3.2,2.29-1.46,.04-2.91,.08-4.37,.12-1.62-1.44-3.67-1.28-5.62-1.49-.3,0-.59,0-.89,0-1.43-1.81-3.61-2.2-5.6-2.93Z"/>
  <path class="cls-4" d="M170.5,109.01c-.17,1.15,.61,1.79,1.28,2.54,1.09,1.23,2.08,2.56,3.16,3.8,3.38,3.93,2.91,8.03,1.24,12.6-.94,2.57-2.6,4.87-2.79,7.81-.2,3.06-2.21,.78-3.43,.79v-.02c.04-1.01-.48-1.49-1.45-1.54,.31-1.41-1.35-1.78-1.55-2.92,.06-1.02-.45-1.52-1.44-1.58-.02-.3-.05-.61-.07-.91,.07-1.03-.44-1.52-1.44-1.59-1.26-2.47-2.4-5.03-3.82-7.41-3.62-6.07-6.61-12.49-10.07-18.64-.81-1.43-1.14-3.35-3.01-4.03-.04-.15-.1-.29-.17-.42,.06-.74-.24-1.24-.97-1.44-.2-.53-.4-1.05-.6-1.58,.18-.15,.36-.31,.54-.46,1.9-.1,1.78,1.8,2.44,2.75,.85,1.24,1.87,1.93,3.09,2.58,1.68-3.9,2.22-7.8,1.06-11.86,.34,.16,.68,.31,1.02,.47l.02,.02c0,.98,.51,1.47,1.48,1.5l.51,.51c.05,2.21,1.79,3.47,3.01,4.91,2.3,2.71,4.06,5.9,6.98,8.09,1.26,1.26,2.54,2.5,3.49,4.02-.05,1.07,.21,1.91,1.49,1.99h0Z"/>
  <path class="cls-11" d="M165.51,102.99c-2.91-2.18-4.68-5.37-6.98-8.09-1.22-1.44-2.96-2.7-3.01-4.91,3,2.77,5.53,5.95,7.82,9.31,.79,1.16,2.43,1.89,2.17,3.69Z"/>
  <path class="cls-4" d="M151.97,86.01c-.57,0-1.24,.07-1.59-.44-1.48-2.17-3.47-4-4.39-6.55,2.8,1.64,4.72,4.03,5.98,6.99Z"/>
  <path class="cls-4" d="M144.48,77.5c-2.08-.91-3.59-2.39-4.48-4.49,2.1,.89,3.61,2.37,4.48,4.49Z"/>
  <path class="cls-11" d="M170.49,109c-1.28-.08-1.54-.92-1.49-1.99,.82,.42,1.47,.97,1.49,1.99Z"/>
  <path class="cls-11" d="M153.52,87.97c-.34-.16-.68-.31-1.02-.47-.16-.5-.33-1-.49-1.5,1.28,.06,1.54,.9,1.51,1.96Z"/>
  <path class="cls-4" d="M145.98,79c-.94-.05-1.43-.55-1.48-1.49,.97,.02,1.47,.51,1.48,1.49Z"/>
  <path class="cls-11" d="M155.01,89.48c-.97-.03-1.48-.51-1.48-1.5,.94,.06,1.42,.56,1.48,1.5Z"/>
  <path class="cls-4" d="M139.99,72.99c-.95-.04-1.45-.53-1.48-1.49,.96,.03,1.46,.53,1.48,1.49Z"/>
  <path class="cls-4" d="M138.49,71.49c-.95-.03-1.45-.52-1.49-1.47,.97,.01,1.46,.51,1.49,1.47Z"/>
  <path class="cls-4" d="M136.98,70c-.93-.04-1.42-.52-1.49-1.45,.98-.01,1.46,.49,1.49,1.45Z"/>
  <path class="cls-12" d="M244.01,116.51c-.25,2.29-2.02,3.73-3.27,5.38-1.25,1.65-1.93,3.9-4.21,4.63-.03-1.33,1.08-2.06,1.76-2.89,1.58-1.92,2.68-4.13,4.16-6.1,.43-.57,.8-1.04,1.56-1.03Z"/>
  <path class="cls-12" d="M236.5,127c-.46,1.3-.87,2.66-2.48,3.02,.42-1.34,.83-2.69,2.48-3.02Z"/>
  <path class="cls-12" d="M231.97,133.48c-.76,.9-.93,2.38-2.47,2.52,.39-1.26,.78-2.53,2.47-2.52Z"/>
  <path class="cls-12" d="M227.99,138c-.13,1.19-.82,1.83-1.97,2.02,.11-1.21,.79-1.86,1.97-2.02Z"/>
  <path class="cls-12" d="M233.99,130.5c-.03,1.02-.69,1.57-1.51,2-.6-1.5,.45-1.75,1.51-2Z"/>
  <path class="cls-10" d="M104.5,134.5c-.95,1.45-2.55,1.85-4,2.5-.34,0-.68-.02-1.03-.03,.48-1.42,.72-2.7-1.52-2.4-1.14,0-2.28,0-3.42-.01-.47-.1-1.19,.04-1.34-.47-1.32-4.28-4.79-7.02-7.37-10.39-1.93-2.51-3.46-5.2-4.67-8.16-.82-2.02-2.6-3.64-3-5.9-.2-1.11-.81-2.64,1.34-2.65,0,.33,0,.66,0,1,.01,4.63,.38,5.08,4.89,4.99,3.02-.06,5.87,.78,8.77,1.35,1.6,.31,2.19,1.26,2.41,2.94,.44,3.38,.4,6.76,.44,10.14,.02,1.8,.8,3.37,1.68,4.88,.95,1.63,2.58,1.47,3.98,1.02,1.45-.46,2.2,.06,2.83,1.19Z"/>
  <path class="cls-10" d="M70.52,75.42c1.31,.02,2.62,.05,3.93,.04,.86,0,1.64,.1,2.07,.98-.22,.45-.45,.89-.65,1.35-1.36,3.16-.91,4.25,2.15,5.98,2.46,1.39,5.26,2,7.66,3.53,1.45,.93,2.06,2.01,1.57,3.73-.99,3.5-1.9,7.03-2.84,10.54-.15,.56-.34,1.11-.39,1.68-.32,3.46-.53,3.67-4.04,3.71,1.32-1.49,.97-2.69-.54-3.82-.57-.43-.97-1.09-1.45-1.65-.05-3.43,.82-6.7,1.74-9.95,1.36-4.79,.91-5.78-3.67-7.76-.45-.2-.93-.34-1.39-.51-3.18-1.2-5.7-2.79-4.17-6.87,.11-.29,.03-.66,.04-.99Z"/>
  <path class="cls-5" d="M181.06,150.44l.9,.6c0,.32,0,.63,0,.95-1.49,.55-2.14,2.01-3.18,3.03-1.59,1.55-3.52,2.23-5.58,2.38-1.9,.14-2.76-1.49-2.62-2.98,.33-3.5-2.04-5.47-3.85-7.77-.86-1.09-2.13-.77-3.23-.38-1.72,.61-3.37,1.43-5.1,1.98-1.79,.57-3.59,.44-4.48-1.52-.83-1.83,.33-3.11,1.63-4.24,.12-.11,.29-.17,.42-.27,3.21-2.54,3.44-3.48,1.59-7.07-.61-1.18-1.3-2.32-1.99-3.45-.58-.95-1.48-1.28-2.57-1.11-4.35,.65-8.72,1.02-13.12,.93-1.37-.03-2.6,.09-3.07-1.73-.44-1.73,.83-2.46,1.74-2.9,3.06-1.5,5.95-3.41,9.43-3.99,1.62-.27,2.51-1.3,1.67-3.1-.81-1.72-1.58-3.45-2.39-5.17-.96-2.04-3.02-2.07-4.7-2.03-4.09,.09-8.12-.62-12.18-.55-1.5,.03-2.41-.52-2.77-1.92-.41-1.57,.63-2.33,1.85-2.81,2.34-.92,4.79-1.26,7.3-1.3,1.59-.03,3.48,.11,3.66-2.02,.18-2.1-1.13-2.86-3.27-3.08-1.81-.19-3.56-1.2-5.27-1.97-3.02-1.36-6.03-2.71-9.27-3.51-2.22-.55-3.85-2.72-3.43-4.2,.87-3.05,2.75-3.98,5.85-3.17,2.31,.61,4.69,.94,7.04,1.38,.94,.18,1.7-.3,1.38-1.17-1.37-3.64-2.31-7.53-5.44-10.24-1.51-1.27-2.02-3.18-2.96-4.79-2.21-3.8-5.05-7.13-7.54-10.72,.19-.46,.53-.79,.98-.98,.36-.01,.72-.03,1.07-.04-.02,.16-.02,.33-.02,.49,.43,1.56,1.44,2.56,2.99,3h0c.44,1.56,1.45,2.55,2.99,3.01,.17,0,.33,0,.5-.02,.47,1.24,1.6,1.9,2.46,2.8,.15,3.08,2.4,4.6,4.56,6.2,.03,.14,.07,.28,.12,.42-.25,.88,.43,1.31,.85,1.9,1.22,1.7,2.72,3.22,3.51,5.22-1.05,.39-1.72-.83-2.91-.75,.47,1.95,1.58,3.57,1.37,5.56-.46,4.34,.12,8.33,4.09,11.1,2.39,1.67,3.72,4.02,3.41,7.01-.26,2.5,1.1,3.83,3.06,4.87,4.93,2.63,6.29,5.53,5.15,10.89-.41,1.91,.88,4.78,2.43,5.43,3.73,1.57,6.37,1.2,7.92-1.11,2.11,2.83,3.79,5.93,5.49,9.01-3.14-.81-5.79,1.16-4.91,3.81,.46,1.4,1.04,3.42,2.76,3.46,1.88,.05,4.23,.15,5.17-2.33,.33,.06,.86,.02,.95,.2,1.19,2.35,3.34,3.87,5.04,5.76,1.2,1.33,2.31,3.11,4.53,3.05Z"/>
  <path class="cls-6" d="M137.52,84.48c-.79-1.99-2.28-3.52-3.51-5.22-.42-.59-1.1-1.02-.85-1.9,.75,.42,1.51,.83,2.26,1.25,.09,1.08,1.16,1.52,1.56,2.39,0,.66,.34,.99,.99,1.04,.66,.99,1.32,1.98,1.98,2.97,.03,.95,.59,1.42,1.45,1.63l.07,.86c.01,.96,.61,1.39,1.44,1.61-.02,.13-.01,.27,.03,.39,.03,.95,.59,1.43,1.46,1.62,.02,.29,.03,.58,.05,.88,.03,.95,.61,1.41,1.45,1.63-.02,.13-.02,.25,0,.38-.18,.15-.36,.31-.54,.46-1.17,.19-1.45-.72-1.85-1.49-.05-.94-.58-1.42-1.48-1.56-.51-.81-1.02-1.63-1.53-2.44-.49-1.84-1.47-3.36-3-4.51h0Z"/>
  <path class="cls-6" d="M133.04,76.94c-2.16-1.59-4.41-3.12-4.56-6.2,.16-.06,.32-.12,.48-.18,.89,.63,1.76,1.28,1.97,2.46,.04,.63,.39,.97,.99,1.09,.19,.3,.37,.6,.56,.89,.19,.64,.37,1.29,.56,1.93Z"/>
  <path class="cls-4" d="M119.56,61.47c-.36,.01-.72,.03-1.07,.04-.54-1.38-2.21-1.91-2.56-3.43l.11-.11c1.61,.73,3.45,1.23,3.53,3.5Z"/>
  <path class="cls-6" d="M122.53,64.96c-1.55-.45-2.56-1.44-2.99-3,1.64,.36,2.66,1.34,2.99,3Z"/>
  <path class="cls-4" d="M133.04,76.94c-.19-.64-.37-1.29-.56-1.93,1.25,.98,2.67,1.83,2.94,3.61-.75-.42-1.51-.83-2.26-1.25-.04-.14-.08-.28-.12-.42Z"/>
  <path class="cls-6" d="M125.52,67.97c-1.54-.46-2.55-1.45-2.99-3,1.65,.35,2.66,1.33,2.99,3Z"/>
  <path class="cls-4" d="M128.97,70.57c-.16,.06-.32,.12-.48,.18-.86-.9-1.99-1.56-2.46-2.8,2.01-.28,2.46,1.19,2.95,2.62Z"/>
  <path class="cls-4" d="M142.92,89.13c-.83-.22-1.43-.66-1.44-1.61,1.03,.05,1.55,.55,1.44,1.61Z"/>
  <path class="cls-4" d="M141.41,86.65c-.87-.2-1.42-.68-1.45-1.63,1.06,.03,1.58,.54,1.45,1.63Z"/>
  <path class="cls-4" d="M144.41,91.14c-.87-.2-1.43-.67-1.46-1.62,1.05,.03,1.58,.54,1.46,1.62Z"/>
  <path class="cls-4" d="M145.91,93.65c-.84-.22-1.42-.68-1.45-1.63,1.05,.04,1.58,.54,1.45,1.63Z"/>
  <path class="cls-4" d="M131.92,74.12c-.6-.12-.95-.46-.99-1.09,.75-.02,1.08,.34,.99,1.09Z"/>
  <path class="cls-4" d="M137.98,82.05c-.65-.04-.99-.38-.99-1.04,.69,0,1.01,.35,.99,1.04Z"/>
  <path class="cls-7" d="M115.92,58.08c.35,1.52,2.02,2.05,2.56,3.43-.46,.2-.79,.52-.98,.98-2.3-.95-3.44-2.79-3.97-5.11,.8,.23,1.59,.46,2.39,.7Z"/>
  <path class="cls-4" d="M62.02,127.48c-.02-.14-.04-.28-.04-.43-1.24-3.99-.72-8.18-1.41-12.25-.36-2.11-.88-3.99-2.46-5.52-.64-.62-1.12-1.45-1.5-2.26-1.13-2.4-.77-2.91,1.97-3.06,.65,.04,1.5-.17,1.91,.16,1.96,1.61,4.27,1.31,6.52,1.45,0,.47,.01,.94,.02,1.41-.91,2.51-.07,4.88,2.41,5.49,3.88,.96,5.04,3.15,5.25,7.1,.26,4.98-.03,10.12,1.84,14.93-3.4,.2-6.3-1.27-9.06-2.96-.81-.5-1.74-.86-2.45-1.53-.04-1.3-.89-1.57-1.97-1.54h0c-.03-.64-.37-.97-1-1Z"/>
  <path class="cls-3" d="M67.01,106.98c0-.47-.01-.94-.02-1.41,1.11-.05,2.13,.09,2.57,1.33-.85,.03-1.7,.05-2.56,.08Z"/>
  <path class="cls-3" d="M77.49,106.09c-.29,1.27-1.25,.82-2.04,.79,.34-1.14,1.24-.84,2.04-.79Z"/>
  <path class="cls-3" d="M74.95,104.61c.43-.09,.79-.03,1.02,.39-.67,.73-.84,.16-1.02-.39Z"/>
  <path class="cls-9" d="M70.52,75.42c0,.33,.07,.7-.04,.99-1.53,4.07,.99,5.67,4.17,6.87,.46,.17,.94,.32,1.39,.51,4.58,1.99,5.04,2.97,3.67,7.76-.92,3.26-1.79,6.53-1.74,9.95-3.94-3.23-6.81-7.18-8.8-11.93-1.83-4.36-3.28-8.71-3.18-13.47,.02-.86-.3-1.91,1.02-2.17,1.23,.35,3.05-.71,3.5,1.48Z"/>
  <path class="cls-10" d="M92.04,138.03c.59,.36,1.24,.45,1.92,.43,1.35,4.46,1.48,4.57,5.99,4.55,.99,0,1.95-.14,2.94-.35,5.47-1.15,7-.2,8.48,5.13,.15,.56,.2,1.15,.4,1.68,1.28,3.59,1.4,7.7,4.66,10.44,.38,.32,.4,1.05,.58,1.6-.81-.04-1.58,.05-2.3-.64-3.54-3.42-8.23-5.08-12.2-7.86-1.16-1-2.33-2.01-3.49-3.01,0-2.09-1.72-2.87-3-3.99h0c-.27-1.39-1.11-2.22-2.49-2.5h-.01c.26-1.9-1.94-3.04-1.52-4.98,.03-.16,.04-.33,.02-.49h.04Z"/>
  <path class="cls-9" d="M102.5,153c3.96,2.78,8.66,4.44,12.2,7.86,.72,.69,1.48,.61,2.3,.64,.17,.5,.33,1,.5,1.49-.78,.37-1.23,1.03-1.65,1.75-.3,.51-.72,.97-1.33,.28,.62-1.17,.37-1.93-1.04-2.01-.99-.06-1.98-.06-2.97,0-1.46,.07-2.74-.78-2.81-1.94-.17-2.78-2.14-4.15-3.75-5.87-.61-.65-1.46-1.14-1.46-2.2Z"/>
  <path class="cls-10" d="M114.52,165.03c.61,.69,1.02,.23,1.33-.28,.42-.72,.87-1.38,1.65-1.75,.05,5.4,1.67,6.77,6.51,5.5-1.88,2.13-4.48,2.24-7.02,2.51-1.04-.72-1.68-1.83-2.94-2.45-1.34-.65-1.09-2.21-.47-3.49,.31-.02,.63-.03,.94-.05Z"/>
  <path class="cls-9" d="M91.98,138.52c-.43,1.94,1.78,3.08,1.52,4.97-1.79-1.22-3.22-2.58-1.99-5,.16,0,.31,.01,.47,.03Z"/>
  <path class="cls-9" d="M96,146c1.28,1.12,3.01,1.9,3,3.99-1.53-.93-2.87-2.01-3-3.99Z"/>
  <path class="cls-9" d="M93.51,143.5c1.39,.28,2.22,1.1,2.49,2.5-1.39-.27-2.23-1.1-2.49-2.5Z"/>
  <path class="cls-3" d="M84.92,139.89c.2-.54,.37-1.15,1.07-.42-.23,.47-.62,.52-1.07,.42Z"/>
  <path class="cls-3" d="M91.98,138.52c-.16-.02-.31-.03-.47-.03,.16-.15,.33-.31,.49-.46,.02,.17,.01,.33-.02,.49Z"/>
  <path class="cls-3" d="M63.02,128.48c1.08-.03,1.93,.24,1.97,1.54-.98-.1-1.56-.71-1.97-1.54Z"/>
  <path class="cls-3" d="M62.02,127.48c.63,.03,.96,.36,1,.99-.32-.01-.63-.03-.95-.04-.02-.32-.03-.64-.05-.95Z"/>
  <path class="cls-8" d="M124,168.5c-4.84,1.26-6.46-.1-6.51-5.5-.17-.5-.33-1-.5-1.49-.19-.54-.21-1.28-.58-1.6-3.26-2.74-3.37-6.84-4.66-10.44-.19-.54-.24-1.13-.4-1.68-1.48-5.33-3-6.28-8.48-5.13-.99,.21-1.94,.34-2.94,.35-4.5,.02-4.64-.08-5.99-4.55v-.05c1.12,0,2.01-.41,2.54-1.45,.48-.02,.96-.05,1.44-.07,.51,.03,1.03,.06,1.54,.09,.34,0,.68,.02,1.03,.03,1.14,4,1.16,3.77,5.26,4.07,3.15,.23,6.01-1.07,9.08-1.1,2.35-.03,3.7,.86,4.31,3.19,1.02,3.91,2.21,7.77,3.34,11.65,.45,1.53,.52,3.08,.53,4.67,.05,4.87,2.5,6.78,6.98,5.52-.12,1.14-1.07,1.24-1.88,1.54-.96,.36-2.05,.61-2.12,1.95-.66,0-1.33,0-1.99,0Z"/>
  <path class="cls-11" d="M99.47,136.98c-.51-.03-1.03-.06-1.54-.09,.34-.77,.3-1.54,.02-2.31,2.23-.29,2,.98,1.52,2.4Z"/>
  <path class="cls-11" d="M96.5,136.95c-.53,1.04-1.42,1.44-2.54,1.45,.5-1.08,.83-2.48,2.54-1.45Z"/>
  <path class="cls-10" d="M126,168.49c.07-1.34,1.16-1.6,2.12-1.95,.81-.3,1.76-.4,1.88-1.54,.67-.17,1.33-.34,2-.5,4.06,.4,5.48,3.65,7.04,6.65,1.74,3.33,4.22,6.25,5.45,9.85-1.83,0-3.67,0-5.5,0-.02-.66-.36-.99-1.01-.98-.32,0-.65,0-.97,0-1.21-.49-2.06-1.31-2.7-2.48-1.17-2.16-2.54-4.2-3.7-6.37-1.01-1.89-2.25-3.19-4.61-2.68Z"/>
  <path class="cls-9" d="M126,168.49c2.36-.51,3.59,.79,4.61,2.68,1.16,2.16,2.53,4.21,3.7,6.37,.64,1.17,1.49,1.99,2.7,2.48-2.22,.81-4.44-.12-6.36-.72-4.88-1.51-9.24-4.25-13.26-7.43-.22-.18-.28-.57-.41-.86,2.54-.27,5.15-.38,7.02-2.51,.66,0,1.33,0,1.99,0Z"/>
  <path class="cls-9" d="M137.98,180.02c.66,0,1,.32,1.01,.98-.65,0-.98-.34-1.01-.98Z"/>
  <path class="cls-6" d="M183.49,152.02c2,.73,4.17,1.12,5.6,2.93-2.13-.48-4.33-.81-5.6-2.93Z"/>
  <path class="cls-6" d="M189.98,154.95c1.95,.22,3.99,.05,5.62,1.49-2.01,.03-4.13,.45-5.62-1.49Z"/>
  <path class="cls-6" d="M181.97,152c0-.32,0-.63,0-.95,.68-.06,1.01,.29,1.08,.93-.36,0-.72,.01-1.07,.02Z"/>
  <path class="cls-6" d="M167.52,136.49c-1.7-3.08-3.38-6.18-5.49-9.01-1.17-2.33-2.35-4.66-3.52-6.98-.04-.95-.57-1.43-1.48-1.55-.01-.48-.03-.96-.04-1.45-.02-.95-.55-1.43-1.46-1.55,0-.32,0-.64-.01-.96,.04-1.4-.92-2.36-1.51-3.49-1.95-2.33-3.08-5.13-4.3-7.84-.86-1.91-2.45-3.51-2.6-5.75,1.88,.68,2.21,2.59,3.01,4.03,3.46,6.15,6.44,12.57,10.07,18.64,1.42,2.38,2.55,4.93,3.82,7.41,0,.96,.57,1.41,1.44,1.59,.02,.3,.05,.61,.07,.91,0,.97,.55,1.42,1.44,1.58,.2,1.14,1.86,1.51,1.55,2.92,.03,.95,.53,1.45,1.47,1.54v.02c1.81,4.14,4.53,7.59,8.01,10.45,1.2,.99,2.58,1.83,3.09,3.44-2.22,.06-3.33-1.72-4.53-3.05-1.7-1.89-3.85-3.41-5.04-5.76-.09-.18-.62-.14-.95-.2-.12-1.18-.97-1.99-1.54-2.94-.03-.95-.57-1.43-1.47-1.57,0-.15,0-.29-.02-.44Z"/>
  <path class="cls-14" d="M158.51,120.5c1.17,2.33,2.35,4.66,3.52,6.98-1.55,2.31-4.18,2.68-7.92,1.11-1.55-.65-2.83-3.52-2.43-5.43,1.14-5.36-.22-8.26-5.15-10.89-1.96-1.05-3.32-2.38-3.06-4.87,.31-2.99-1.01-5.34-3.41-7.01-3.97-2.78-4.55-6.76-4.09-11.1,.21-1.99-.9-3.61-1.37-5.56,1.19-.08,1.86,1.14,2.91,.75h0c-.31,2.38,.99,3.68,3,4.51,.51,.81,1.02,1.63,1.53,2.44-.03,1.02,.49,1.51,1.48,1.56,.39,.77,.68,1.68,1.85,1.49,.2,.53,.4,1.05,.6,1.58-.64,1.13-.16,1.51,.97,1.44,.07,.14,.13,.28,.17,.42,.15,2.23,1.73,3.83,2.6,5.75,1.22,2.71,2.35,5.51,4.3,7.84,.26,1.27-.8,3.11,1.51,3.49,0,.32,0,.64,.01,.96-.16,1.13,.32,1.65,1.46,1.55,.01,.48,.03,.96,.04,1.45-.02,1.01,.5,1.5,1.48,1.55Z"/>
  <path class="cls-11" d="M169.96,136.54c-.93-.09-1.44-.58-1.47-1.54,.97,.05,1.5,.53,1.47,1.54Z"/>
  <path class="cls-11" d="M165.44,129.59c-.86-.18-1.43-.63-1.44-1.59,.99,.06,1.51,.56,1.44,1.59Z"/>
  <path class="cls-11" d="M166.95,132.08c-.88-.16-1.44-.61-1.44-1.58,.99,.07,1.5,.56,1.44,1.58Z"/>
  <path class="cls-5" d="M146.94,97.5c-1.13,.07-1.61-.31-.97-1.44,.74,.2,1.04,.7,.97,1.44Z"/>
  <path class="cls-14" d="M169.01,138.5c.56,.95,1.41,1.76,1.54,2.94-.94,2.48-3.29,2.37-5.17,2.33-1.72-.04-2.3-2.06-2.76-3.46-.88-2.65,1.77-4.62,4.91-3.81,.01,.15,.02,.29,.02,.44-.04,1.02,.48,1.51,1.47,1.57Z"/>
  <path class="cls-5" d="M140.51,89c-2.01-.83-3.31-2.14-3-4.51,1.53,1.15,2.51,2.67,3,4.51Z"/>
  <path class="cls-5" d="M143.52,92.99c-.99-.05-1.51-.54-1.48-1.56,.9,.14,1.43,.62,1.48,1.56Z"/>
  <path class="cls-5" d="M155.51,115c-2.31-.38-1.26-2.22-1.51-3.49,.59,1.12,1.55,2.09,1.51,3.49Z"/>
  <path class="cls-5" d="M156.99,117.5c-1.14,.1-1.62-.42-1.46-1.55,.91,.12,1.44,.59,1.46,1.55Z"/>
  <path class="cls-5" d="M158.51,120.5c-.98-.05-1.5-.54-1.48-1.55,.91,.12,1.44,.6,1.48,1.55Z"/>
  <path class="cls-5" d="M169.01,138.5c-.98-.06-1.51-.55-1.47-1.57,.9,.14,1.44,.61,1.47,1.57Z"/>
</svg>