<?xml version="1.0" encoding="UTF-8"?>
<svg id="Layer_1" data-name="Layer 1" xmlns="http://www.w3.org/2000/svg" viewBox="0 0 295 294">
  <defs>
    <style>
      .cls-1 {
        fill: #eec6b4;
      }

      .cls-2 {
        fill: #944e47;
      }

      .cls-3 {
        fill: #b6a18b;
      }

      .cls-4 {
        fill: #c29a7b;
      }

      .cls-5 {
        fill: #bab7b4;
      }

      .cls-6 {
        fill: #c09685;
      }

      .cls-7 {
        fill: #ccc0bf;
      }

      .cls-8 {
        fill: #d79662;
      }

      .cls-9 {
        fill: #222121;
      }

      .cls-10 {
        fill: #1c1b1b;
      }

      .cls-11 {
        fill: #971d19;
      }

      .cls-12 {
        fill: #393838;
      }

      .cls-13 {
        fill: #78170d;
      }

      .cls-14 {
        fill: #4d4d4d;
      }
    </style>
  </defs>
  <path class="cls-11" d="M58.8,149.31c.14-.1,.22-.24,.24-.4,1.89-.64,2.52-2.81,4.34-3.54,.74,.97,1.67,.75,2.43,.19,4.08-2.99,8.83-2.86,13.53-3.07,6.81-.31,13.52,.22,20.09,2.2,2.52,.76,5.25,.68,7.7,1.86,5.41,2.6,10.96,4.91,15.94,8.32,2.79,1.91,6.42,2.58,8.63,5.19,3.95,4.67,9.01,8.34,12.23,13.64,1.03,1.7,1.88,3.56,3.15,5.06,3.94,4.65,5.02,10.51,6.81,16.01,1.03,3.16,.67,6.67,.88,10.03,.42,6.74-.9,12.97-4.19,18.81-.48,.86-.95,1.59-.07,2.43-1.17,.63-2.33,1.28-2.45,2.82-.05,.6-.27,1.09-.67,1.55-1.77,2.04-3.43,4.17-5.26,6.15-3.2,3.45-6.57,6.71-11.08,8.45-1.43-.61-2.42,1.21-3.98,.58-3.06-1.24-6.18-2.74-8.61-4.66-7.12-5.64-14.1-11.64-17.32-20.65-.93-2.59-2.93-4.81-3.47-7.38-1.31-6.27-2.88-12.52-3.18-18.97,.35-.68,.65-1.36,.24-2.12,1.13-1.94,.79-4.3,1.77-6.29,1.2-.52,1.92-1.21,.91-2.53,.18-1,.36-2,.54-3,.5-.17,.83-.53,1.04-1,1.01-.06,1.48-.64,1.48-1.62,0-2.73,0-5.46,0-8.19,0-1.3-.75-1.73-1.94-1.65-.21-.7-.35-1.44-.64-2.1-1-2.28-2.32-4.62-4.45-5.7-3.81-1.93-7.57-4.15-11.92-4.78-1.67-1.98-7.83-2.08-9.44-.15-.05,.05-.03,.16-.04,.24-2.62,.79-4.33,2.47-5.14,5.12-.53,1.74-1.24,3.42-1.86,5.13-.36,.98-.81,1.84-2.03,1.86-3.7-1.39-7.41-2.78-11.11-4.17,.01-1.17,.44-2.19,.84-3.29,1.41-3.84,4.3-6.77,6.08-10.37Z"/>
  <path class="cls-13" d="M150.52,226.04c-.88-.84-.41-1.57,.07-2.43,3.29-5.84,4.62-12.07,4.19-18.81-.21-3.36,.15-6.87-.88-10.03-1.79-5.5-2.87-11.36-6.81-16.01-1.27-1.5-2.12-3.36-3.15-5.06-3.23-5.3-8.28-8.97-12.23-13.64-2.21-2.61-5.85-3.28-8.63-5.19-4.98-3.41-10.54-5.72-15.94-8.32-2.44-1.17-5.18-1.1-7.7-1.86-6.57-1.98-13.28-2.51-20.09-2.2-4.7,.21-9.45,.08-13.53,3.07-.76,.56-1.7,.78-2.43-.19,.05-.44,.1-.87,.15-1.31,.16,.02,.32,.04,.48,.06,3.23-.44,5.66-2.22,7.73-4.6,1.49,.88,2.84-.1,4.25-.31,.66,.48,.98,.03,1.29-.46,.45-.05,.97,.05,1.25-.47,.51-.06,1.02-.12,1.53-.18,4.46,.01,8.92,.02,13.38,.04,.47,.07,.94,.13,1.41,.2,1.93,1.14,4.06,1.36,6.24,1.33,.29,.04,.57,.09,.86,.13,1.18,.46,2.29,1.17,3.65,.93,.78,.3,1.56,.61,2.41,.3,.09,.12,.21,.19,.36,.22,1.24,1.5,2.9,1.8,4.72,1.62,.16,.07,.32,.07,.48,.01,0,0-.19,.07-.19,.07l.02,.2c.15,.66,.53,.9,1.18,.66,.32,.17,.65,.26,.98,.02,.47,.17,.94,.34,1.41,.51,.4,.95,1.1,1.3,2.1,1.01,.3,.12,.59,.24,.89,.36,.49,1.53,1.47,1.15,2.49,.64,.18,.04,.36,.09,.53,.13,.44,1.6,1.68,1.68,3.01,1.58,.58,1.97,2.08,2.74,3.95,3.04,.3,2.06,1.88,2.8,3.56,3.43,.27,.22,.55,.45,.82,.67,.26,.7,.78,.98,1.49,.95l.11-.05c.67,.99,1.4,1.93,2.67,2.2l.14,.13c.07,.94,.65,1.33,1.52,1.41l-.02,.21c-.11,.99,.08,1.63,1.27,1.04,.41,0,.82-.02,1.23-.02,.24,.05,.47,.1,.71,.15,0,0,.06,.18,.06,.18-.35,.12-.87,.13-.78,.66,.03,.18,.46,.3,.71,.44,.05,.65,.4,1.01,1.06,1.05,.38,1.72,2.24,2.5,2.65,4.2,0,.35,.01,.69,.02,1.04-.17,.76,.09,1.19,.92,1.14v.02c.22,2.01,.65,3.86,2.95,4.51,1.49,2.06,2.72,4.25,3.57,6.65,.41,1.15,1.08,2.03,2.41,2.15,.03,.94-.72,2.04,.54,2.75-.03,1.71,.4,3.34,.91,4.95-.09,.52-.79,1.06,.05,1.55,0,.33,0,.66,.01,.98-.71,.48-.38,.81,.17,1.1,.42,1.87,.27,3.75,.16,5.63-.39,.69-.39,1.37,0,2.06-.04,.9-.08,1.8-.12,2.7-.49,.16-.94,.44-1.04,.95-.4,1.99-.77,3.98-1.12,5.98-.09,.53,.1,.97,.69,1.11-.04,.19-.07,.38-.11,.56-.85-.09-1.23,.49-1.41,1.14-1.11,4.06-2.94,7.78-5.21,11.31Z"/>
  <path class="cls-4" d="M147.15,168.78c0-.35-.01-.69-.02-1.04,1.6-.94,2.58-2.49,3.79-3.81,.55-.6,.69-1.14,.03-1.65-1.35-1.04-2.16-2.67-3.79-3.39l-.09-.05c-.06-.31-.23-.44-.54-.35-1.56,.31-2.14,1.73-3.1,2.72-.24-.05-.47-.1-.71-.15,.02-1.98,2.25-2.5,2.77-4.09,.85-2.6,2.92-3.82,5.16-4.91,.33-.03,.66-.06,.99-.09,.22,.72-.29,1.67,.67,2.16,.49,1.46,2.09,1.8,2.94,2.91,.8,1.04,1.38,.78,2.34-.09,1.43-1.31,2.36-3.18,4.27-3.98-.02,.32,.1,.77-.07,.95-2.05,2.15-3.99,4.36-5.36,7.07-.56,1.12-1.7,2.23-2.84,2.7-1.74,.72-2.68,2.17-3.98,3.29-.73,.63-.93,1.45-.38,2.23,2.81,4.02,5.12,8.34,7.37,12.78,.89-.85,1.5-1.53,2.21-2.09,1.9-1.49,3.47-3.68,6.38-3.13-.05,.25-.1,.5-.15,.75-.75,.86-.99,1.6,.44,1.97,.18,.18,.36,.36,.55,.54,.04,1.3,1.21,1.91,1.79,2.88,.55,.92,1.46,.78,2.35,.12,4.18-3.11,8.39-6.17,12.59-9.24,.94-.69,1.54-1.5,1.21-2.74,.79-.07,1.49-.49,2.4-.21,1.13,.34,2.1-.44,1.9-1.58-.4-2.29-2.94-3.32-3.64-5.54-.1-.32-.79-.21-1.11,.1-.96,.94-2.01,1.83-.74,3.33,.93,1.1,1.52,2.37,1.18,3.89-.79-.13-.79-.99-1.24-1.37-1.24-1.08-1.27-3.58-3.72-3.25,.95-3.31,3.65-4.41,6.58-5.24,.13,.44-.15,1.01,.43,1.29-.41,1.67,1.44,1.66,1.96,2.65,.19,.45,.38,.9,.57,1.34,0,.99,.36,1.61,1.48,1.43,.33,.04,.66,.09,.98,.13-.03,.36-.07,.72-.1,1.09-.68,2.57-2.83,3.78-4.96,4.51-2.27,.78-4.11,2.07-5.96,3.43-2.84,2.09-5.64,4.24-8.47,6.35-.93,.7-1.74,1.46-2.46,2.41-1.89,2.48-4.41,3.94-7.61,4.02,.03-.16,0-.39,.09-.46,1.67-1.29,1.28-2.56-.03-3.79-1.1-1.03-1.03-3.11-2.99-3.32-.23-.02-.5,.35-.75,.53-.25,.15-.51,.3-.76,.46-1.34-.12-2-1-2.41-2.15-.85-2.4-2.09-4.59-3.57-6.65-.76-1.65-1.42-3.36-2.94-4.51,0,0-.01-.02-.01-.02-.09-.55-.45-.89-.92-1.14Z"/>
  <path class="cls-3" d="M96.38,66.98c-.04,.47-.09,.94-.13,1.42-1.08,.78-1.62,1.85-1.69,3.16-1.19,3.77-1.66,7.74-3.29,11.39-.49,1.11-.63,2.4-.8,3.62-.14,1.04,.58,1.46,1.52,1.58,1.24,.16,1.85,1.12,1.68,2.1-.34,2.04-1.17,3.98-2.24,5.76-.6,.99-1.41,.73-2.35,.18-1.39-.81-2.19-.3-2.69,1.33-1.59,5.17-3,10.41-5.14,15.39-.43,.99-.54,1.81,.47,2.64,2.22,1.81,2.21,2.56,.44,6.22-.91,1.89-2.32,2.22-4.14,1.52-.03-.01-.12,.11-.18,.16-.28,.03-.57,.06-.85,.09-.15-.5-.29-1.01-.44-1.51,.17,0,.34-.05,.5-.02,2.31,.54,3.3-1.18,4.22-2.69,1.11-1.82-1.16-1.72-1.71-2.62-.25-.41-.37-.89-.55-1.35,.47-.67,.85-1.36,1.14-2.16,1.38-3.86,2.24-7.87,3.56-11.75,.77-2.26,2.65-4.26,2.1-6.93,.03-.29,.07-.58,.1-.86,.82-.13,1.62-.15,2.46,.03,2.2,.49,3.47-.48,3.12-2.69-.51-3.16-3.5-2.93-5.72-3.52-2.42-.64-3.76,.74-3.79,3.19-.03,1.94,1.99,1.79,2.6,3-.01,.26-.03,.53-.04,.79-2.38,4.25-4.16,8.75-5.57,13.41-.55,.19-.92,.51-.8,1.15-.13,1.91-2.19,3.25-1.55,5.38-.25,.02-.5,.02-.74,.07-1.25,.22-2.77-.6-3.42,1.51-.64,2.06-.06,3.15,1.77,3.89,.64,.26,.85,.74,.76,1.39-1.74-.04-2.36,1.14-2.9,2.52-.92,2.35-1.45,4.88-3.18,6.86-1-2.65,1.29-4.45,1.9-6.67,.37-1.37,1.14-2.37-.22-3.42-1.19-.92-1.16-1.74-.52-3.12,1.04-2.24,1.06-4.98,4.75-4.95,1.31,.01,1.67-2.27,2.22-3.55,1.83-4.28,3.35-8.7,5.16-12.99,.5-1.18,.51-1.86-.58-2.44-2.08-1.1-1.79-3.07-1.14-4.54,.72-1.64,.79-4.44,3.94-3.79,3.63,.75,3.12-2.77,4.03-4.41,1.45-2.59,2.19-5.59,3.6-8.26,1.4-1.61,1.8-3.72,2.76-5.55,.21-.41,.07-1.14,.66-1.19,.78-.07,.4,.97,.94,1.22Zm-6.3,13.17c-1.22,2.11-1.9,3.94-2.31,5.88-.08,.38,.12,.65,.47,.72,.19,.03,.56-.09,.59-.21,.5-1.94,2.13-3.64,1.25-6.39Zm1.03,.14c.37-1.21,.75-1.94-.2-2.69-.45,.83-.62,1.51,.2,2.69Z"/>
  <path class="cls-6" d="M63,167.15c1.23-.02,1.68-.88,2.03-1.86,.62-1.71,1.33-3.39,1.86-5.13,.81-2.65,2.52-4.33,5.14-5.12,3.16-.37,6.32-.88,9.49-.09,4.36,.63,8.12,2.85,11.92,4.78,2.14,1.08,3.46,3.42,4.45,5.7,.29,.67,.43,1.4,.64,2.1,.16,.65,.6,1.26,.34,1.98-.64,2.16-.63,4.32-.03,6.49-.02,.29-.05,.58-.07,.87-1.35,.76-.62,2.06-.83,3.12-.18,1-.36,2-.54,3-.73,.69-.97,1.56-.91,2.53-.97,1.99-.64,4.34-1.77,6.29-.85,.5-1.23,1.25-1.21,2.22l-.29,1.31c-.87,.49-1.22,1.25-1.15,2.23-.06,.31-.13,.62-.19,.93-.65,.67-1.01,1.46-1,2.41-.24,.8-.49,1.61-.73,2.41-.47,.19-.74,.51-.71,1.04-.18,.71-.36,1.41-.54,2.12-.41,.35-.81,.7-1.22,1.05-.34-.29-.23-.67-.19-1.03,.68-.5,.98-1.18,.97-2,.39-3.74,2.51-6.89,3.58-10.42,1.16-3.82,2.5-7.61,3.81-11.37,1.25-3.59,1.15-7.14,1.36-10.76,.34-5.98-2.43-9.9-7.63-12.42-3.63-1.76-7.25-3.53-11.39-3.71-7.23-.31-9.68,2.63-11.68,8.89-1,3.14-2.68,6.01-3.41,9.29-.26,1.19-1.05,2.64-2.75,2.94-1.3,.23-.96,1.41-1,2.24-.11,2.31-.08,4.54-1.18,6.78-.77,1.55-1.57,2.42-3.22,2.56-.33,0-.55,.53-.94,.18-.1-.71,.33-1.69-.93-1.79-.35-.06-.7-.12-1.05-.18-1.34-1.05-2.71-1.95-4.41-.7l-.52-.07c-.73-2.47-.38-4.8,.74-7.12,.58-1.2,2.09-1.72,2.16-3.22,.2-.7,.4-1.41,.6-2.11,.17-.34,.33-.68,.5-1.02,.59,.03,1.23-.04,1.38,.77-1.06,1.07-2.01,2.27-1.93,3.81,.08,1.67,1.93,1.16,2.8,1.91,.3,.26,.57,.56,.86,.84-.92,.23-1.79,.26-2.59-.41-.7-.6-1.42-.41-1.98,.22-.68,.77-1.85,1.25-1.52,2.63,.34,1.41,1.09,2.08,2.62,2.48,6.71,1.76,6.29,1.63,6.27-4.48,1.1-1.41,1.92-2.89,1.42-4.78-.78-1.09-2.47-.55-3.16-1.8,.49,0,1-.13,1.45,0,4.12,1.19,5.67,.21,6.23-4.07,.11-.81,.03-1.65,.04-2.47Z"/>
  <path class="cls-1" d="M220.91,173.63c1.22-.07,2.25,.69,1.78,1.7-1.72,3.64-.15,6.95,.6,10.37,.41,1.85,.97,3.7,1.13,5.58,.23,2.82-1.42,4.29-4.14,3.63-1.94-.47-3.87-.78-5.83-1.08-4.1-.63-4.97-3.16-3.74-7.83,1.14-4.33,3.99-7.95,4.72-12.39,.26-1.59,1.43-1.6,2.64-1.57,.14,.31,.29,.62,.43,.93-2.23,.34-2.52,1.83-2.57,3.79-.05,1.97,1.41,1.75,2.45,2.11,1.24,.43,2.22-.22,2.48-1.39,.27-1.23,.83-2.55,.05-3.84Z"/>
  <path class="cls-7" d="M218.5,172.95c-.14-.31-.29-.62-.43-.93-.01-3.37,1.96-6.06,3.32-8.88,2.31-4.76,5.13-9.27,7.86-13.82,2.73-4.55,6.26-8.57,8.86-13.78-2.68,.94-4.29,2.83-6.29,4.07-1.22,.76-2.09,2.26-3.87,1.86-.1-.18-.2-.37-.31-.55,2.95-1.76,5.62-3.93,8.33-6.02,.91,.01,1.29-.68,1.71-1.3,.89-.39,1.54-1.03,1.88-1.95,.65-.4,1.37-.73,1.53-1.6,.45-.25,.91-.5,1.36-.75,1.43-.36,3.15-.3,3.44-2.33,.19-.17,.39-.33,.58-.5,.63-.21,.91-.73,1.15-1.28,0,0,.11-.04,.1-.04,.31-.19,.62-.38,.93-.56,.58-.03,1.16-.04,1.73-.08,.8-.06,1.77,.24,2.26-.62,.52-.89-.31-1.5-.72-2.18-1.04-1.68-2.06-3.36-3.1-5.05l.15-.15c1.67-.04,2.06,1.49,2.85,2.45,.73,.88,1.21,1.97,1.83,2.96,1.27,2.05,.45,4.06-1.92,3.92-2.86-.17-4.34,1.54-5.62,3.42-4.83,7.11-9.96,14.01-14.41,21.39-3.33,5.53-6.78,11-9.36,16.91-.8,1.84-2.32,3.65-1.91,5.95-.65-.18-1.31-.36-1.96-.54Zm20.65-38.29c-.07-.02-.14-.08-.2-.06-.23,.07-.24,.18-.03,.28,.05,.02,.15,0,.2-.05,.03-.02,.02-.11,.02-.17Z"/>
  <path class="cls-7" d="M224.93,85.93c-.29,2.56,.76,4.9,1.54,7.17,2.23,6.55,4.44,13.16,8.14,19.09,1.31,2.1,2.81,4.07,4.22,6.1,.75,1.08,1.43,2.57,2.99,2.17,1.52-.39,2.82-1.38,3.25-3.12,.14-.56,.35-1.14,.69-1.59,1-1.3,2.56-.92,3.24,.75,0,0-.15,.15-.15,.15-1.51-.9-2.41-.39-2.84,1.22-.19,.7-.38,1.39-.57,2.09-.8,.32-1.82,.33-2.11,1.41-.26,.24-.53,.47-.79,.71-1.06,.06-2.35-.24-2.3,1.51-.22,.01-.44,.02-.66,.04-1.65-3.08-4.27-5.44-6.16-8.37-5.2-8.03-8.28-16.92-11.13-25.95-.74,.09-1.05,.76-1.53,1.18-1.95,1.66-2.92,4.12-4.59,5.95-7.37,8.09-14.89,16.05-22.42,24-.95,1-1.72,2.44-3.43,2.44,.44-1.29,1.37-2.23,2.28-3.18,3.65-3.83,7.36-7.61,10.93-11.52,4.07-4.44,8.58-8.48,12.18-13.35,.54-.27,.88-.67,.78-1.32,1.5-1.68,3-3.36,4.5-5.04,1.07-.6,2.19-1.15,2.77-2.33,.35-.11,.7-.22,1.06-.32,0,0,.12,.13,.12,.13Z"/>
  <path class="cls-3" d="M202.46,46.46c.04-.79,.45-1.37,.94-1.98,4.86-6.04,9.86-11.99,14.45-18.24,2.09-2.84,5.4-5.14,5-9.53-.16-1.73,1.96-2.47,3.46-1.39,2.22,1.59,4.38,3.27,6.5,5,1.98,1.62,1.97,3.09-.44,4.1-3.52,1.48-5.4,4.42-7.58,7.18-6.35,8.03-12.74,16.04-19.12,24.05-.14,.18-.43,.23-.66,.34-.21-.04-.43-.08-.64-.12,1.37-2.84,3.99-4.83,5.29-7.72l-.12-.07,.13,.05c.84-.21,1.34-.73,1.45-1.6,.1-.06,.12-.15,.07-.25,.55-.31,1.15-.57,1.28-1.3,.07-.24,.13-.49,.2-.73,.35-.22,.78-.36,1.02-.66,3.96-4.98,7.91-9.97,11.83-14.99,.86-1.1,2.47-2.09,2.29-3.41-.18-1.32-2.28-1.26-3.21-2.29-.45-1.49-1.24-1.68-2.25-.51-1.18,1.38-2.28,2.83-3.42,4.25-5.36,6.72-10.73,13.44-16.09,20.16-.12-.11-.24-.22-.36-.34Z"/>
  <path class="cls-1" d="M158.52,193.49c0-.33,0-.66-.01-.98,.5-.34,.48-.9,.61-1.41,.44-.07,.88-.14,1.32-.21-.24,4.95,1.34,9.94-.01,14.85-.75,2.74-.63,5.65-2.05,8.28-.89,1.64-.79,3.62-1.74,5.45-2.66,5.11-5.04,10.32-9.06,14.59-3.05,3.25-6,6.55-9.46,9.44-3.2,2.68-6.8,4.49-10.38,6.38-5.48,2.9-11.6,2.43-17.19,1.31-5.53-1.11-10.33-4.62-14.12-9.11-2.54-3.01-5.09-5.98-6.91-9.54-.68-1.32-1.07-2.56-1.07-3.99,.15-.12,.3-.25,.45-.37,.19,.28,.39,.55,.58,.83,.8,2.5,1.74,4.92,3.76,6.74,0,.13,.05,.24,.14,.33,.93,2,2.14,3.78,4.08,4.95h0c1.33,2.44,3.48,3.95,5.88,5.15,.1,.11,.22,.17,.36,.19,2.2,2.53,5.38,3.2,8.36,3.87,4.07,.91,8.3,1.43,12.22-.91l.71-.1c2,.07,3.64-1.02,5.23-1.94,8.55-4.95,15.48-11.68,20.8-19.99,2.72-4.25,5.34-8.59,6.13-13.72,.04-.19,.07-.38,.11-.56,1.4-2.51,1.93-5.18,1.47-8.04,.04-.9,.08-1.8,.12-2.71,.78-.69,.78-1.37,0-2.06,.11-1.88,.26-3.76-.16-5.63,.27-.42,.24-.79-.17-1.1Z"/>
  <path class="cls-5" d="M122.96,146.47c-.18-.04-.36-.09-.53-.13,0-.32,0-.64,0-.96,2.24-3.29,2.93-7.68,6.33-10.06,2.5-1.75,4.36-3.97,6.24-6.23,2.43-2.92,4.77-5.9,7.13-8.88,.82-1.04,.6-2.44,1.5-3.6,1.66-2.14,2.92-4.44,5.61-5.7,1.33-.63,2.23-2.33,3.13-3.67,3.63-5.49,8.14-10.28,12.04-15.57,4.05-5.49,8.54-10.64,12.82-15.96,1.8-2.24,3.61-4.49,5.29-6.82,.48-.67,.92-.86,1.63-.77-.24,.6-.49,1.19-.73,1.79-.95,1.21-1.91,2.42-2.86,3.62-.76,.46-1.48,.95-1.54,1.96-.09,.08-.15,.18-.17,.3-.71,.35-1.31,.79-1.36,1.68-.1,.08-.16,.18-.18,.3-.51,.19-.88,.5-.98,1.06-.43,.55-.87,1.11-1.3,1.66-.76,.47-1.41,1.02-1.52,1.99-.1,.07-.16,.17-.18,.29-.72,.34-1.28,.8-1.39,1.65l-4.55,5.9c-.54,.17-.9,.5-.97,1.09-.96,1.19-1.93,2.39-2.89,3.58-.84,.55-1.56,1.19-1.69,2.27l-.04,.07c-.72,.31-1.27,.76-1.34,1.62-.65,.84-1.3,1.68-1.96,2.52-1.05,.53-1.7,1.38-2.04,2.49-.2,.28-.4,.57-.6,.85-.53,.18-.9,.5-.96,1.09-.1,.09-.16,.2-.18,.33-.41,.41-.82,.82-1.22,1.23h0c-.34,.08-.51,.23-.21,.56-.8,1.76-2.45,2.84-3.51,4.39-3.67,.97-4.91,3.93-5.83,7.15-4.16,5.31-8.32,10.61-12.48,15.92-3.32,.83-5.19,3.19-5.54,7-.98,1.33-1.96,2.66-2.94,3.99Z"/>
  <path class="cls-12" d="M76.53,122.04c.15,.5,.29,1.01,.44,1.51-1.4,3.58-2.94,7.11-3.56,10.95-.05,.32-.1,.63-.15,.95-1.39,1.02-1.35,2.58-1.54,4.06-2.07,2.38-4.5,4.16-7.73,4.6-.22-1.11,1.3-1.88,.61-3.09,.1-.45,.2-.9,.29-1.34,0,0,.14,.1,.14,.1l.14-.11c.58-.18,.87-.54,.71-1.17,.02-.34,.04-.68,.05-1.02,.14-.44,.29-.88,.43-1.31,0,0,.15,.11,.15,.11l.15-.12c.59-.18,.87-.54,.7-1.16l.04-1.03c.12-.28,.23-.55,.35-.83,.59-.14,.8-.53,.74-1.11,.07-.43,.15-.85,.22-1.28,0,0,.14-.11,.14-.11,1.73-1.97,2.26-4.51,3.18-6.86,.54-1.39,1.16-2.56,2.9-2.52,.43,.46,.94,.76,1.58,.77Z"/>
  <path class="cls-5" d="M47.11,185.94c.17,.02,.34,.05,.52,.07-.8,2.77-1.98,5.39-3,8.07-2.14,5.6-4.12,11.27-6.19,16.9-2.51,6.83-5.05,13.64-7.57,20.46-.95,1.07-2.43,1.52-3.22,2.78-.75,.76-1.05,1.44,.32,1.83l1.53,.49c.89,.77,1.8,1.46,3.09,1.24l.92,.24c.52,.65,1.16,1.03,2.02,.96,.52,.28,1.05,.39,1.62,.17,1.24-.71,.91-1.67,.42-2.66-.05-.32-.1-.63-.16-.95,.11-.34,.22-.69,.33-1.03,2.27,1.71,2.32,4.51-.03,5.85-1.49,.85-3.24-.19-4.3-.78-1.97-1.1-4.23-1.22-6.14-2.43-1.74-1.1-2.39-2.33-.83-3.58,2.1-1.68,3.59-3.66,4.67-6.07,.69-1.55,1.11-3.23,1.63-4.79,1.87-5.56,3.93-11.06,6.04-16.52,2.58-6.68,4.87-13.47,7.53-20.12,.27-.04,.55-.09,.83-.13Z"/>
  <path class="cls-7" d="M204.35,55.88c.21,.04,.43,.08,.64,.12-.45,2.6-2.67,4.01-4.07,5.97-.61,.85-1.31,1.73-.93,2.68,.72,1.77-.14,2.78-1.3,3.83-1.44,1.3-1.38,2.5,.4,3.46,4.73,2.55,9.48,5.06,14.17,7.67,1.64,.91,3.29,1.77,5.08,2.33,.04,.35,.09,.69,.13,1.04-.65,.69-1.3,1.39-1.95,2.08l-1.18,.19c-.26-1.17-.78-1.9-2.01-2.52-4.11-2.05-8-4.53-12.11-6.58-2.52-1.26-4.77-3.24-7.79-3.36-.08-.22-.17-.44-.25-.66,.07-.53,.3-.94,.87-1.08,.93,.1,1.43-.38,2-1.1,1.53-1.94,2.23-4.12,2.4-6.52,1.43-2.95,3.87-5.09,5.91-7.55Z"/>
  <path class="cls-5" d="M54.02,188.68c.39,.34,.62-.18,.94-.18,.22,1.74-.68,3.44-1.41,4.61-1.13,1.79-1.63,3.84-2.24,5.62-1.92,5.63-4.16,11.13-6.2,16.71-1.68,4.58-3,9.3-5.36,13.62-.7,1.28,.04,3.3-1.99,3.93-.46-1.31,.88-2.23,.74-3.47,.15-.5,.31-1.01,.46-1.51,.75-.87,1.17-1.84,.99-3.01,1.35-4.51,3.04-8.89,4.94-13.19,.76-.59,1.17-1.33,1.04-2.32,.15-.56,.29-1.12,.44-1.68,.52-.26,.79-.65,.68-1.26,.15-.51,.31-1.02,.46-1.53,.64-.7,1.02-1.51,1.05-2.46l.44-1.54c.73-.66,1.14-1.46,1.06-2.46,.1-.42,.2-.84,.31-1.27,.75-.76,1.29-1.61,1.19-2.74,.1-.42,.2-.84,.3-1.26,.8-.74,1.27-1.62,1.18-2.75,.06-.41,.13-.81,.19-1.22,.26-.21,.53-.42,.79-.63Z"/>
  <path class="cls-5" d="M190.9,169.11c.03-.36,.07-.72,.1-1.09,.57-.47,1.12-.98,1.72-1.41,9.41-6.94,18.82-13.87,28.24-20.8,.31,.03,.62,.06,.93,.09-.38,2.24-2.54,2.65-3.97,3.74-8.62,6.58-17.63,12.64-26.12,19.42-.3,.24-.58,.25-.9,.05Z"/>
  <path class="cls-1" d="M51.11,172.48c-.17,.34-.33,.68-.5,1.02-1.53-.62-3.92-.75-3.39-3.07,.43-1.87,.78-3.87,1.58-5.63,1.65-3.64,3.45-7.22,5.36-10.73,.9-1.65,2.16-3.09,3.3-4.6,.33-.43,.85-.45,1.34-.16-1.77,3.6-4.66,6.53-6.08,10.37-.4,1.1-.83,2.12-.84,3.29-1.56,2.06-2.22,4.44-2.45,6.96-.5,.16-.9,.37-.64,1.03,.32,.8,.88,1.12,1.72,.99,.2,.18,.4,.35,.59,.53Z"/>
  <path class="cls-7" d="M96.38,66.98c-.53-.25-.16-1.29-.94-1.22-.59,.06-.45,.78-.66,1.19-.96,1.83-1.36,3.94-2.76,5.55-.55-1.48,.63-2.58,1.06-3.75,1.2-3.25,1.96-6.75,4.28-9.52,.33-.4,.21-1.28,1.07-1.07,.65,.16,1.05,.97,.88,1.35-1.1,2.44-.58,5.52-2.93,7.46Z"/>
  <path class="cls-7" d="M218.52,81.54c.35-1.44,.6-2.91,1.08-4.31,.57-1.66,1.7-2.28,3.24-1.07,1.82,1.43,3.65,2.86,5.33,4.44,.98,.92,1.61,2.27,1.03,3.6-.8,1.85-2.56,1.85-4.28,1.72,0,0-.13-.13-.12-.13,.38-1.66,3.47-.66,3.04-2.96-.33-1.78-2.33-2.26-3.33-3.56-.2-.26-.45-.5-.71-.7-.75-.58-1.22-1.86-2.4-1.42-1.26,.48-1.34,1.76-1.38,2.95-.02,.41-.07,.83-.1,1.24-.47,.06-.93,.12-1.4,.18Z"/>
  <path class="cls-14" d="M194.04,71.06c-.57,.14-.79,.55-.87,1.08-.45,.15-.91,.29-1.37,.43-1.41-.81-1.86-2.79-3.7-3.09-.6-2.34-1.3-2.54-3.01-1.04-.56,.49-.55,1.69-1.71,1.47,.24-.6,.49-1.19,.73-1.79,.1-.12,.17-.25,.21-.4,.94-.54,1.48-1.46,2.12-2.28,3.41,.69,5.49,3.16,7.59,5.61Z"/>
  <path class="cls-4" d="M218.5,172.95c.65,.18,1.31,.36,1.96,.54,.15,.03,.3,.07,.45,.13,.78,1.28,.21,2.6-.05,3.84-.25,1.17-1.23,1.82-2.48,1.39-1.04-.36-2.49-.15-2.45-2.11,.05-1.96,.33-3.45,2.57-3.79Z"/>
  <path class="cls-12" d="M160.43,190.89c-.44,.07-.88,.14-1.32,.21-.22-.05-.44-.1-.66-.14-.51-1.61-.94-3.24-.91-4.95,.79-.28,2.08-.15,2.19-1.1,.14-1.13-.82-1.85-1.96-2.1,.25-.19,.52-.56,.75-.53,1.95,.21,1.89,2.29,2.99,3.32,1.31,1.23,1.7,2.51,.03,3.79-.09,.07-.06,.3-.09,.46-.34,.35-.68,.7-1.02,1.05Z"/>
  <path class="cls-5" d="M186.45,65.44c-.63,.83-1.17,1.74-2.11,2.28,.68-3.57,2.27-6.75,5.05-9.03,1.24-1.02,3.27-1.04,4.67-2.14,.15,.14,.3,.28,.45,.42-.56,.83-1.13,1.67-1.69,2.5-3.28,.14-5.24,1.97-6.35,5.96Z"/>
  <path class="cls-1" d="M93.43,138.13c-4.46-.01-8.92-.02-13.38-.04-.01-1.41,.94-1.55,2.01-1.55,3.13,0,6.26,0,9.39,0,1.1,0,2,.2,1.98,1.58Z"/>
  <path class="cls-14" d="M218.52,81.54c.47-.06,.93-.12,1.4-.18,.77,2,3.47,2.44,3.83,4.76-.58,1.18-1.69,1.73-2.77,2.33,.39-1.65-.85-2.25-1.91-2.97-.73-.71,2.73-2.42-.6-2.5-.04-.35-.09-.69-.13-1.04,.08-.12,.14-.26,.18-.4Z"/>
  <path class="cls-5" d="M73.42,134.5c.62-3.83,2.15-7.37,3.56-10.95,.29-.03,.57-.06,.85-.09,.01,2.31-1.58,4.15-1.84,6.45-.11,1-1.03,2.01-1.12,3.19-.07,.89-.61,1.3-1.44,1.4Z"/>
  <path class="cls-1" d="M47.11,185.94c-.28,.04-.56,.09-.83,.13-1.68-5.69-.59-8.74,3.73-10.46-.07,1.5-1.58,2.02-2.16,3.22-1.12,2.32-1.47,4.64-.74,7.12Z"/>
  <path class="cls-3" d="M195.5,54.98c1.91-3.18,3.98-6.22,6.96-8.52,.12,.11,.24,.22,.36,.34-2.31,3.03-4.45,6.2-7.16,8.92l-.16-.74Z"/>
  <path class="cls-6" d="M86.04,220c.02-2.83,.03-5.66,.05-8.49,.51-.25,.55-1.05,1.26-1.05,.05,.35,.09,.69,.14,1.04-.83,1.28-.68,2.62-.27,3.98,0,.85,0,1.7,0,2.54-.43,.72-.41,1.38,.22,1.98-.04,.68-.09,1.36-.13,2.04-1.19-.21-.44-1.61-1.27-2.05Z"/>
  <path class="cls-5" d="M71.73,139.51c.19-1.48,.15-3.04,1.54-4.06,.18,.25,.55,.52,.52,.74-.29,2.18,.05,2.47,2.11,1.76,.92-.31,1.87-.79,2.62,.31-.28,.52-.79,.42-1.25,.47-.57-.23-1.04-.18-1.29,.46-1.41,.2-2.76,1.18-4.25,.31Z"/>
  <path class="cls-14" d="M221.88,145.9c-.31-.03-.62-.06-.93-.09,1.88-2.11,3.8-4.16,6.69-4.89,.1,.18,.2,.37,.31,.55-1.82,1.34-3.63,2.69-5.45,4.03-.35-.12-.54,.02-.6,.36,0,0-.02,.03-.02,.03Z"/>
  <path class="cls-1" d="M63.53,144.06c-.05,.44-.1,.87-.15,1.31-1.82,.73-2.45,2.9-4.34,3.54-.94-1.09,.07-1.68,.69-2.24,1.03-.93,1.71-2.29,3.19-2.67,.2,.02,.4,.04,.6,.06Z"/>
  <path class="cls-14" d="M38.5,229.51c.14,1.24-1.21,2.16-.74,3.47-.01,.51-.02,1.02-.03,1.53-.11,.34-.22,.69-.33,1.03-1.08-.01-1.46-.63-1.32-1.61,.25-1.71,1.2-3.15,1.84-4.71,.2,.1,.39,.19,.59,.29Z"/>
  <path class="cls-1" d="M86.04,220c.82,.43,.07,1.84,1.27,2.05,.12,.3,.23,.6,.35,.9-.1,.54-.21,1.08-.31,1.62-2.83-.83-1.88-2.75-1.31-4.56Z"/>
  <path class="cls-4" d="M101.07,139.66c-2.18,.03-4.31-.19-6.24-1.33,1.78-1.34,3.42,.84,5.17,.21,.36,.37,.71,.74,1.07,1.12Z"/>
  <path class="cls-2" d="M87.35,224.56c.1-.54,.21-1.08,.31-1.62,1.78,.97,1.67,2.5,1.25,4.14-.37-.21-.74-.43-1.1-.64-.15-.63-.31-1.25-.46-1.88Z"/>
  <path class="cls-1" d="M108,141.02c-.86,.31-1.63,0-2.41-.3-.14-.92-1.26-.58-1.59-1.25,1.83-.76,3.28-.54,4.01,1.55Z"/>
  <path class="cls-1" d="M87.35,210.46c-.71,0-.76,.8-1.26,1.05-.89-1.38-.96-2.49,.96-2.95,.06,.37,.05,.77,.47,.96-.06,.31-.11,.63-.17,.94Z"/>
  <path class="cls-2" d="M87.7,207.52c.41-.35,.81-.7,1.22-1.05,.83,1.38,1.03,2.54-1.02,2.91-.13-.38-.27-.77-.4-1.15,.07-.24,.14-.47,.2-.71Z"/>
  <path class="cls-4" d="M113.08,142.86c-1.82,.18-3.48-.12-4.72-1.62,.38-.09,.76-.17,1.15-.26,.64,.79,1.48,1.09,2.47,1.05,.33,.32,.97,.24,1.11,.82Z"/>
  <path class="cls-3" d="M63.53,144.06c-.2-.02-.4-.04-.6-.06,.14-.63,.28-1.25,.41-1.88,.48-.16,.71-.51,.74-1,.18-.03,.36-.06,.54-.09,.69,1.2-.82,1.98-.61,3.09-.16-.02-.32-.04-.48-.06Z"/>
  <path class="cls-1" d="M122.42,145.38c0,.32,0,.64,0,.96-1.02,.51-2,.89-2.49-.64,.69-1.17,1.62-.49,2.49-.32Z"/>
  <path class="cls-7" d="M94.56,71.56c.08-1.32,.61-2.39,1.69-3.16,.45,1.6-.56,2.41-1.69,3.16Z"/>
  <path class="cls-1" d="M119.05,145.34c-1,.29-1.69-.06-2.1-1.01,1.21-1.11,1.56-.94,2.1,1.01Z"/>
  <path class="cls-1" d="M115.54,143.82c-.33,.24-.66,.15-.98-.02-.16-.63-.54-.88-1.18-.66l-.02-.2s.19-.07,.19-.07c-.08-.71,.38-.85,.9-.73,.86,.2,1.09,.88,1.09,1.68Z"/>
  <path class="cls-1" d="M111.97,142.03c-.99,.03-1.83-.27-2.47-1.05,1.29-.75,2.03-.19,2.47,1.05Z"/>
  <path class="cls-4" d="M103.99,139.47c.33,.67,1.45,.33,1.59,1.25-1.36,.24-2.47-.47-3.65-.93,.03-.17,.06-.35,.1-.52,.65,.07,1.31,.13,1.96,.2Z"/>
  <path class="cls-1" d="M102.03,139.27c-.03,.17-.06,.35-.1,.52-.29-.04-.57-.09-.86-.13-.36-.37-.71-.74-1.07-1.12,1.13-1.02,1.61-.24,2.03,.73Z"/>
  <path class="cls-7" d="M65.19,139.68l-.14,.11s-.14-.11-.14-.1c-1.19-1.47-.44-2.01,1.05-2.2-.02,.34-.04,.68-.05,1.02-.72,.1-.93,.5-.71,1.17Z"/>
  <path class="cls-7" d="M66.68,136.17l-.15,.12s-.15-.11-.15-.11c-1.2-1.46-.41-1.99,1.03-2.2-.01,.34-.02,.69-.04,1.03-.69,.11-.92,.51-.7,1.17Z"/>
  <path class="cls-1" d="M87.8,226.44c.37,.21,.74,.43,1.1,.64,0,.37-.02,.74-.03,1.11-.15,.12-.3,.24-.45,.37-.91-.5-1.83-1-.63-2.12Z"/>
  <path class="cls-1" d="M88.49,204.49c0,.83-.3,1.51-.97,2-.96-1.29-.11-1.71,.97-2Z"/>
  <path class="cls-7" d="M68.73,130.76c-.07,.43-.15,.85-.22,1.28-.31,0-.61-.02-.92-.03-.48-1.06-.24-1.33,1.14-1.25Z"/>
  <path class="cls-5" d="M195.5,54.98c.05,.25,.11,.49,.16,.74-.39,.42-.78,.84-1.16,1.26-.15-.14-.3-.28-.45-.42,.01-.95,.59-1.39,1.45-1.57Z"/>
  <path class="cls-6" d="M87.5,208.23c.13,.38,.27,.77,.4,1.15-.1,.12-.23,.16-.38,.13-.42-.19-.41-.59-.47-.96,.15-.11,.3-.21,.45-.32Z"/>
  <path class="cls-3" d="M67.59,132.01c.31,0,.61,.02,.92,.03,.06,.58-.15,.97-.74,1.11-.06-.38-.12-.76-.18-1.13Z"/>
  <path class="cls-7" d="M64.07,141.12c-.03,.49-.26,.84-.74,1-.36-.78,.02-1.01,.74-1Z"/>
  <path class="cls-5" d="M221.9,145.87c.06-.35,.25-.49,.6-.36-.2,.12-.4,.24-.6,.36Z"/>
  <path class="cls-13" d="M87.52,209.51c.15,.04,.28,0,.38-.13,2.05-.37,1.85-1.53,1.02-2.91,.18-.71,.36-1.41,.55-2.12,.21,.4,.47,.32,.7,.04,.29-.35,.24-.72,0-1.08,.24-.8,.49-1.61,.73-2.41,1.43-.35,1.5-1.26,1-2.41,.06-.31,.13-.62,.19-.93,.98-.44,1.43-1.15,1.15-2.23,.1-.44,.19-.87,.29-1.31,.32-.03,.64-.07,.96-.1,.3,6.45,1.87,12.7,3.18,18.97,.54,2.58,2.55,4.79,3.47,7.38,3.22,9,10.2,15,17.32,20.65,2.43,1.93,5.55,3.43,8.61,4.66,1.56,.63,2.55-1.19,3.98-.58-.06,.54-.55,.73-.84,1.07-1.4,1.68-4.28,.83-5.23,3.16-.24,.03-.47,.07-.71,.1-.97-.44-1.92-.24-2.9-.01-4.29,.99-8.38,.1-12.52-1.14-1.76-.52-3.17-1.98-5.15-1.81-.14-.02-.27-.08-.36-.19-1.24-2.54-3.23-4.23-5.88-5.15,0,0,0,0,0,0-.49-2.37-2.06-3.84-4.08-4.95-.09-.09-.14-.2-.14-.34-.5-2.67-1.58-5.01-3.76-6.74-.19-.28-.39-.55-.58-.83,0-.37,.02-.74,.03-1.11,.42-1.63,.52-3.17-1.25-4.14-.12-.3-.23-.6-.35-.9,.04-.68,.09-1.36,.13-2.04,.7-.75,.79-1.43-.22-1.98,0-.85,0-1.7,0-2.54,1.23-1.25,.84-2.61,.27-3.98-.05-.35-.09-.69-.14-1.04,.06-.31,.11-.63,.17-.94Z"/>
  <path class="cls-8" d="M51.11,172.48c-.2-.18-.4-.35-.59-.53,.02-.87-.78-1.31-1.08-2.02,.23-2.53,.89-4.9,2.45-6.96,3.7,1.39,7.41,2.78,11.11,4.17,0,.82,.07,1.66-.04,2.47-.57,4.28-2.12,5.26-6.23,4.07-.45-.13-.97,0-1.45,0-.93-.15-1.86-.29-2.79-.44-.15-.81-.8-.74-1.38-.77Z"/>
  <path class="cls-2" d="M124.99,249.23c.95-2.33,3.84-1.48,5.23-3.16,.29-.35,.78-.53,.84-1.07,4.51-1.74,7.89-5,11.08-8.45,1.83-1.98,3.49-4.11,5.26-6.15,.4-.47,.63-.95,.67-1.55,.12-1.54,1.27-2.19,2.45-2.82,2.27-3.52,4.1-7.25,5.21-11.31,.18-.65,.55-1.24,1.41-1.14-.79,5.13-3.4,9.48-6.13,13.72-5.33,8.31-12.25,15.03-20.8,19.99-1.58,.92-3.22,2-5.23,1.94Z"/>
  <path class="cls-13" d="M98.89,169.5c.26-.72-.17-1.33-.34-1.98,1.18-.08,1.94,.36,1.94,1.65,0,2.73,0,5.46,0,8.19,0,.98-.47,1.55-1.48,1.62-.07-.71-.14-1.42-.21-2.13,.02-.29,.05-.58,.07-.87,1.01-2.16,.97-4.32,.03-6.49Z"/>
  <path class="cls-2" d="M81.53,154.95c-3.17-.78-6.33-.27-9.49,.09,.01-.08,0-.19,.04-.24,1.62-1.94,7.77-1.84,9.44,.15Z"/>
  <path class="cls-2" d="M98.79,176.86c.07,.71,.14,1.42,.21,2.13-.22,.47-.54,.83-1.04,1,.21-1.06-.51-2.37,.83-3.12Z"/>
  <path class="cls-2" d="M96.5,185.51c-.06-.97,.18-1.84,.91-2.53,1.01,1.31,.29,2.01-.91,2.53Z"/>
  <path class="cls-2" d="M94.49,193.92c-.32,.03-.64,.07-.96,.1-.02-.97,.36-1.73,1.21-2.22,.4,.76,.11,1.45-.25,2.12Z"/>
  <path class="cls-12" d="M147.16,158.89c1.63,.72,2.43,2.36,3.79,3.39,.66,.51,.52,1.05-.03,1.65-1.21,1.32-2.19,2.87-3.79,3.81-.41-1.7-2.27-2.48-2.65-4.2,1.71-1.08,3.24-2.27,2.68-4.65Z"/>
  <path class="cls-12" d="M131.77,149.79c-.14,.02-.26,.09-.35,.19-.87-.13-1.08,.63-1.5,1.11-1.87-.3-3.37-1.06-3.95-3.04,2.34-1.16,2.56-2.97,1.59-5.15,1.41,.32,1.97,1.74,3.12,2.39,1.51,.85,2.05,2,1.32,3.64l-.23,.86Z"/>
  <path class="cls-9" d="M127.56,142.9c.98,2.18,.76,3.99-1.59,5.15-1.33,.1-2.57,.03-3.01-1.58,.98-1.33,1.96-2.66,2.94-3.98,.55,.14,1.11,.28,1.66,.41Z"/>
  <path class="cls-10" d="M147.16,158.89c.56,2.39-.97,3.57-2.68,4.65-.65-.05-1-.4-1.06-1.05,.02-.37,.05-.74,.07-1.1,0,0-.06-.18-.06-.18,.96-.99,1.55-2.41,3.1-2.72,.07,.28,.25,.41,.54,.35l.09,.05Z"/>
  <path class="cls-2" d="M158.71,204.99c.46,2.85-.07,5.52-1.47,8.04-.59-.14-.78-.59-.69-1.11,.35-2,.71-3.99,1.12-5.98,.1-.51,.55-.79,1.04-.95Z"/>
  <path class="cls-9" d="M157.77,182.8c1.15,.25,2.1,.97,1.96,2.1-.12,.95-1.4,.82-2.19,1.1-1.26-.71-.5-1.8-.54-2.75,.25-.15,.51-.3,.76-.45Z"/>
  <path class="cls-4" d="M129.92,151.09c.42-.48,.63-1.23,1.5-1.11,0,.34,0,.69,.01,1.03-.51,1.76,.86,2.05,1.98,2.55,0,0,.03,.03,.03,.03,.01,.31,.03,.62,.04,.93-1.69-.62-3.26-1.36-3.56-3.43Z"/>
  <path class="cls-11" d="M148.08,169.94c1.52,1.15,2.18,2.86,2.94,4.51-2.3-.65-2.73-2.5-2.94-4.51Z"/>
  <path class="cls-1" d="M135.91,156.09c1.57-.09,3.02-.04,2.67,2.2-1.27-.27-1.99-1.21-2.67-2.2Z"/>
  <path class="cls-1" d="M133.48,154.52c-.01-.31-.03-.62-.04-.93,1.13-.23,1.6,.29,1.58,1.38-.24,.07-.48,.15-.72,.22-.27-.22-.55-.45-.82-.67Z"/>
  <path class="cls-1" d="M138.72,158.42c1.45-.55,1.77,.12,1.52,1.41-.87-.08-1.45-.46-1.52-1.41Z"/>
  <path class="cls-4" d="M140.22,160.04c.72,0,1.15,.33,1.27,1.04-1.19,.59-1.38-.05-1.27-1.04Z"/>
  <path class="cls-2" d="M158.84,200.22c.77,.69,.77,1.38,0,2.06-.38-.69-.38-1.38,0-2.06Z"/>
  <path class="cls-4" d="M134.31,155.19c.24-.07,.48-.15,.72-.22,.35,.33,.95,.49,.78,1.17-.72,.03-1.24-.25-1.49-.95Z"/>
  <path class="cls-2" d="M158.45,190.96c.22,.05,.44,.1,.66,.14-.12,.5-.11,1.06-.61,1.41-.85-.49-.14-1.03-.05-1.55Z"/>
  <path class="cls-11" d="M147.15,168.78c.48,.24,.83,.58,.92,1.14-.84,.05-1.09-.37-.92-1.14Z"/>
  <path class="cls-4" d="M75.98,139.21c.25-.65,.72-.69,1.29-.46-.31,.5-.63,.94-1.29,.46Z"/>
  <path class="cls-2" d="M158.52,193.49c.41,.31,.44,.68,.17,1.1-.54-.29-.88-.62-.17-1.1Z"/>
  <path class="cls-4" d="M113.38,143.15c.64-.22,1.02,.03,1.18,.66-.65,.24-1.03,0-1.18-.66Z"/>
  <path class="cls-12" d="M143.49,161.39c-.02,.37-.05,.74-.07,1.1-.25-.15-.67-.26-.71-.45-.09-.53,.43-.54,.78-.66Z"/>
  <path class="cls-12" d="M227.65,140.92c-2.89,.73-4.81,2.78-6.69,4.89-9.41,6.93-18.83,13.86-28.24,20.8-.6,.44-1.15,.94-1.72,1.41-.33-.04-.66-.09-.98-.13-.11-.87-.63-1.32-1.48-1.43-.19-.45-.38-.9-.57-1.35,1.78-2.61,4.72-3.77,7.12-5.61,5.94-4.55,11.99-8.95,18.05-13.36,3.59-2.61,7.34-5.02,10.87-7.71,2.4-1.83,4.83-3.6,7.32-5.32,4.71-3.25,8.84-7.34,14.21-9.64,.74,.55,1.49,1.1,2.23,1.65,0,0-.11,.04-.11,.04-1.18-.29-1.11,.55-1.15,1.28-.19,.17-.39,.33-.58,.5-1.17,.75-3.09,.38-3.44,2.33-.45,.25-.91,.5-1.36,.75-1.1-.04-1.63,.48-1.53,1.6-.35,.92-.99,1.56-1.88,1.95-1.03-.16-1.59,.29-1.71,1.31-2.72,2.09-5.38,4.25-8.33,6.02Z"/>
  <path class="cls-9" d="M245.51,123.49c-5.37,2.3-9.49,6.39-14.21,9.64-2.49,1.72-4.91,3.48-7.32,5.32-3.53,2.69-7.28,5.1-10.87,7.71-6.05,4.4-12.11,8.8-18.05,13.36-2.39,1.83-5.33,3-7.12,5.61-.51-.99-2.37-.98-1.96-2.65,2.4-1.8,4.83-3.57,7.2-5.4,1.33-1.03,3.06-1.62,3.82-3.31,.55-.34,1.1-.67,1.29-1.35,.15-.02,.26-.09,.33-.23,1.52-.47,2.76-1.32,3.65-2.64,.15-.1,.29-.19,.44-.29,.49-.25,.99-.49,1.48-.74,.95-.1,1.87-.23,1.62-1.57,0-.16,.08-.26,.23-.31,1.07,.32,1.43-.39,1.74-1.18,.16-.01,.29-.08,.4-.21,1.32-.64,2.9-.94,3.41-2.63,.62-.14,1.13-.43,1.42-1.02,3.75-1.31,6.37-4.33,9.64-6.38,4.79-3.01,8.59-7.52,14.24-9.24,.84-.26,1.87-.79,2.05-1.97,.2-.12,.4-.24,.6-.35,.22-.01,.44-.02,.66-.04,.73-.56,2.06-.2,2.3-1.51,.26-.24,.53-.47,.79-.71,1.36,.05,2.33,.51,2.18,2.11Z"/>
  <path class="cls-12" d="M171.49,172.13c2.5-1.9,5-3.81,7.5-5.71,2.45-.33,2.48,2.17,3.72,3.25,.45,.39,.45,1.24,1.24,1.37h0c.33,1.24-.27,2.06-1.21,2.75-4.21,3.07-8.42,6.13-12.59,9.24-.89,.66-1.8,.8-2.35-.12-.58-.97-1.75-1.59-1.79-2.88,4.82-2.9,9.06-6.6,13.58-9.9,.51-.37,1.81-.59,.94-1.82-.87-1.24-1.56-.27-2.23,.18-1.09,.72-2.08,1.61-3.2,2.27-1.65,.97-2.83,2.67-4.84,3.07,.41-.56,.82-1.13,1.23-1.69Z"/>
  <path class="cls-12" d="M161.86,152.97c-1.9,.79-2.83,2.67-4.27,3.98-.96,.88-1.54,1.14-2.34,.09-.85-1.11-2.45-1.45-2.94-2.91,.84-.39,1.79,.96,2.53-.06,2.66-3.69,6.08-6.66,9.25-9.86,1.16-1.17,2.09-2.26,1.64-4.01,.45,.36,.93,.69,1.35,1.08,2.72,2.58,2.67,2.58,.22,5.31-1.36,1.51-3.14,2.7-3.91,4.71,0,0-.11,.11-.11,.11-.76,.2-1.26,.65-1.35,1.46l-.08,.11Z"/>
  <path class="cls-9" d="M165.74,140.19c.44,1.75-.48,2.84-1.64,4.01-3.17,3.2-6.59,6.17-9.25,9.86-.74,1.02-1.69-.33-2.53,.06-.96-.49-.45-1.44-.67-2.16,.83-.8,1.72-1.56,2.49-2.42,3.07-3.44,6.68-6.4,9.21-10.33,0,0,.14-.01,.14-.01,.51,.88,1.75,.09,2.26,.98Z"/>
  <path class="cls-10" d="M170.27,173.82c2.01-.4,3.19-2.1,4.84-3.07,1.12-.66,2.11-1.55,3.2-2.27,.67-.45,1.36-1.42,2.23-.18,.87,1.23-.43,1.45-.94,1.82-4.53,3.3-8.77,7-13.58,9.9-.18-.18-.36-.36-.55-.54,0-.69,.25-1.44-.44-1.97,.05-.25,.1-.5,.15-.75,.15-.04,.29-.12,.4-.22,.89,.06,1.32-.47,1.57-1.23,.16-.09,.31-.18,.47-.28,1.13,.14,1.56-1.26,2.65-1.21Z"/>
  <path class="cls-8" d="M183.95,171.04c.34-1.52-.25-2.79-1.18-3.89-1.27-1.5-.22-2.4,.74-3.33,.32-.31,1.01-.42,1.11-.1,.7,2.22,3.24,3.24,3.64,5.54,.2,1.14-.76,1.92-1.9,1.58-.92-.28-1.61,.14-2.4,.21,0,0,0,0,0,0Z"/>
  <path class="cls-5" d="M163.34,139.22c-2.53,3.92-6.14,6.88-9.21,10.33-.77,.86-1.65,1.62-2.49,2.42-.33,.03-.66,.06-1,.09,.06-.32,.02-.74,.2-.93,3.98-3.97,7.48-8.4,11.73-12.09,.25,.06,.5,.12,.75,.19Z"/>
  <path class="cls-2" d="M197.02,153.76c-.76,1.7-2.49,2.29-3.82,3.31-2.37,1.83-4.8,3.6-7.2,5.4-.58-.29-.3-.86-.43-1.3,3.31-1.87,6.14-4.44,9.27-6.57,.55-.37,1.13-.68,1.7-1.02,.16,.06,.32,.11,.48,.17Z"/>
  <path class="cls-12" d="M165.03,177.51c.69,.54,.44,1.28,.44,1.97-1.43-.37-1.19-1.12-.44-1.97Z"/>
  <path class="cls-2" d="M188.53,166.47c.85,.11,1.37,.55,1.48,1.43-1.13,.18-1.48-.44-1.48-1.43Z"/>
  <path class="cls-12" d="M147.08,158.84c-.3,.06-.47-.06-.54-.35,.32-.1,.49,.04,.54,.35Z"/>
  <path class="cls-12" d="M85.78,94.53c.55,2.67-1.33,4.67-2.1,6.93-1.32,3.88-2.17,7.9-3.56,11.75-.29,.8-.67,1.49-1.14,2.16-.99,.14-1.49-.94-2.41-.96-.64-2.13,1.42-3.48,1.55-5.38,.68-.1,.92-.5,.81-1.15,1.41-4.65,3.18-9.16,5.57-13.41,.43,.02,.85,.04,1.28,.06Z"/>
  <path class="cls-8" d="M76.58,114.42c.92,.01,1.43,1.1,2.41,.96,.18,.45,.3,.94,.55,1.35,.56,.9,2.83,.79,1.71,2.62-.92,1.51-1.91,3.22-4.22,2.69-.16-.04-.33,0-.5,.02-.65-.01-1.16-.31-1.58-.77,.08-.65-.13-1.14-.77-1.39-1.83-.73-2.41-1.83-1.77-3.89,.66-2.11,2.17-1.29,3.42-1.51,.24-.04,.49-.05,.74-.07Z"/>
  <path class="cls-8" d="M84.54,93.68c-.61-1.21-2.63-1.06-2.6-3,.03-2.45,1.37-3.83,3.79-3.19,2.22,.59,5.2,.36,5.72,3.52,.36,2.21-.92,3.18-3.12,2.69-.84-.18-1.64-.16-2.46-.04-.45,0-.89,0-1.34,.01Z"/>
  <path class="cls-14" d="M90.08,80.16c.89,2.74-.74,4.45-1.25,6.39-.03,.12-.41,.24-.59,.21-.35-.07-.55-.34-.47-.72,.41-1.94,1.09-3.76,2.31-5.88Z"/>
  <path class="cls-14" d="M91.11,80.3c-.83-1.17-.65-1.86-.2-2.69,.96,.75,.57,1.48,.2,2.69Z"/>
  <path class="cls-14" d="M84.54,93.68c.45,0,.89,0,1.34-.01-.03,.29-.07,.58-.1,.86-.43-.02-.85-.04-1.28-.06,.01-.27,.03-.53,.04-.8Z"/>
  <path class="cls-14" d="M78.93,107.88c.11,.65-.13,1.05-.81,1.15-.11-.65,.25-.97,.81-1.15Z"/>
  <path class="cls-12" d="M30.86,231.44c2.53-6.82,5.06-13.64,7.57-20.46,2.07-5.63,4.04-11.3,6.19-16.9,1.03-2.68,2.2-5.31,3-8.07,1.71-1.25,3.07-.34,4.41,.7-1.88,4.99-3.76,9.99-5.63,14.98-1.67,4.45-3.16,8.98-5.04,13.34-2.33,5.41-3.41,11.31-6.37,16.47-1,.36-2-1.15-3,0-.38-.02-.76-.04-1.14-.06Z"/>
  <path class="cls-10" d="M30.86,231.44c.38,.02,.76,.04,1.14,.06,1,.55,2,1.65,3,0,2.95-5.17,4.03-11.06,6.37-16.47,1.88-4.36,3.37-8.89,5.04-13.34,1.87-5,3.75-9.99,5.63-14.98,.35,.06,.7,.12,1.05,.18,.05,.81,.09,1.61,.14,2.42-.06,.41-.13,.81-.19,1.22-1.41,.48-1.45,1.55-1.18,2.75-.1,.42-.2,.84-.3,1.26-1.48,.44-1.44,1.54-1.19,2.74-.1,.42-.2,.84-.31,1.27-1.37,.38-1.47,1.32-1.06,2.46-.15,.51-.29,1.03-.44,1.54-1.39,.38-1.46,1.32-1.05,2.46-.15,.51-.31,1.02-.46,1.53-.9,.05-1.13,.47-.68,1.26-.15,.56-.29,1.12-.44,1.68-1.38,.31-1.65,1.11-1.04,2.32-1.89,4.3-3.58,8.69-4.94,13.19-1.59,.59-1.32,1.79-.99,3.01-.15,.5-.31,1.01-.46,1.51-.2-.1-.39-.19-.59-.29-.64,1.56-1.59,3-1.84,4.71-.14,.99,.24,1.6,1.32,1.61,.05,.32,.1,.63,.15,.95-.84,.77-.39,1.75-.42,2.66-.57,.22-1.1,.12-1.62-.17-.31-1.07-.85-1.68-2.02-.96-.31-.08-.61-.16-.92-.24-.68-1.29-1.67-1.78-3.09-1.24-.51-.16-1.02-.33-1.53-.49,.06-.64,.03-1.26-.32-1.83,.78-1.26,2.27-1.71,3.22-2.78Z"/>
  <path class="cls-8" d="M57.01,180.26c.02,6.1,.45,6.24-6.27,4.47-1.53-.4-2.28-1.07-2.62-2.48-.33-1.38,.84-1.86,1.52-2.63,.56-.64,1.27-.82,1.98-.22,.8,.67,1.67,.64,2.59,.41,.6,0,1.21-.01,1.81-.02,.33,.16,.66,.32,.99,.47Z"/>
  <path class="cls-14" d="M56.02,179.79c-.6,0-1.21,.02-1.81,.02-.28-.28-.55-.58-.86-.84-.87-.75-2.72-.24-2.8-1.91-.07-1.54,.88-2.75,1.93-3.81,.93,.15,1.86,.29,2.79,.44,.69,1.24,2.39,.71,3.16,1.8-.5,0-1,.01-1.5,.02-.93,.02-1.94,.07-2.33,1.06-.38,.95,.18,1.74,.85,2.43,.22,.23,.37,.53,.55,.79Z"/>
  <path class="cls-9" d="M56.02,179.79c-.18-.27-.33-.57-.55-.79-.67-.69-1.23-1.48-.85-2.43,.39-.99,1.4-1.04,2.33-1.06,.5,0,1-.01,1.5-.02,.5,1.88-.32,3.37-1.43,4.78-.33-.16-.66-.32-.99-.47Z"/>
  <path class="cls-2" d="M98.89,169.5c.95,2.17,.98,4.33-.03,6.49-.6-2.17-.62-4.33,.03-6.49Z"/>
  <path class="cls-2" d="M91.91,198.49c.5,1.15,.43,2.06-1,2.41-.01-.95,.35-1.74,1-2.41Z"/>
  <path class="cls-2" d="M93.24,195.33c.29,1.09-.17,1.79-1.15,2.23-.08-.98,.27-1.74,1.15-2.23Z"/>
  <path class="cls-12" d="M53.23,189.31c-.05-.81-.09-1.61-.14-2.42,1.26,.1,.83,1.08,.93,1.79-.26,.21-.53,.42-.79,.63Z"/>
  <path class="cls-2" d="M90.18,203.31c.23,.36,.28,.74,0,1.08-.23,.28-.49,.36-.7-.04-.03-.53,.24-.85,.71-1.04Z"/>
  <path class="cls-4" d="M245.44,119.96c.19-.7,.38-1.39,.57-2.09,.43-1.61,1.33-2.12,2.84-1.22,1.03,1.68,2.06,3.37,3.09,5.05,.42,.68,1.24,1.28,.72,2.18-.5,.86-1.47,.56-2.26,.62-.58,.04-1.15,.06-1.73,.08-1.76-1.06-2.92-2.54-3.23-4.61Z"/>
  <path class="cls-14" d="M245.44,119.96c.31,2.07,1.47,3.55,3.23,4.61-.31,.19-.62,.38-.93,.56-.74-.55-1.49-1.1-2.23-1.65,.15-1.61-.82-2.06-2.18-2.11,.29-1.09,1.31-1.09,2.11-1.41Z"/>
  <path class="cls-14" d="M242.46,129.3c.35-1.95,2.27-1.59,3.44-2.33-.3,2.03-2.01,1.98-3.44,2.33Z"/>
  <path class="cls-14" d="M239.58,131.65c-.11-1.12,.42-1.63,1.53-1.6-.15,.87-.88,1.2-1.53,1.6Z"/>
  <path class="cls-14" d="M235.98,134.9c.12-1.02,.68-1.47,1.71-1.31-.42,.63-.8,1.32-1.71,1.31Z"/>
  <path class="cls-14" d="M246.49,126.47c.04-.74-.03-1.57,1.15-1.28-.24,.56-.53,1.08-1.15,1.28Z"/>
  <path class="cls-12" d="M190.31,122.87c-.13,.06-.2,.15-.23,.29-.4,.28-.79,.55-1.19,.83-.92,.31-1.38,1.14-1.99,1.79-3.52,3.74-7.08,7.45-10.55,11.24-1.32,1.44-2.44,1.54-3.69,.04-.48-.57-.97-1.12-1.46-1.68,.52-.23,1.2-.33,1.54-.72,6.92-7.82,13.91-15.59,21.33-22.95,.53-.53,1.09-1.04,1.56-1.61,5.33-6.53,11.29-12.49,17.05-18.62,.09-.27,.18-.54,.27-.81,2.4-1.29,4.19-3.32,6.13-5.16,1.05,.72,2.3,1.32,1.91,2.97-1.5,1.68-3,3.36-4.5,5.04-.87,.08-1.03,.58-.78,1.32-3.61,4.86-8.12,8.9-12.18,13.35-3.57,3.9-7.28,7.69-10.93,11.52-.91,.96-1.84,1.89-2.28,3.18Z"/>
  <path class="cls-4" d="M223.75,86.13c-.36-2.32-3.06-2.77-3.83-4.76,.03-.41,.09-.83,.1-1.24,.05-1.19,.12-2.47,1.38-2.95,1.18-.45,1.66,.84,2.4,1.42,.26,.2,.5,.44,.71,.7,1,1.3,3,1.78,3.33,3.56,.43,2.3-2.66,1.3-3.04,2.96-.35,.11-.71,.21-1.06,.32Z"/>
  <path class="cls-14" d="M242.54,122.09c-.24,1.3-1.57,.95-2.3,1.51-.05-1.75,1.24-1.45,2.3-1.51Z"/>
  <path class="cls-14" d="M215.7,94.82c-.25-.74-.09-1.24,.78-1.32,.1,.65-.24,1.05-.78,1.32Z"/>
  <path class="cls-9" d="M194.5,56.98c.39-.42,.77-.84,1.16-1.26,2.71-2.72,4.85-5.89,7.16-8.92,5.36-6.72,10.73-13.44,16.09-20.16,1.13-1.42,2.24-2.87,3.42-4.25,1-1.18,1.8-.99,2.25,.51,.12,1.97-1.68,2.75-2.6,4.06-2.44,3.49-4.62,7.15-7.69,10.24-1.49,1.5-3.4,2.97-4.1,5.25-.18,.59-.93,1.1-.16,1.71,.64,.5,1.02-.04,1.43-.47,.94-.98,.96,.05,1.2,.58-.07,.24-.13,.49-.2,.73-.88-.01-1.6,.13-1.28,1.3,.05,.11,.02,.19-.07,.25-1.23-.14-1.81,.31-1.45,1.6l-.13-.05s.12,.07,.12,.06c-.35-.18-.85-.18-.93-.7-.1-.63,.83-1.61-.4-1.83-.99-.18-1.64,.49-1.97,1.51-.14,.44-.61,.77-.9,1.17-2.41,3.21-5.53,5.81-7.58,9.38-.8,1.39-1.69,4.46-4.65,2.3-.14-.17-.27-.33-.41-.5,.56-.83,1.13-1.67,1.69-2.5Z"/>
  <path class="cls-12" d="M212.65,44.25c-.24-.53-.26-1.56-1.2-.58-.42,.43-.8,.97-1.43,.47-.77-.61-.02-1.11,.16-1.71,.7-2.28,2.61-3.75,4.1-5.25,3.07-3.09,5.25-6.74,7.69-10.24,.92-1.31,2.72-2.08,2.6-4.06,.93,1.03,3.04,.97,3.21,2.29,.18,1.32-1.43,2.31-2.29,3.41-3.92,5.02-7.87,10.01-11.83,14.99-.24,.3-.68,.45-1.02,.66Z"/>
  <path class="cls-12" d="M193.22,59.98c2.95,2.16,3.85-.9,4.65-2.3,2.05-3.57,5.17-6.17,7.58-9.38,.3-.4,.76-.73,.9-1.17,.32-1.01,.98-1.68,1.97-1.51,1.23,.22,.3,1.2,.4,1.83,.08,.52,.58,.52,.93,.7-1.29,2.9-3.91,4.88-5.28,7.72-2.04,2.46-4.49,4.61-5.91,7.55-2.41-.14-4-1.52-5.22-3.45Z"/>
  <path class="cls-12" d="M209.65,48.14c-.37-1.3,.21-1.75,1.45-1.6-.11,.87-.6,1.4-1.45,1.6Z"/>
  <path class="cls-12" d="M211.17,46.28c-.32-1.17,.41-1.31,1.28-1.3-.13,.72-.74,.98-1.28,1.3Z"/>
  <path class="cls-2" d="M103.7,246.38c1.97-.18,3.39,1.28,5.15,1.81,4.14,1.24,8.23,2.13,12.52,1.14,.99-.23,1.94-.43,2.9,.01-3.92,2.34-8.15,1.82-12.22,.91-2.97-.67-6.15-1.33-8.36-3.87Z"/>
  <path class="cls-2" d="M97.46,241.05c2.66,.92,4.64,2.6,5.88,5.15-2.41-1.21-4.55-2.71-5.88-5.15Z"/>
  <path class="cls-2" d="M89.46,229.02c2.19,1.73,3.26,4.07,3.76,6.74-2.03-1.81-2.96-4.24-3.76-6.74Z"/>
  <path class="cls-2" d="M93.37,236.09c2.02,1.11,3.6,2.58,4.08,4.95-1.95-1.17-3.15-2.95-4.08-4.95Z"/>
  <path class="cls-10" d="M183.39,69.91c1.16,.22,1.15-.98,1.71-1.47,1.71-1.51,2.41-1.3,3.01,1.04-3.63,4.29-6.86,8.89-10.35,13.3-1.99,2.51-4.89,4.21-6.26,7.22-.97,.05-1.47,.55-1.48,1.53-.3,1.44-1.61,2.03-2.48,2.99-.99,.58-1.93,1.2-2.02,2.51-.01,.41-.1,.77-.49,.99-.99,.01-1.48,.52-1.52,1.5-1.93,3.46-4.52,6.43-7,9.49-.66,.01-1,.35-.99,1.02-.17,1.64-1.93,2.14-2.5,3.48-.79,.03-1.03,.54-1.08,1.23-1.09-.43-1.79-1.24-2.18-2.32,1.06-1.55,2.71-2.63,3.51-4.39,.07-.19,.14-.37,.21-.56,0,0,0,0,0,0,.87,.05,1.65,.01,1.22-1.23,.02-.13,.08-.24,.19-.33,.77,.04,1.18-.25,.96-1.09,.2-.28,.4-.57,.6-.85,1.21-.39,2.11-1.05,2.04-2.49,.65-.84,1.3-1.68,1.96-2.52,1-.08,1.62-.47,1.34-1.62,0,0,.04-.07,.04-.07,1.66,.06,1.53-1.21,1.69-2.27,.96-1.19,1.93-2.39,2.89-3.58,.8,.06,1.14-.28,.96-1.09,1.52-1.97,3.03-3.93,4.55-5.9,1.12,0,1.63-.51,1.39-1.65,.02-.12,.09-.22,.18-.29,1.29-.06,1.57-.9,1.52-1.99,.43-.55,.87-1.11,1.3-1.66,.83,.1,1.23-.17,.98-1.06,.02-.12,.08-.22,.18-.3,1.05-.07,1.59-.56,1.36-1.68,.02-.12,.08-.22,.17-.3,1.23-.09,1.57-.87,1.54-1.96,.95-1.21,1.91-2.42,2.86-3.62Z"/>
  <path class="cls-4" d="M127.56,142.9c-.55-.14-1.11-.28-1.66-.41,.35-3.81,2.22-6.17,5.54-7,.39,.62,.49,1.48,1.41,1.65,1.74,1.64,3.13,3.9,6.07,3.35-1,2.73-1.88,5.53-4.73,7.05-.38,.2-.57,.76-.85,1.16-.14,.09-.29,.18-.43,.27-.31,0-.61-.02-.92-.02,.73-1.64,.19-2.79-1.32-3.64-1.15-.65-1.71-2.07-3.12-2.39Z"/>
  <path class="cls-9" d="M132.84,137.13c-.91-.17-1.01-1.03-1.41-1.65,4.16-5.31,8.32-10.62,12.48-15.92,.7,.37,1.68-.15,2.22,.72-.15,.8,.1,1.23,.99,1.08h.02c-.17,.87-.79,1.43-1.32,2.08-3.18,3.92-6.44,7.78-9.4,11.86-1.02,1.4-1.9,2.17-3.59,1.84Z"/>
  <path class="cls-4" d="M146.14,120.28c-.54-.86-1.52-.35-2.22-.72,.92-3.22,2.16-6.18,5.83-7.15,.39,1.09,1.09,1.89,2.18,2.32,.2,.46,.6,.53,1.03,.56,1.04,1.31,1.94,2.93,4.06,1.77,.17,1.51-.76,2.75-1.05,4.15-.47,.58-.93,1.16-1.39,1.74-1.38,.54-2.26,2.04-3.92,2.08-.06-2.29-1.98-2.78-3.51-3.66,0,0-.02-.01-.02-.01-.03-.64-.43-.93-.99-1.08Zm5.62,1.73c.92,0,1.99,.06,2.14-1.14,.14-1.09,.62-2.55-.69-3.13-1.2-.53-1.95-1.49-2.96-2.16-1.09-.73-2.53-1.43-3.21,.41-.8,2.19,2.33,6.03,4.7,6.02Z"/>
  <path class="cls-14" d="M158.48,101.48c.07,1.44-.83,2.09-2.04,2.49,.33-1.11,.99-1.96,2.04-2.49Z"/>
  <path class="cls-14" d="M163.5,95.01c-.15,1.06-.03,2.33-1.69,2.27,.13-1.08,.85-1.72,1.69-2.27Z"/>
  <path class="cls-14" d="M180.53,73.54c.04,1.08-.31,1.87-1.54,1.96,.06-1.01,.78-1.5,1.54-1.96Z"/>
  <path class="cls-14" d="M175,80.5c.05,1.09-.23,1.92-1.52,1.99,.11-.97,.77-1.52,1.52-1.99Z"/>
  <path class="cls-14" d="M173.29,82.78c.25,1.14-.27,1.65-1.39,1.65,.1-.85,.67-1.32,1.39-1.65Z"/>
  <path class="cls-14" d="M178.82,75.8c.23,1.11-.3,1.6-1.36,1.68,.05-.89,.65-1.32,1.36-1.68Z"/>
  <path class="cls-14" d="M161.78,97.34c.29,1.14-.33,1.54-1.34,1.62,.06-.85,.62-1.3,1.34-1.62Z"/>
  <path class="cls-14" d="M154.69,106.24c.43,1.24-.35,1.28-1.22,1.23,.41-.41,.82-.82,1.22-1.23Z"/>
  <path class="cls-14" d="M167.36,90.33c.18,.81-.16,1.15-.96,1.09,.07-.59,.42-.92,.96-1.09Z"/>
  <path class="cls-14" d="M155.84,104.82c.22,.84-.19,1.13-.96,1.09,.06-.59,.44-.91,.96-1.09Z"/>
  <path class="cls-14" d="M177.28,77.77c.26,.89-.15,1.17-.98,1.06,.1-.57,.47-.88,.98-1.06Z"/>
  <path class="cls-14" d="M153.47,107.47c-.07,.19-.14,.37-.21,.56-.3-.32-.13-.47,.21-.56Z"/>
  <path class="cls-3" d="M66.68,136.17c-.21-.66,0-1.05,.7-1.17,.17,.63-.12,.99-.7,1.17Z"/>
  <path class="cls-3" d="M65.19,139.68c-.22-.67,0-1.07,.71-1.17,.16,.63-.14,.99-.71,1.17Z"/>
  <path class="cls-14" d="M29.49,236.54c1.41-.54,2.41-.05,3.09,1.24-1.28,.22-2.2-.47-3.09-1.24Z"/>
  <path class="cls-14" d="M37.13,239.15c.03-.9-.42-1.88,.42-2.66,.49,.99,.82,1.95-.42,2.66Z"/>
  <path class="cls-14" d="M33.5,238.02c1.17-.72,1.7-.11,2.02,.96-.86,.07-1.5-.31-2.02-.96Z"/>
  <path class="cls-14" d="M27.64,234.22c.35,.57,.38,1.19,.32,1.83-1.37-.39-1.07-1.07-.32-1.83Z"/>
  <path class="cls-8" d="M193.22,59.98c1.22,1.93,2.81,3.31,5.22,3.45-.17,2.41-.88,4.58-2.4,6.52-.57,.72-1.07,1.2-2,1.1-2.1-2.45-4.18-4.93-7.59-5.61,1.12-3.99,3.08-5.83,6.35-5.96,.14,.17,.27,.33,.41,.5Z"/>
  <path class="cls-9" d="M219.08,85.48c-1.94,1.84-3.73,3.87-6.13,5.16-.05-.94,.2-1.66,.9-2.43,.91-1.01,2.4-1.59,2.68-3.14,.65-.69,1.3-1.39,1.95-2.08,3.33,.08-.13,1.79,.6,2.5Z"/>
  <path class="cls-14" d="M216.52,85.06c-.28,1.55-1.76,2.13-2.68,3.14-.7,.77-.95,1.49-.9,2.43-.09,.27-.18,.54-.28,.81-.78-1.7-1.73-1.2-2.87-.33-.79,.6-1.02,2-2.42,1.74,1.07-2.12,2.94-3.36,4.9-4.52,.19-.18,.37-.36,.56-.55,.48-.17,.8-.49,.95-.97,.17-.18,.34-.36,.51-.55,.45-.17,.8-.43,.92-.92,0,0,.13-.1,.13-.1,.39-.06,.79-.13,1.18-.19Z"/>
  <path class="cls-5" d="M193.43,72.8c-1.32,1.72-2.17,3.91-4.54,4.6,.25-.61,.49-1.22,.74-1.83,.92-.86,1.91-1.66,2.19-2.99,.46-.14,.91-.29,1.37-.43,.08,.22,.17,.44,.25,.66Z"/>
  <path class="cls-14" d="M38.97,228c-.32-1.22-.6-2.43,.99-3.01,.17,1.17-.25,2.15-.99,3.01Z"/>
  <path class="cls-14" d="M51.86,193.27c-.27-1.2-.24-2.27,1.18-2.75,.1,1.13-.37,2.01-1.18,2.75Z"/>
  <path class="cls-14" d="M49,201c-.41-1.15-.32-2.08,1.06-2.46,.08,1.01-.33,1.81-1.06,2.46Z"/>
  <path class="cls-14" d="M50.37,197.27c-.25-1.19-.28-2.29,1.19-2.74,.1,1.13-.44,1.98-1.19,2.74Z"/>
  <path class="cls-14" d="M47.52,205c-.41-1.14-.35-2.09,1.05-2.46-.03,.96-.4,1.77-1.05,2.46Z"/>
  <path class="cls-14" d="M44.9,211.79c-.61-1.2-.33-2.01,1.04-2.32,.13,.99-.29,1.73-1.04,2.32Z"/>
  <path class="cls-14" d="M46.38,207.79c-.45-.78-.22-1.2,.68-1.26,.11,.6-.15,1-.68,1.26Z"/>
  <path class="cls-6" d="M49.44,169.93c.3,.7,1.1,1.14,1.08,2.02-.84,.13-1.4-.19-1.72-.99-.26-.66,.13-.87,.64-1.03Z"/>
  <path class="cls-12" d="M191.81,72.57c-.27,1.33-1.27,2.13-2.19,2.99-1.3,.67-2.4,1.51-2.53,3.12-.77,1.46-1.77,2.75-2.98,3.88-.58,.04-1.31-.06-.72,.91l-.05,.86s-.02,.03-.02,.03c-2.85,1.94-4.55,4.87-6.47,7.61-.82,.02-1.46,.21-1.24,1.25-.8,1.43-1.76,2.73-3,3.82-.82-.02-1.14,.38-1,1.17-.1,.69-.55,1.15-.96,1.68-4.46,5.78-9.56,11.07-13.63,17.17-2.11,1.15-3.02-.46-4.06-1.77,.01-.59,.03-1.19,.05-1.78,.57-1.35,2.33-1.85,2.5-3.49,.64-.03,.98-.37,1-1.02,2.48-3.05,5.07-6.03,7-9.49,.95-.05,1.44-.56,1.52-1.5,.39-.22,.48-.58,.49-.99,1.41-.24,2.02-1.13,2.02-2.51,.87-.96,2.19-1.55,2.48-2.99,.93-.09,1.45-.57,1.48-1.53,1.37-3.01,4.27-4.71,6.26-7.22,3.49-4.4,6.72-9.01,10.35-13.3,1.85,.3,2.29,2.28,3.7,3.09Z"/>
  <path class="cls-2" d="M87.49,211.5c.57,1.37,.96,2.73-.27,3.98-.41-1.36-.56-2.71,.27-3.98Z"/>
  <path class="cls-2" d="M87.21,218.02c1.01,.55,.92,1.23,.22,1.98-.63-.6-.65-1.26-.22-1.98Z"/>
  <path class="cls-10" d="M207.38,92.86c1.4,.27,1.64-1.14,2.42-1.74,1.14-.87,2.09-1.37,2.87,.33-5.76,6.13-11.72,12.09-17.05,18.62-.47,.58-1.03,1.09-1.56,1.61-7.42,7.36-14.41,15.12-21.33,22.95-.35,.39-1.02,.49-1.54,.72-.13-.02-.23-.08-.3-.18-1.35-1.84,1.19-2.76,1.03-4.32,.15-.47,.3-.94,.45-1.42,.42-.45,.84-.91,1.25-1.36,.74,.23,1.04-.37,1.42-.78,3.71-3.9,7.42-7.82,11.12-11.73,.85-.17,1.33-.67,1.35-1.56,.49-.51,.98-1.03,1.47-1.54,2.51-1.53,4.85-3.23,5.79-6.22,.38-.76,1.42-1.11,1.35-2.15l-.11-.1s.11,.11,.11,.11c.3-.04,.59-.08,.89-.12,.86,.02,1.02-.57,1.1-1.23,.42-.46,.84-.91,1.26-1.37,.81,.13,1.16-.2,.99-1.02v-.02c1.17,.1,1.67-.41,1.47-1.57,.83-.89,1.66-1.78,2.49-2.68,1.63-.5,2.62-1.6,3.05-3.23v-.02Z"/>
  <path class="cls-4" d="M170.89,135.18c.08,.1,.18,.16,.3,.18,.49,.56,.98,1.12,1.46,1.69,1.25,1.5,2.38,1.4,3.69-.04,3.47-3.79,7.03-7.5,10.55-11.24,.61-.65,1.07-1.48,1.99-1.79,.05,.19,.09,.39,.14,.58-3.1,3.98-6.75,7.46-10.16,11.16-1.46,1.59-2.98,3.1-3.97,5.08-.43,.86-1.13,1.69-1.9,2.27-3.2,2.37-6.02,5.14-8.68,8.09-.16,.18-.61,.1-.92,.14,.77-2.01,2.55-3.19,3.91-4.71,2.45-2.73,2.5-2.73-.22-5.31-.42-.4-.9-.72-1.35-1.08-.5-.9-1.74-.11-2.26-.98,0-.41,0-.82,0-1.22,0,0,0,0,0,0,2.17-1.46,3.78-3.49,5.42-5.48,.18,0,.36,.02,.53,.03,.04,1.13-.03,2.32,1.45,2.66Z"/>
  <path class="cls-12" d="M147.15,121.37c1.53,.87,3.46,1.37,3.51,3.66-.68,.82-1.43,1.58-2.02,2.46-1.02,1.52-2.76,2.55-3.09,4.54-.04,.15-.08,.29-.14,.43-2.74,2.21-4.43,5.27-6.5,8.03-2.94,.55-4.34-1.71-6.07-3.35,1.69,.33,2.57-.44,3.59-1.84,2.96-4.08,6.22-7.94,9.4-11.86,.53-.65,1.15-1.2,1.32-2.07Z"/>
  <path class="cls-5" d="M157.02,117.06c4.07-6.1,9.16-11.38,13.63-17.17,.41-.53,.86-.99,.96-1.68,.6-.16,.98-.51,1-1.17,1.24-1.09,2.2-2.39,3-3.82,.54-.29,1.15-.52,1.24-1.25,1.91-2.74,3.61-5.67,6.47-7.61,.53,1.74-.98,2.61-1.77,3.61-6.27,7.97-12.86,15.7-18.91,23.83-1.89,2.54-4.72,4.69-5.11,8.27-.07,.67-.52,1.47-1.56,1.15,.29-1.4,1.22-2.64,1.05-4.15Z"/>
  <path class="cls-3" d="M186.16,115.59c-3.71,3.91-7.41,7.82-11.12,11.73-.38,.4-.68,1-1.42,.78,.1-1.61,1.53-2.3,2.41-3.31,2.75-3.16,5.63-6.2,8.5-9.25,.3-.32,.87-.4,1.32-.58,.1,.21,.2,.43,.31,.64Z"/>
  <path class="cls-1" d="M138.92,140.48c2.07-2.75,3.76-5.82,6.5-8.03,.02,1.58-.61,2.76-1.78,3.89-2.19,2.12-4,4.48-4.82,7.6-.8,3.05-3.15,4.78-5.47,4.74,.28-.4,.47-.96,.85-1.16,2.84-1.52,3.73-4.32,4.73-7.05Z"/>
  <path class="cls-5" d="M145.55,132.03c.33-1.99,2.07-3.02,3.09-4.54,.59-.88,1.34-1.64,2.02-2.46,1.66-.04,2.54-1.54,3.92-2.08,.56,.95-.24,1.5-.78,1.77-2.7,1.31-4.11,3.87-5.99,5.97-.61,.68-1.32,1.2-2.25,1.34Z"/>
  <path class="cls-7" d="M204.31,96.11c-.83,.89-1.66,1.78-2.49,2.68-.7,.32-1.29,.75-1.46,1.57,0,0-.01,.02-.01,.02-.55,.13-.86,.49-.99,1.02-.42,.46-.84,.91-1.26,1.37-.29-.02-.59-.03-.88-.05-.24-.53-.07-1,.31-1.36,2.17-2.11,4.07-4.49,6.49-6.35,.12,.11,.23,.23,.35,.34-.02,.25-.03,.5-.05,.75Z"/>
  <path class="cls-5" d="M184.12,82.56c1.21-1.13,2.21-2.41,2.98-3.88,.53-.3,1.05-.61,1.58-.91,.29,.47,.38,1.09,.03,1.4-1.87,1.63-2.66,4.38-5.35,5.15,.02-.29,.04-.57,.05-.86,.51-.09,.66-.46,.72-.91Z"/>
  <path class="cls-7" d="M212.28,88.34c-1.95,1.16-3.83,2.4-4.9,4.52,0,0-.01,.02-.01,.02-1.39,.35-1.8,1.9-3.01,2.48-.12-.11-.23-.23-.35-.34,1.44-2.79,4.12-4.43,6.16-6.67,.52-.58,1.4-.39,2.11,0Z"/>
  <path class="cls-14" d="M194.77,106.27c-.94,2.99-3.28,4.69-5.79,6.22,0-.33,0-.67,0-1,.18-.15,.37-.3,.55-.46,.85-.31,1.34-.96,1.67-1.76,0,0,.07-.1,.07-.1,.67-.28,1.23-.68,1.42-1.44,0,0,.04-.08,.04-.08,.68-.47,1.36-.93,2.04-1.39Z"/>
  <path class="cls-1" d="M168.9,132.5c-1.64,1.99-3.24,4.02-5.42,5.48,.72-2.9,2.49-4.76,5.42-5.48Z"/>
  <path class="cls-12" d="M170.89,135.18c-1.48-.34-1.41-1.53-1.45-2.66,.49-.56,.99-1.13,1.48-1.69,.33,.01,.67,.02,1,.03,.15,1.56-2.38,2.47-1.03,4.32Z"/>
  <path class="cls-7" d="M194.77,106.27c-.68,.46-1.36,.93-2.04,1.39,.22-2.05,1.52-3.07,3.39-3.55,.07,1.04-.97,1.39-1.35,2.15Z"/>
  <path class="cls-14" d="M188.68,77.77c-.53,.3-1.05,.61-1.58,.91,.13-1.62,1.22-2.45,2.53-3.12-.25,.61-.49,1.22-.74,1.83-.09,.12-.16,.25-.21,.38Z"/>
  <path class="cls-1" d="M133.41,153.56c-1.12-.5-2.49-.79-1.98-2.55,.53,.95,2.07,1.11,1.98,2.55Z"/>
  <path class="cls-7" d="M188.98,111.49c0,.33,0,.67,0,1-.49,.51-.98,1.03-1.47,1.54-.19-.08-.37-.17-.56-.25,.02-1.34,.77-2.03,2.02-2.28Z"/>
  <path class="cls-7" d="M191.2,109.28c-.33,.8-.82,1.45-1.67,1.76,.02-1.1,.12-2.11,1.67-1.76Z"/>
  <path class="cls-3" d="M171.92,130.86c-.33-.01-.67-.02-1-.03,.07-.89,.56-1.35,1.45-1.39-.15,.47-.3,.94-.45,1.42Z"/>
  <path class="cls-14" d="M186.96,113.78c.19,.08,.37,.17,.56,.25-.03,.89-.51,1.38-1.35,1.56-.1-.21-.2-.43-.31-.64,.37-.39,.74-.78,1.1-1.17Z"/>
  <path class="cls-7" d="M192.69,107.74c-.18,.77-.74,1.16-1.42,1.44-.31-1.25,.27-1.63,1.42-1.44Z"/>
  <path class="cls-14" d="M197.21,102.72c.29,.02,.59,.03,.88,.05-.08,.67-.24,1.26-1.1,1.23,0-.33,0-.66,.01-.99,.1-.07,.17-.17,.2-.29Z"/>
  <path class="cls-1" d="M163.48,137.99c0,.41,0,.82,0,1.22,0,0-.14,.01-.14,.01-.25-.06-.5-.12-.75-.18-.05-.65,.21-1.03,.89-1.05Z"/>
  <path class="cls-7" d="M213.79,86.82c-.15,.49-.48,.8-.95,.97-.33-.96-.01-1.28,.95-.97Z"/>
  <path class="cls-1" d="M131.99,148.94c.31,0,.61,.02,.92,.02,0,.81-.38,1.08-1.14,.84,.08-.29,.15-.57,.23-.86Z"/>
  <path class="cls-7" d="M197.01,103.01c0,.33,0,.66-.01,.99-.3,.04-.59,.08-.89,.12-.21-.78,.18-1.08,.9-1.12Z"/>
  <path class="cls-7" d="M215.21,85.36c-.12,.49-.48,.75-.92,.92-.28-.89-.04-1.27,.92-.92Z"/>
  <path class="cls-5" d="M238.98,123.99c-.18,1.18-1.21,1.71-2.05,1.97-5.65,1.73-9.45,6.24-14.24,9.24-3.26,2.05-5.89,5.07-9.64,6.38,.94-2.53,3.42-3.46,5.37-4.77,4.44-2.96,8.46-6.47,12.89-9.43,2.35-1.57,4.92-2.69,7.67-3.4Z"/>
  <path class="cls-5" d="M211.63,142.61c-.51,1.69-2.09,2-3.41,2.63,.18-2.12,1.68-2.53,3.41-2.63Z"/>
  <path class="cls-4" d="M170.27,173.82c-1.09-.04-1.52,1.35-2.65,1.21,.63-1.86,2.1-2.59,3.88-2.91-.41,.57-.82,1.13-1.23,1.7Z"/>
  <path class="cls-5" d="M202.3,149.54c-.9,1.32-2.14,2.18-3.65,2.64,.48-1.9,1.62-2.89,3.65-2.64Z"/>
  <path class="cls-5" d="M207.82,145.45c-.31,.79-.68,1.5-1.74,1.18,.09-1.12,.47-1.81,1.74-1.18Z"/>
  <path class="cls-2" d="M205.85,146.93c.25,1.34-.67,1.47-1.62,1.57-.09-.14-.13-.29-.13-.45,.62-.31,.86-1.23,1.75-1.12Z"/>
  <path class="cls-4" d="M167.15,175.31c-.25,.76-.68,1.28-1.57,1.23,.05-1.02,.45-1.58,1.57-1.23Z"/>
  <path class="cls-5" d="M197.02,153.76c-.16-.06-.32-.11-.48-.17,.14-1.07,.52-1.77,1.77-1.18-.19,.68-.75,1.01-1.29,1.35Z"/>
  <path class="cls-4" d="M161.94,152.86c.1-.82,.59-1.26,1.35-1.46,.18,1.07-.29,1.54-1.35,1.46Z"/>
  <path class="cls-5" d="M204.09,148.05c0,.16,.04,.32,.13,.45-.49,.25-.99,.49-1.48,.74-.34-1.29,.47-1.28,1.35-1.2Z"/>
  <path class="cls-7" d="M189.03,124.56c-.05-.19-.09-.39-.14-.58,.4-.27,.79-.55,1.19-.83,.68,1.23-.29,1.24-1.05,1.41Z"/>
  <path class="cls-9" d="M35,231.5c-1,1.65-2,.55-3,0,1-1.15,2,.36,3,0Z"/>
  <path class="cls-9" d="M167.54,94.52c0,1.38-.61,2.27-2.02,2.51,.09-1.31,1.03-1.93,2.02-2.51Z"/>
  <path class="cls-9" d="M165.03,98.02c-.08,.94-.57,1.45-1.52,1.5,.03-.98,.53-1.49,1.52-1.5Z"/>
  <path class="cls-9" d="M171.5,90c-.03,.96-.55,1.44-1.48,1.53,0-.98,.51-1.48,1.48-1.53Z"/>
  <path class="cls-9" d="M153.01,113.5c-.02,.59-.03,1.19-.05,1.78-.43-.03-.84-.1-1.03-.56,.05-.68,.29-1.2,1.08-1.23Z"/>
  <path class="cls-9" d="M156.51,109c-.02,.65-.35,.98-1,1.02,0-.67,.33-1,1-1.02Z"/>
  <path class="cls-12" d="M146.14,120.28c.56,.15,.96,.44,.99,1.08-.89,.15-1.14-.28-.99-1.08Z"/>
  <path class="cls-8" d="M151.76,122.01c-2.38,.02-5.5-3.83-4.7-6.02,.67-1.85,2.11-1.15,3.21-.41,1.01,.67,1.76,1.63,2.96,2.16,1.31,.58,.83,2.04,.69,3.13-.16,1.2-1.22,1.14-2.14,1.14Z"/>
  <path class="cls-14" d="M176.86,91.97c-.09,.73-.7,.96-1.24,1.25-.22-1.04,.42-1.24,1.24-1.25Z"/>
  <path class="cls-14" d="M172.62,97.04c-.02,.66-.41,1.01-1,1.17-.14-.79,.19-1.19,1-1.17Z"/>
  <path class="cls-14" d="M184.12,82.56c-.06,.45-.21,.82-.72,.91-.6-.96,.14-.87,.72-.91Z"/>
  <path class="cls-14" d="M204.36,95.35c1.2-.58,1.62-2.12,3.01-2.48-.43,1.63-1.42,2.73-3.05,3.23,.02-.25,.03-.5,.05-.75Z"/>
  <path class="cls-14" d="M200.36,100.35c.17-.82,.76-1.25,1.46-1.57,.2,1.16-.3,1.67-1.46,1.57Z"/>
  <path class="cls-14" d="M199.36,101.39c.14-.53,.44-.89,.99-1.02,.17,.83-.18,1.15-.99,1.02Z"/>
</svg>