<?xml version="1.0" encoding="UTF-8"?>
<svg id="Layer_1" data-name="Layer 1" xmlns="http://www.w3.org/2000/svg" viewBox="0 0 304 228.05">
  <defs>
    <style>
      .cls-1 {
        fill: #007d00;
      }

      .cls-2 {
        fill: none;
        stroke: #007d00;
        stroke-linecap: round;
        stroke-linejoin: round;
        stroke-width: 2px;
      }
    </style>
  </defs>
  <path class="cls-1" d="M139.55,186.52c-5.15,2-9.95,3.86-14.74,5.72-3.65,1.42-7.29,2.86-10.95,4.25-2.91,1.1-3.41,.88-4.5-1.96-1.23-3.19-2.47-6.37-3.57-9.6-.57-1.68-1.32-2.32-3.26-2.05-7.83,1.12-15.69,2.06-23.55,3.02-1.27,.15-2.78,.74-3.63-.76-.76-1.34,.32-2.36,.96-3.39,6.44-10.42,12.9-20.82,19.33-31.24,.46-.74,1.2-1.41,1.07-2.43-.68-.77-1.58-.47-2.37-.49-2.92-.04-5.83,0-8.75-.03-1.13-.01-2.43,.31-3.14-.98-.72-1.31,.28-2.2,.93-3.12,4.27-6.06,8.55-12.11,12.84-18.16,4.53-6.39,9.02-12.8,13.63-19.13,1.2-1.65,1.23-2.53-.68-3.64-5.37-3.11-5.69-2.35-2.04-8.3,3-4.9,6.01-9.8,9-14.71,.33-.55,.86-1.04,.72-1.97-1.68-.37-3.1,.63-4.62,1.02-1.17,.31-2.3,.72-3.14-.52-.8-1.19,.08-2.02,.75-2.87,6.07-7.73,12.15-15.46,18.21-23.2,.43-.55,1.19-.97,.94-2.31-2.57,.26-5.17,.51-7.77,.77-1.16,.12-2.32,.22-3.48,.35-1.08,.12-2.05-.09-2.5-1.18-.43-1.03,.25-1.73,.92-2.38,4.29-4.2,8.49-8.47,12.45-12.98,8.56-9.75,15.91-20.32,21.63-31.99,.5-1.03,.87-2.29,2.35-2.25,1.34,.04,1.71,1.19,2.17,2.15,8.15,16.79,19.71,31.01,32.98,43.96,.42,.41,.83,.82,1.26,1.22,.8,.75,1.21,1.59,.68,2.67-.5,1.03-1.41,1.02-2.36,.92-3.15-.34-6.3-.68-9.45-.99-.62-.06-1.31-.46-1.93,.24-.02,1.08,.88,1.69,1.47,2.44,5.86,7.47,11.76,14.92,17.64,22.37,.7,.89,1.78,1.75,.93,3.06-.91,1.41-2.19,.78-3.38,.43-1.42-.41-2.83-.83-4.27-1.26-.45,1.29,.4,1.93,.83,2.64,3.35,5.57,6.74,11.11,10.13,16.65,1.6,2.61,1.49,3.06-1.18,4.7-1.34,.83-2.68,1.65-3.93,2.43-.15,1.34,.7,2.01,1.25,2.79,8.47,11.97,16.95,23.93,25.43,35.89,.43,.61,.87,1.22,1.26,1.86,1.3,2.11,.69,3.3-1.81,3.37-3.08,.08-6.17,0-9.25,.05-.88,.01-1.83-.24-2.83,.45,.49,1.74,1.56,3.22,2.49,4.73,5.96,9.63,11.97,19.24,17.96,28.86,.22,.35,.44,.71,.65,1.07,.48,.81,.85,1.64,.27,2.57-.6,.97-1.55,.86-2.46,.75-4.88-.6-9.75-1.22-14.63-1.83-3.39-.42-6.79-.78-10.17-1.29-1.59-.24-2.44,.18-2.99,1.76-1.19,3.46-2.6,6.85-3.84,10.3-.72,2-1.9,2.52-3.86,1.73-3.24-1.31-6.57-2.42-9.78-3.8-1.74-.74-2.83-.61-3.38,1.35-.13,.48-.41,.91-.57,1.38-.67,1.91-1.88,2.33-3.71,1.5-3.57-1.61-7.17-3.15-10.77-4.69-.81-.34-1.57-1.02-2.54-.67-.5,.52-.35,1.12-.3,1.68,.62,6.55,1.29,13.1,1.83,19.66,.14,1.69,.75,2.24,2.45,2.24,19.33-.05,38.66-.06,57.99,0,1.86,0,2.64-.52,2.87-2.46,.58-4.88,1.44-9.72,2.08-14.6,.19-1.42,.62-2.12,2.18-2.46,8.91-1.92,12.5-10.44,7.73-18.27-3.77-6.19-7.66-12.31-11.49-18.46-.39-.62-.95-1.17-.98-1.95,.25-.65,.9-.73,1.38-1.02,6.44-3.8,8.08-11.32,3.75-17.43-6.97-9.86-13.91-19.75-20.99-29.54-1.22-1.68-1.19-2.75,.11-4.29,3-3.57,5.84-7.28,8.72-10.94,.49-.62,.91-1.31,1.5-2.16-2.56-.62-4.74,.28-6.94,.24-1.15-.02-2.44,.34-3.03-1.06-.53-1.27,.42-2.01,1.2-2.75,10.29-9.89,19.14-20.86,25.43-33.76,.41-.84,.86-1.69,1.96-1.69,1.08,0,1.59,.8,2,1.65,6.24,12.93,15.13,23.87,25.41,33.77,.78,.76,1.65,1.54,1.15,2.79-.52,1.3-1.69,1.07-2.78,1.07-2.23,0-4.42-.74-6.69-.45-.27,1.29,.72,1.88,1.29,2.61,3.79,4.86,7.65,9.67,11.43,14.54,.86,1.11,2.49,2.18,1.35,3.87-1.07,1.59-2.57,.41-3.88,.17-.32-.06-.63-.11-1.14-.21-.08,1.19,.66,1.92,1.14,2.71,2.07,3.42,4.22,6.8,6.27,10.23,1.68,2.8,1.52,3.21-1.26,4.91-.7,.43-1.55,.67-2,1.5-.06,1,.74,1.61,1.24,2.32,6.22,8.76,12.48,17.5,18.7,26.26,.74,1.04,2,2.03,1.18,3.54-.75,1.38-2.19,.95-3.39,.97-2.23,.05-4.46,.01-6.66,.01-.36,1.5,.5,2.32,1.04,3.19,4.5,7.31,9.04,14.59,13.55,21.89,.63,1.03,1.71,2.06,.83,3.39-.87,1.31-2.24,.77-3.45,.64-5.55-.61-11.1-1.19-16.63-1.91-1.71-.22-2.6,.23-3.12,1.93-.68,2.22-1.71,4.34-2.46,6.55-.68,2-1.82,2.62-3.81,1.78-2.15-.9-4.37-1.63-6.51-2.56-1.42-.62-2.39-.53-2.88,1.1-.74,2.41-2.3,2.48-4.3,1.58-2.78-1.26-5.6-2.43-8.22-3.56-.82,.54-.7,1.06-.65,1.55,.33,3.73,.66,7.47,1.01,11.2,.33,3.52,.34,3.52,3.8,3.52,15.25,0,30.5,0,45.75,0,1.25,0,2.5,0,3.72,.37,2.86,.85,4.74,3.44,4.6,6.38-.15,3.08-2.34,5.5-5.44,5.92-.82,.11-1.66,.08-2.5,.08-84.41,0-168.82,0-253.23,0-12,0-24-.04-36-.04-2.62,0-4.74-.91-6.02-3.28-1.16-2.16-1.08-4.36,.21-6.43,1.48-2.36,3.8-3.01,6.46-3.01,15.5,.03,31,.01,46.5,0,3.59,0,3.6,0,3.93-3.65,.37-4.11,.7-8.23,1.09-12.94-3.13,1.35-5.76,2.51-8.41,3.63-3.23,1.36-3.39,1.35-5-1.69-.62-1.17-1.32-1.31-2.42-.86-2.08,.85-4.18,1.66-6.29,2.45-2.99,1.11-3.34,.95-4.48-1.92-.82-2.09-1.73-4.16-2.39-6.31-.5-1.61-1.38-2-2.97-1.8-5.79,.72-11.59,1.32-17.38,2-1.11,.13-2.23,.3-2.89-.85-.59-1.04,.06-1.91,.59-2.76,4.61-7.43,9.23-14.86,13.83-22.3,.52-.83,.95-1.72,1.41-2.57-1-1.13-2.15-.61-3.16-.68-1.33-.09-2.67,.01-4-.04-1.2-.04-2.62,.36-3.31-1.11-.61-1.31,.39-2.21,1.05-3.13,4.83-6.79,9.69-13.55,14.53-20.33,1.93-2.71,3.83-5.44,5.7-8.1-.36-1.38-1.55-1.65-2.45-2.11-2.15-1.11-2.36-2.5-1.11-4.45,2.2-3.44,4.3-6.94,6.44-10.42,.47-.77,.9-1.57,1.32-2.31-.61-.78-1.14-.25-1.66-.15-1.25,.24-2.69,1.17-3.61-.39-.88-1.48,.42-2.48,1.21-3.5,3.8-4.86,7.64-9.67,11.44-14.53,.64-.81,1.61-1.47,1.58-2.83-1.94-.42-3.79,.34-5.67,.3-1.33-.03-3.01,.81-3.81-.91-.78-1.7,.79-2.54,1.76-3.49,8.51-8.3,16.08-17.35,21.93-27.75,.98-1.74,1.86-3.54,2.78-5.31,.43-.84,.89-1.66,1.96-1.71,1.11-.06,1.59,.77,2,1.61,6.32,12.98,15.23,24.01,25.59,33.95,.79,.76,1.65,1.55,1.01,2.79-.56,1.1-1.62,.94-2.64,.93-2.3-.01-4.58-.76-6.95-.39-.04,1.36,.98,1.98,1.61,2.79,2.96,3.82,5.91,7.65,8.99,11.37,1.17,1.41,1.16,2.4,.09,3.88-6.62,9.2-13.15,18.45-19.68,27.71-5.58,7.91-4.33,14.15,3.81,19.31,.13,.08,.19,.25,.47,.64-1.9,3.06-3.86,6.23-5.83,9.39-2.29,3.68-4.64,7.32-6.87,11.03-4.4,7.34-1.29,15.48,6.89,17.88,1.49,.44,1.93,1.17,2.12,2.57,.66,4.95,1.5,9.88,2.13,14.84,.21,1.62,.76,2.3,2.49,2.29,17.66-.05,35.33-.04,52.99-.02,1.22,0,2.05-.17,2.25-1.64,1.18-8.58,2.43-17.16,3.64-25.73,.04-.31-.04-.63-.11-1.42Z"/>
  <path class="cls-2" d="M148.77,215.05c-4,4.03-8.57,6.85-14.5,6.74-.33,0-.67-.16-1-.24"/>
  <path class="cls-2" d="M166.52,221.68c-6.75,.75-12.16-1.9-16.75-6.62"/>
  <path class="cls-2" d="M85.77,178.8c-2.33,1.42-4.69,2.8-6.99,4.27-.95,.6-1.76,1.41-3.01,1.23"/>
  <path class="cls-2" d="M152.39,1.3c.04,3.5,.08,7,.12,10.5"/>
  <path class="cls-2" d="M92.77,141.3c-2.75,1.33-5.54,2.59-8.22,4.06-.63,.35-1.17,.39-1.78,.44"/>
  <path class="cls-2" d="M222.27,145.8c-2.03,.25-3.3-1.4-4.98-2.05-1.83-.71-3.52-1.79-5.27-2.7"/>
  <path class="cls-2" d="M188.77,48.93c-2.28-.07-3.97-1.66-5.98-2.42-2.33-.88-4.52-2.12-6.77-3.2"/>
  <path class="cls-2" d="M194.52,77.55c-2.8-2.84-6.03-4.95-10-5.75"/>
  <path class="cls-2" d="M120.27,72.05c-3.7,.1-6.1,2.8-8.99,4.51-.66,.39-.49,1.11-.51,1.74"/>
  <path class="cls-2" d="M233.52,158.55c-2.82-.13-5.61-.39-8.25-1.5"/>
  <path class="cls-2" d="M238.27,53.3c-.03,3.67,.5,7.33,0,11"/>
  <path class="cls-2" d="M65.77,53.3c-.08,3.67-.17,7.33-.25,11"/>
  <path class="cls-2" d="M112.52,97.3c-2.47,.22-4.67,1.78-7.25,1.5"/>
  <path class="cls-2" d="M199.77,98.8c-2.61,.05-4.94-1.28-7.5-1.5"/>
  <path class="cls-2" d="M79.77,157.05c-2.67,.98-5.48,1.24-8.25,1.75"/>
  <path class="cls-2" d="M96.27,107.55c-2.58,.08-5.17,.17-7.75,.25"/>
  <path class="cls-2" d="M215.77,107.05h-7.5"/>
  <path class="cls-2" d="M42.27,108.3c-3.39-.38-5.93,1.49-8.5,3.25"/>
  <path class="cls-2" d="M270.27,111.55c-2.56-2.05-5.44-3.32-8.75-3.5"/>
  <path class="cls-2" d="M222.27,85.8c-2.88,.87-5.66,1.91-8.28,3.45-1.07,.63-2.33,1.23-3.72,1.05"/>
  <path class="cls-2" d="M93.77,90.3c-3.15-.08-5.4-2.41-8.25-3.25-1.34-.4-2.67-.83-4-1.25"/>
  <path class="cls-2" d="M37.27,195.55c-.84,2.25-2.35,4.25-2.5,6.75"/>
  <path class="cls-2" d="M266.77,195.55c.84,2.25,2.35,4.25,2.5,6.75"/>
  <path class="cls-2" d="M50.52,188.05c.17,4.49-.66,8.81-2.25,13"/>
  <path class="cls-2" d="M253.52,188.05c-.17,4.49,.66,8.81,2.25,13"/>
</svg>